%TF.GenerationSoftware,KiCad,Pcbnew,(6.0.0)*%
%TF.CreationDate,2022-09-15T20:56:53-04:00*%
%TF.ProjectId,Load_PCB_KiCAD,4c6f6164-5f50-4434-925f-4b694341442e,rev?*%
%TF.SameCoordinates,Original*%
%TF.FileFunction,Soldermask,Bot*%
%TF.FilePolarity,Negative*%
%FSLAX46Y46*%
G04 Gerber Fmt 4.6, Leading zero omitted, Abs format (unit mm)*
G04 Created by KiCad (PCBNEW (6.0.0)) date 2022-09-15 20:56:53*
%MOMM*%
%LPD*%
G01*
G04 APERTURE LIST*
%ADD10C,6.400000*%
%ADD11O,1.600000X2.500000*%
%ADD12O,3.500000X7.000000*%
%ADD13R,1.700000X1.700000*%
%ADD14O,1.700000X1.700000*%
G04 APERTURE END LIST*
D10*
%TO.C,H4*%
X79000000Y-66000000D03*
%TD*%
%TO.C,H3*%
X79000000Y-93000000D03*
%TD*%
%TO.C,H2*%
X161000000Y-93000000D03*
%TD*%
%TO.C,H1*%
X161000000Y-66000000D03*
%TD*%
D11*
%TO.C,J3*%
X155685000Y-106420000D03*
X153145000Y-106420000D03*
D12*
X148065000Y-111500000D03*
X158225000Y-111500000D03*
%TD*%
%TO.C,J8*%
X91550000Y-111500000D03*
X81390000Y-111500000D03*
D11*
X86470000Y-106420000D03*
X89010000Y-106420000D03*
%TD*%
D13*
%TO.C,J7*%
X86850000Y-91880000D03*
D14*
X86850000Y-94420000D03*
X89390000Y-91880000D03*
X89390000Y-94420000D03*
X91930000Y-91880000D03*
X91930000Y-94420000D03*
X94470000Y-91880000D03*
X94470000Y-94420000D03*
%TD*%
D13*
%TO.C,J6*%
X138270000Y-94420000D03*
D14*
X138270000Y-91880000D03*
X135730000Y-94420000D03*
X135730000Y-91880000D03*
X133190000Y-94420000D03*
X133190000Y-91880000D03*
X130650000Y-94420000D03*
X130650000Y-91880000D03*
%TD*%
D12*
%TO.C,J5*%
X136000000Y-111500000D03*
X125840000Y-111500000D03*
D11*
X130920000Y-106420000D03*
X133460000Y-106420000D03*
%TD*%
D13*
%TO.C,J4*%
X153070000Y-94420000D03*
D14*
X153070000Y-91880000D03*
X150530000Y-94420000D03*
X150530000Y-91880000D03*
X147990000Y-94420000D03*
X147990000Y-91880000D03*
X145450000Y-94420000D03*
X145450000Y-91880000D03*
%TD*%
%TO.C,J2*%
X100850000Y-91880000D03*
X100850000Y-94420000D03*
X103390000Y-91880000D03*
X103390000Y-94420000D03*
X105930000Y-91880000D03*
X105930000Y-94420000D03*
X108470000Y-91880000D03*
D13*
X108470000Y-94420000D03*
%TD*%
D11*
%TO.C,J1*%
X111235000Y-106420000D03*
X108695000Y-106420000D03*
D12*
X103615000Y-111500000D03*
X113775000Y-111500000D03*
%TD*%
M02*
