%TF.GenerationSoftware,KiCad,Pcbnew,(6.0.0)*%
%TF.CreationDate,2022-09-15T20:56:53-04:00*%
%TF.ProjectId,Load_PCB_KiCAD,4c6f6164-5f50-4434-925f-4b694341442e,rev?*%
%TF.SameCoordinates,Original*%
%TF.FileFunction,Copper,L1,Top*%
%TF.FilePolarity,Positive*%
%FSLAX46Y46*%
G04 Gerber Fmt 4.6, Leading zero omitted, Abs format (unit mm)*
G04 Created by KiCad (PCBNEW (6.0.0)) date 2022-09-15 20:56:53*
%MOMM*%
%LPD*%
G01*
G04 APERTURE LIST*
G04 Aperture macros list*
%AMRoundRect*
0 Rectangle with rounded corners*
0 $1 Rounding radius*
0 $2 $3 $4 $5 $6 $7 $8 $9 X,Y pos of 4 corners*
0 Add a 4 corners polygon primitive as box body*
4,1,4,$2,$3,$4,$5,$6,$7,$8,$9,$2,$3,0*
0 Add four circle primitives for the rounded corners*
1,1,$1+$1,$2,$3*
1,1,$1+$1,$4,$5*
1,1,$1+$1,$6,$7*
1,1,$1+$1,$8,$9*
0 Add four rect primitives between the rounded corners*
20,1,$1+$1,$2,$3,$4,$5,0*
20,1,$1+$1,$4,$5,$6,$7,0*
20,1,$1+$1,$6,$7,$8,$9,0*
20,1,$1+$1,$8,$9,$2,$3,0*%
G04 Aperture macros list end*
%TA.AperFunction,ComponentPad*%
%ADD10C,6.400000*%
%TD*%
%TA.AperFunction,ComponentPad*%
%ADD11O,1.600000X2.500000*%
%TD*%
%TA.AperFunction,ComponentPad*%
%ADD12O,3.500000X7.000000*%
%TD*%
%TA.AperFunction,SMDPad,CuDef*%
%ADD13RoundRect,0.250000X0.400000X0.625000X-0.400000X0.625000X-0.400000X-0.625000X0.400000X-0.625000X0*%
%TD*%
%TA.AperFunction,ComponentPad*%
%ADD14R,1.700000X1.700000*%
%TD*%
%TA.AperFunction,ComponentPad*%
%ADD15O,1.700000X1.700000*%
%TD*%
%TA.AperFunction,ViaPad*%
%ADD16C,0.800000*%
%TD*%
%TA.AperFunction,Conductor*%
%ADD17C,1.000000*%
%TD*%
%TA.AperFunction,Conductor*%
%ADD18C,0.250000*%
%TD*%
G04 APERTURE END LIST*
D10*
%TO.P,H4,1,1*%
%TO.N,GND*%
X79000000Y-66000000D03*
%TD*%
%TO.P,H3,1,1*%
%TO.N,GND*%
X79000000Y-93000000D03*
%TD*%
%TO.P,H2,1,1*%
%TO.N,GND*%
X161000000Y-93000000D03*
%TD*%
%TO.P,H1,1,1*%
%TO.N,GND*%
X161000000Y-66000000D03*
%TD*%
D11*
%TO.P,J3,2,Ext*%
%TO.N,GND*%
X155685000Y-106420000D03*
%TO.P,J3,1,In*%
%TO.N,Net-(J3-Pad1)*%
X153145000Y-106420000D03*
D12*
%TO.P,J3,2,Ext*%
%TO.N,GND*%
X148065000Y-111500000D03*
X158225000Y-111500000D03*
%TD*%
D13*
%TO.P,R4,1*%
%TO.N,Net-(J4-Pad2)*%
X143820000Y-66710000D03*
%TO.P,R4,2*%
%TO.N,Net-(J7-Pad1)*%
X140720000Y-66710000D03*
%TD*%
%TO.P,R3,2*%
%TO.N,Net-(J6-Pad6)*%
X140720000Y-71710000D03*
%TO.P,R3,1*%
%TO.N,Net-(J2-Pad6)*%
X143820000Y-71710000D03*
%TD*%
%TO.P,R2,2*%
%TO.N,Net-(J6-Pad4)*%
X140720000Y-76710000D03*
%TO.P,R2,1*%
%TO.N,Net-(J2-Pad4)*%
X143820000Y-76710000D03*
%TD*%
%TO.P,R1,1*%
%TO.N,Net-(J4-Pad8)*%
X143820000Y-81710000D03*
%TO.P,R1,2*%
%TO.N,Net-(J6-Pad2)*%
X140720000Y-81710000D03*
%TD*%
D12*
%TO.P,J8,2,Ext*%
%TO.N,GND*%
X91550000Y-111500000D03*
X81390000Y-111500000D03*
D11*
%TO.P,J8,1,In*%
%TO.N,Net-(J7-Pad2)*%
X86470000Y-106420000D03*
%TO.P,J8,2,Ext*%
%TO.N,GND*%
X89010000Y-106420000D03*
%TD*%
D14*
%TO.P,J7,1,Pin_1*%
%TO.N,Net-(J7-Pad1)*%
X86850000Y-91880000D03*
D15*
%TO.P,J7,2,Pin_2*%
%TO.N,Net-(J7-Pad2)*%
X86850000Y-94420000D03*
%TO.P,J7,3,Pin_3*%
%TO.N,Net-(J6-Pad6)*%
X89390000Y-91880000D03*
%TO.P,J7,4,Pin_4*%
%TO.N,Net-(J7-Pad2)*%
X89390000Y-94420000D03*
%TO.P,J7,5,Pin_5*%
%TO.N,Net-(J6-Pad4)*%
X91930000Y-91880000D03*
%TO.P,J7,6,Pin_6*%
%TO.N,Net-(J7-Pad2)*%
X91930000Y-94420000D03*
%TO.P,J7,7,Pin_7*%
%TO.N,Net-(J6-Pad2)*%
X94470000Y-91880000D03*
%TO.P,J7,8,Pin_8*%
%TO.N,Net-(J7-Pad2)*%
X94470000Y-94420000D03*
%TD*%
D14*
%TO.P,J6,1,Pin_1*%
%TO.N,Net-(J5-Pad1)*%
X138270000Y-94420000D03*
D15*
%TO.P,J6,2,Pin_2*%
%TO.N,Net-(J6-Pad2)*%
X138270000Y-91880000D03*
%TO.P,J6,3,Pin_3*%
%TO.N,Net-(J5-Pad1)*%
X135730000Y-94420000D03*
%TO.P,J6,4,Pin_4*%
%TO.N,Net-(J6-Pad4)*%
X135730000Y-91880000D03*
%TO.P,J6,5,Pin_5*%
%TO.N,Net-(J5-Pad1)*%
X133190000Y-94420000D03*
%TO.P,J6,6,Pin_6*%
%TO.N,Net-(J6-Pad6)*%
X133190000Y-91880000D03*
%TO.P,J6,7,Pin_7*%
%TO.N,Net-(J5-Pad1)*%
X130650000Y-94420000D03*
%TO.P,J6,8,Pin_8*%
%TO.N,Net-(J7-Pad1)*%
X130650000Y-91880000D03*
%TD*%
D12*
%TO.P,J5,2,Ext*%
%TO.N,GND*%
X136000000Y-111500000D03*
X125840000Y-111500000D03*
D11*
%TO.P,J5,1,In*%
%TO.N,Net-(J5-Pad1)*%
X130920000Y-106420000D03*
%TO.P,J5,2,Ext*%
%TO.N,GND*%
X133460000Y-106420000D03*
%TD*%
D14*
%TO.P,J4,1,Pin_1*%
%TO.N,Net-(J3-Pad1)*%
X153070000Y-94420000D03*
D15*
%TO.P,J4,2,Pin_2*%
%TO.N,Net-(J4-Pad2)*%
X153070000Y-91880000D03*
%TO.P,J4,3,Pin_3*%
%TO.N,Net-(J3-Pad1)*%
X150530000Y-94420000D03*
%TO.P,J4,4,Pin_4*%
%TO.N,Net-(J2-Pad6)*%
X150530000Y-91880000D03*
%TO.P,J4,5,Pin_5*%
%TO.N,Net-(J3-Pad1)*%
X147990000Y-94420000D03*
%TO.P,J4,6,Pin_6*%
%TO.N,Net-(J2-Pad4)*%
X147990000Y-91880000D03*
%TO.P,J4,7,Pin_7*%
%TO.N,Net-(J3-Pad1)*%
X145450000Y-94420000D03*
%TO.P,J4,8,Pin_8*%
%TO.N,Net-(J4-Pad8)*%
X145450000Y-91880000D03*
%TD*%
%TO.P,J2,8,Pin_8*%
%TO.N,Net-(J4-Pad2)*%
X100850000Y-91880000D03*
%TO.P,J2,7,Pin_7*%
%TO.N,Net-(J1-Pad1)*%
X100850000Y-94420000D03*
%TO.P,J2,6,Pin_6*%
%TO.N,Net-(J2-Pad6)*%
X103390000Y-91880000D03*
%TO.P,J2,5,Pin_5*%
%TO.N,Net-(J1-Pad1)*%
X103390000Y-94420000D03*
%TO.P,J2,4,Pin_4*%
%TO.N,Net-(J2-Pad4)*%
X105930000Y-91880000D03*
%TO.P,J2,3,Pin_3*%
%TO.N,Net-(J1-Pad1)*%
X105930000Y-94420000D03*
%TO.P,J2,2,Pin_2*%
%TO.N,Net-(J4-Pad8)*%
X108470000Y-91880000D03*
D14*
%TO.P,J2,1,Pin_1*%
%TO.N,Net-(J1-Pad1)*%
X108470000Y-94420000D03*
%TD*%
D11*
%TO.P,J1,2,Ext*%
%TO.N,GND*%
X111235000Y-106420000D03*
%TO.P,J1,1,In*%
%TO.N,Net-(J1-Pad1)*%
X108695000Y-106420000D03*
D12*
%TO.P,J1,2,Ext*%
%TO.N,GND*%
X103615000Y-111500000D03*
X113775000Y-111500000D03*
%TD*%
D16*
%TO.N,GND*%
X111000000Y-74000000D03*
X115000000Y-69000000D03*
X115000000Y-74000000D03*
X120000000Y-74000000D03*
X120000000Y-69000000D03*
X125000000Y-69000000D03*
X125000000Y-74000000D03*
X130000000Y-69000000D03*
X130000000Y-74000000D03*
X137000000Y-79000000D03*
X130000000Y-79000000D03*
X125000000Y-79000000D03*
X120000000Y-79000000D03*
X115000000Y-79000000D03*
X110000000Y-79000000D03*
%TO.N,Net-(J4-Pad8)*%
X135470000Y-80420000D03*
%TO.N,Net-(J2-Pad4)*%
X137470000Y-75420000D03*
%TO.N,Net-(J2-Pad6)*%
X137970000Y-70420000D03*
%TO.N,Net-(J4-Pad2)*%
X146470000Y-66420000D03*
%TO.N,Net-(J4-Pad8)*%
X142970000Y-83420000D03*
%TO.N,Net-(J2-Pad4)*%
X142970000Y-78420000D03*
%TO.N,Net-(J2-Pad6)*%
X144270000Y-73710000D03*
%TO.N,Net-(J4-Pad2)*%
X144270000Y-68710000D03*
%TO.N,Net-(J7-Pad1)*%
X140270000Y-68710000D03*
%TO.N,Net-(J6-Pad6)*%
X140270000Y-73710000D03*
%TO.N,Net-(J6-Pad2)*%
X141470000Y-83420000D03*
%TO.N,Net-(J6-Pad4)*%
X141470000Y-78420000D03*
%TD*%
D17*
%TO.N,Net-(J3-Pad1)*%
X145450000Y-97400000D02*
X145450000Y-94420000D01*
X153145000Y-106420000D02*
X153145000Y-105095000D01*
X153145000Y-105095000D02*
X145450000Y-97400000D01*
%TO.N,Net-(J5-Pad1)*%
X138270000Y-94420000D02*
X130650000Y-94420000D01*
%TO.N,Net-(J3-Pad1)*%
X145450000Y-94420000D02*
X153070000Y-94420000D01*
%TO.N,Net-(J5-Pad1)*%
X138270000Y-97720000D02*
X138270000Y-94420000D01*
X130920000Y-105070000D02*
X138270000Y-97720000D01*
X130920000Y-106420000D02*
X130920000Y-105070000D01*
%TO.N,Net-(J2-Pad6)*%
X143820000Y-70770000D02*
X143820000Y-71710000D01*
X143185480Y-70135480D02*
X143820000Y-70770000D01*
X137970000Y-70420000D02*
X138254520Y-70135480D01*
X138254520Y-70135480D02*
X143185480Y-70135480D01*
%TO.N,Net-(J2-Pad4)*%
X143820000Y-75770000D02*
X143820000Y-76710000D01*
X143185480Y-75135480D02*
X143820000Y-75770000D01*
X137470000Y-75420000D02*
X137754520Y-75135480D01*
X137754520Y-75135480D02*
X143185480Y-75135480D01*
%TO.N,Net-(J4-Pad8)*%
X142245480Y-80135480D02*
X143820000Y-81710000D01*
X139926696Y-80135480D02*
X142245480Y-80135480D01*
X139642176Y-80420000D02*
X139926696Y-80135480D01*
X135470000Y-80420000D02*
X139642176Y-80420000D01*
D18*
%TO.N,Net-(J2-Pad4)*%
X142970000Y-77560000D02*
X143820000Y-76710000D01*
X142970000Y-78420000D02*
X142970000Y-77560000D01*
%TO.N,Net-(J4-Pad8)*%
X143820000Y-82570000D02*
X143820000Y-81710000D01*
X142970000Y-83420000D02*
X143820000Y-82570000D01*
%TO.N,Net-(J6-Pad2)*%
X140720000Y-82670000D02*
X140720000Y-81710000D01*
X141470000Y-83420000D02*
X140720000Y-82670000D01*
%TO.N,Net-(J6-Pad4)*%
X141470000Y-77460000D02*
X140720000Y-76710000D01*
X141470000Y-78420000D02*
X141470000Y-77460000D01*
D17*
%TO.N,Net-(J6-Pad2)*%
X104640000Y-81710000D02*
X140720000Y-81710000D01*
X94470000Y-91880000D02*
X104640000Y-81710000D01*
%TO.N,Net-(J6-Pad4)*%
X107100000Y-76710000D02*
X140720000Y-76710000D01*
X91930000Y-91880000D02*
X107100000Y-76710000D01*
%TO.N,Net-(J6-Pad6)*%
X109560000Y-71710000D02*
X140720000Y-71710000D01*
X89390000Y-91880000D02*
X109560000Y-71710000D01*
%TO.N,Net-(J4-Pad2)*%
X144110000Y-66420000D02*
X143820000Y-66710000D01*
X146470000Y-66420000D02*
X144110000Y-66420000D01*
%TO.N,Net-(J7-Pad1)*%
X112020000Y-66710000D02*
X140720000Y-66710000D01*
X86850000Y-91880000D02*
X112020000Y-66710000D01*
%TO.N,Net-(J1-Pad1)*%
X100850000Y-94420000D02*
X108470000Y-94420000D01*
X98470000Y-94420000D02*
X100850000Y-94420000D01*
X98470000Y-101420000D02*
X98470000Y-94420000D01*
X100470000Y-103420000D02*
X98470000Y-101420000D01*
X105695000Y-103420000D02*
X100470000Y-103420000D01*
X108695000Y-106420000D02*
X105695000Y-103420000D01*
%TO.N,Net-(J7-Pad2)*%
X96470000Y-101420000D02*
X96470000Y-94420000D01*
X88120000Y-103420000D02*
X94470000Y-103420000D01*
X86470000Y-105070000D02*
X88120000Y-103420000D01*
X86470000Y-106420000D02*
X86470000Y-105070000D01*
X94470000Y-103420000D02*
X96470000Y-101420000D01*
X96470000Y-94420000D02*
X86850000Y-94420000D01*
D18*
%TO.N,Net-(J2-Pad6)*%
X143820000Y-73260000D02*
X144270000Y-73710000D01*
X143820000Y-71710000D02*
X143820000Y-73260000D01*
%TO.N,Net-(J4-Pad2)*%
X143820000Y-68260000D02*
X144270000Y-68710000D01*
X143820000Y-66710000D02*
X143820000Y-68260000D01*
%TO.N,Net-(J7-Pad1)*%
X140720000Y-68260000D02*
X140270000Y-68710000D01*
X140720000Y-66710000D02*
X140720000Y-68260000D01*
%TO.N,Net-(J6-Pad6)*%
X140720000Y-73260000D02*
X140270000Y-73710000D01*
X140720000Y-71710000D02*
X140720000Y-73260000D01*
%TD*%
%TA.AperFunction,Conductor*%
%TO.N,GND*%
G36*
X162940057Y-61929500D02*
G01*
X162954858Y-61931805D01*
X162954861Y-61931805D01*
X162963730Y-61933186D01*
X162979999Y-61931059D01*
X163004567Y-61930266D01*
X163221766Y-61944502D01*
X163238106Y-61946653D01*
X163357788Y-61970459D01*
X163477473Y-61994266D01*
X163493383Y-61998529D01*
X163724484Y-62076977D01*
X163739710Y-62083284D01*
X163958592Y-62191224D01*
X163972866Y-62199465D01*
X164175783Y-62335050D01*
X164188858Y-62345083D01*
X164372347Y-62505998D01*
X164384002Y-62517653D01*
X164544917Y-62701142D01*
X164554950Y-62714217D01*
X164690535Y-62917134D01*
X164698776Y-62931408D01*
X164806716Y-63150290D01*
X164813022Y-63165514D01*
X164891471Y-63396617D01*
X164895735Y-63412530D01*
X164943347Y-63651894D01*
X164945498Y-63668234D01*
X164959264Y-63878268D01*
X164958239Y-63901304D01*
X164958196Y-63904854D01*
X164956814Y-63913730D01*
X164958638Y-63927678D01*
X164960936Y-63945251D01*
X164962000Y-63961589D01*
X164962000Y-65937766D01*
X164942353Y-66004680D01*
X164958588Y-66033112D01*
X164962000Y-66062234D01*
X164962000Y-92937766D01*
X164942353Y-93004680D01*
X164958588Y-93033112D01*
X164962000Y-93062234D01*
X164962000Y-116370672D01*
X164960500Y-116390056D01*
X164956814Y-116413730D01*
X164958941Y-116429999D01*
X164959734Y-116454567D01*
X164945498Y-116671766D01*
X164943347Y-116688106D01*
X164895735Y-116927470D01*
X164891471Y-116943383D01*
X164856550Y-117046257D01*
X164813023Y-117174484D01*
X164806716Y-117189710D01*
X164698776Y-117408592D01*
X164690535Y-117422866D01*
X164554950Y-117625783D01*
X164544917Y-117638858D01*
X164384002Y-117822347D01*
X164372347Y-117834002D01*
X164188858Y-117994917D01*
X164175783Y-118004950D01*
X163972866Y-118140535D01*
X163958592Y-118148776D01*
X163739710Y-118256716D01*
X163724486Y-118263022D01*
X163493383Y-118341471D01*
X163477473Y-118345734D01*
X163357788Y-118369541D01*
X163238106Y-118393347D01*
X163221766Y-118395498D01*
X163011732Y-118409264D01*
X162988696Y-118408239D01*
X162985146Y-118408196D01*
X162976270Y-118406814D01*
X162947762Y-118410542D01*
X162944749Y-118410936D01*
X162928411Y-118412000D01*
X76519328Y-118412000D01*
X76499943Y-118410500D01*
X76485142Y-118408195D01*
X76485139Y-118408195D01*
X76476270Y-118406814D01*
X76460001Y-118408941D01*
X76435433Y-118409734D01*
X76218234Y-118395498D01*
X76201894Y-118393347D01*
X76082212Y-118369541D01*
X75962527Y-118345734D01*
X75946617Y-118341471D01*
X75715514Y-118263022D01*
X75700290Y-118256716D01*
X75481408Y-118148776D01*
X75467134Y-118140535D01*
X75264217Y-118004950D01*
X75251142Y-117994917D01*
X75067653Y-117834002D01*
X75055998Y-117822347D01*
X74895083Y-117638858D01*
X74885050Y-117625783D01*
X74749465Y-117422866D01*
X74741224Y-117408592D01*
X74633284Y-117189710D01*
X74626977Y-117174484D01*
X74583450Y-117046257D01*
X74548529Y-116943383D01*
X74544265Y-116927470D01*
X74496653Y-116688106D01*
X74494502Y-116671766D01*
X74480974Y-116465376D01*
X74482147Y-116442218D01*
X74481829Y-116442189D01*
X74482264Y-116437333D01*
X74483071Y-116432539D01*
X74483224Y-116420000D01*
X74479273Y-116392412D01*
X74478000Y-116374549D01*
X74478000Y-113323993D01*
X79132000Y-113323993D01*
X79132139Y-113328182D01*
X79146549Y-113545132D01*
X79147653Y-113553403D01*
X79205290Y-113839251D01*
X79207478Y-113847303D01*
X79302409Y-114123005D01*
X79305650Y-114130716D01*
X79436213Y-114391444D01*
X79440434Y-114398638D01*
X79604341Y-114639820D01*
X79609474Y-114646390D01*
X79803839Y-114863775D01*
X79809795Y-114869608D01*
X80031203Y-115059378D01*
X80037884Y-115064376D01*
X80282437Y-115223191D01*
X80289727Y-115227265D01*
X80553132Y-115352338D01*
X80560900Y-115355414D01*
X80838531Y-115444552D01*
X80846637Y-115446573D01*
X81118170Y-115495429D01*
X81131429Y-115493997D01*
X81136000Y-115479387D01*
X81136000Y-115476367D01*
X81644000Y-115476367D01*
X81648295Y-115490996D01*
X81660272Y-115493058D01*
X81732053Y-115486778D01*
X81740292Y-115485503D01*
X82024880Y-115421890D01*
X82032877Y-115419536D01*
X82306534Y-115318850D01*
X82314172Y-115315450D01*
X82572115Y-115179451D01*
X82579213Y-115175084D01*
X82816905Y-115006165D01*
X82823372Y-115000892D01*
X83036639Y-114802017D01*
X83042351Y-114795933D01*
X83227437Y-114570607D01*
X83232292Y-114563826D01*
X83385958Y-114315987D01*
X83389871Y-114308627D01*
X83509404Y-114042654D01*
X83512314Y-114034831D01*
X83595624Y-113755375D01*
X83597469Y-113747254D01*
X83643191Y-113458571D01*
X83643899Y-113451597D01*
X83647936Y-113362714D01*
X83648000Y-113359881D01*
X83648000Y-113323993D01*
X89292000Y-113323993D01*
X89292139Y-113328182D01*
X89306549Y-113545132D01*
X89307653Y-113553403D01*
X89365290Y-113839251D01*
X89367478Y-113847303D01*
X89462409Y-114123005D01*
X89465650Y-114130716D01*
X89596213Y-114391444D01*
X89600434Y-114398638D01*
X89764341Y-114639820D01*
X89769474Y-114646390D01*
X89963839Y-114863775D01*
X89969795Y-114869608D01*
X90191203Y-115059378D01*
X90197884Y-115064376D01*
X90442437Y-115223191D01*
X90449727Y-115227265D01*
X90713132Y-115352338D01*
X90720900Y-115355414D01*
X90998531Y-115444552D01*
X91006637Y-115446573D01*
X91278170Y-115495429D01*
X91291429Y-115493997D01*
X91296000Y-115479387D01*
X91296000Y-115476367D01*
X91804000Y-115476367D01*
X91808295Y-115490996D01*
X91820272Y-115493058D01*
X91892053Y-115486778D01*
X91900292Y-115485503D01*
X92184880Y-115421890D01*
X92192877Y-115419536D01*
X92466534Y-115318850D01*
X92474172Y-115315450D01*
X92732115Y-115179451D01*
X92739213Y-115175084D01*
X92976905Y-115006165D01*
X92983372Y-115000892D01*
X93196639Y-114802017D01*
X93202351Y-114795933D01*
X93387437Y-114570607D01*
X93392292Y-114563826D01*
X93545958Y-114315987D01*
X93549871Y-114308627D01*
X93669404Y-114042654D01*
X93672314Y-114034831D01*
X93755624Y-113755375D01*
X93757469Y-113747254D01*
X93803191Y-113458571D01*
X93803899Y-113451597D01*
X93807936Y-113362714D01*
X93808000Y-113359881D01*
X93808000Y-113323993D01*
X101357000Y-113323993D01*
X101357139Y-113328182D01*
X101371549Y-113545132D01*
X101372653Y-113553403D01*
X101430290Y-113839251D01*
X101432478Y-113847303D01*
X101527409Y-114123005D01*
X101530650Y-114130716D01*
X101661213Y-114391444D01*
X101665434Y-114398638D01*
X101829341Y-114639820D01*
X101834474Y-114646390D01*
X102028839Y-114863775D01*
X102034795Y-114869608D01*
X102256203Y-115059378D01*
X102262884Y-115064376D01*
X102507437Y-115223191D01*
X102514727Y-115227265D01*
X102778132Y-115352338D01*
X102785900Y-115355414D01*
X103063531Y-115444552D01*
X103071637Y-115446573D01*
X103343170Y-115495429D01*
X103356429Y-115493997D01*
X103361000Y-115479387D01*
X103361000Y-115476367D01*
X103869000Y-115476367D01*
X103873295Y-115490996D01*
X103885272Y-115493058D01*
X103957053Y-115486778D01*
X103965292Y-115485503D01*
X104249880Y-115421890D01*
X104257877Y-115419536D01*
X104531534Y-115318850D01*
X104539172Y-115315450D01*
X104797115Y-115179451D01*
X104804213Y-115175084D01*
X105041905Y-115006165D01*
X105048372Y-115000892D01*
X105261639Y-114802017D01*
X105267351Y-114795933D01*
X105452437Y-114570607D01*
X105457292Y-114563826D01*
X105610958Y-114315987D01*
X105614871Y-114308627D01*
X105734404Y-114042654D01*
X105737314Y-114034831D01*
X105820624Y-113755375D01*
X105822469Y-113747254D01*
X105868191Y-113458571D01*
X105868899Y-113451597D01*
X105872936Y-113362714D01*
X105873000Y-113359881D01*
X105873000Y-113323993D01*
X111517000Y-113323993D01*
X111517139Y-113328182D01*
X111531549Y-113545132D01*
X111532653Y-113553403D01*
X111590290Y-113839251D01*
X111592478Y-113847303D01*
X111687409Y-114123005D01*
X111690650Y-114130716D01*
X111821213Y-114391444D01*
X111825434Y-114398638D01*
X111989341Y-114639820D01*
X111994474Y-114646390D01*
X112188839Y-114863775D01*
X112194795Y-114869608D01*
X112416203Y-115059378D01*
X112422884Y-115064376D01*
X112667437Y-115223191D01*
X112674727Y-115227265D01*
X112938132Y-115352338D01*
X112945900Y-115355414D01*
X113223531Y-115444552D01*
X113231637Y-115446573D01*
X113503170Y-115495429D01*
X113516429Y-115493997D01*
X113521000Y-115479387D01*
X113521000Y-115476367D01*
X114029000Y-115476367D01*
X114033295Y-115490996D01*
X114045272Y-115493058D01*
X114117053Y-115486778D01*
X114125292Y-115485503D01*
X114409880Y-115421890D01*
X114417877Y-115419536D01*
X114691534Y-115318850D01*
X114699172Y-115315450D01*
X114957115Y-115179451D01*
X114964213Y-115175084D01*
X115201905Y-115006165D01*
X115208372Y-115000892D01*
X115421639Y-114802017D01*
X115427351Y-114795933D01*
X115612437Y-114570607D01*
X115617292Y-114563826D01*
X115770958Y-114315987D01*
X115774871Y-114308627D01*
X115894404Y-114042654D01*
X115897314Y-114034831D01*
X115980624Y-113755375D01*
X115982469Y-113747254D01*
X116028191Y-113458571D01*
X116028899Y-113451597D01*
X116032936Y-113362714D01*
X116033000Y-113359881D01*
X116033000Y-113323993D01*
X123582000Y-113323993D01*
X123582139Y-113328182D01*
X123596549Y-113545132D01*
X123597653Y-113553403D01*
X123655290Y-113839251D01*
X123657478Y-113847303D01*
X123752409Y-114123005D01*
X123755650Y-114130716D01*
X123886213Y-114391444D01*
X123890434Y-114398638D01*
X124054341Y-114639820D01*
X124059474Y-114646390D01*
X124253839Y-114863775D01*
X124259795Y-114869608D01*
X124481203Y-115059378D01*
X124487884Y-115064376D01*
X124732437Y-115223191D01*
X124739727Y-115227265D01*
X125003132Y-115352338D01*
X125010900Y-115355414D01*
X125288531Y-115444552D01*
X125296637Y-115446573D01*
X125568170Y-115495429D01*
X125581429Y-115493997D01*
X125586000Y-115479387D01*
X125586000Y-115476367D01*
X126094000Y-115476367D01*
X126098295Y-115490996D01*
X126110272Y-115493058D01*
X126182053Y-115486778D01*
X126190292Y-115485503D01*
X126474880Y-115421890D01*
X126482877Y-115419536D01*
X126756534Y-115318850D01*
X126764172Y-115315450D01*
X127022115Y-115179451D01*
X127029213Y-115175084D01*
X127266905Y-115006165D01*
X127273372Y-115000892D01*
X127486639Y-114802017D01*
X127492351Y-114795933D01*
X127677437Y-114570607D01*
X127682292Y-114563826D01*
X127835958Y-114315987D01*
X127839871Y-114308627D01*
X127959404Y-114042654D01*
X127962314Y-114034831D01*
X128045624Y-113755375D01*
X128047469Y-113747254D01*
X128093191Y-113458571D01*
X128093899Y-113451597D01*
X128097936Y-113362714D01*
X128098000Y-113359881D01*
X128098000Y-113323993D01*
X133742000Y-113323993D01*
X133742139Y-113328182D01*
X133756549Y-113545132D01*
X133757653Y-113553403D01*
X133815290Y-113839251D01*
X133817478Y-113847303D01*
X133912409Y-114123005D01*
X133915650Y-114130716D01*
X134046213Y-114391444D01*
X134050434Y-114398638D01*
X134214341Y-114639820D01*
X134219474Y-114646390D01*
X134413839Y-114863775D01*
X134419795Y-114869608D01*
X134641203Y-115059378D01*
X134647884Y-115064376D01*
X134892437Y-115223191D01*
X134899727Y-115227265D01*
X135163132Y-115352338D01*
X135170900Y-115355414D01*
X135448531Y-115444552D01*
X135456637Y-115446573D01*
X135728170Y-115495429D01*
X135741429Y-115493997D01*
X135746000Y-115479387D01*
X135746000Y-115476367D01*
X136254000Y-115476367D01*
X136258295Y-115490996D01*
X136270272Y-115493058D01*
X136342053Y-115486778D01*
X136350292Y-115485503D01*
X136634880Y-115421890D01*
X136642877Y-115419536D01*
X136916534Y-115318850D01*
X136924172Y-115315450D01*
X137182115Y-115179451D01*
X137189213Y-115175084D01*
X137426905Y-115006165D01*
X137433372Y-115000892D01*
X137646639Y-114802017D01*
X137652351Y-114795933D01*
X137837437Y-114570607D01*
X137842292Y-114563826D01*
X137995958Y-114315987D01*
X137999871Y-114308627D01*
X138119404Y-114042654D01*
X138122314Y-114034831D01*
X138205624Y-113755375D01*
X138207469Y-113747254D01*
X138253191Y-113458571D01*
X138253899Y-113451597D01*
X138257936Y-113362714D01*
X138258000Y-113359881D01*
X138258000Y-113323993D01*
X145807000Y-113323993D01*
X145807139Y-113328182D01*
X145821549Y-113545132D01*
X145822653Y-113553403D01*
X145880290Y-113839251D01*
X145882478Y-113847303D01*
X145977409Y-114123005D01*
X145980650Y-114130716D01*
X146111213Y-114391444D01*
X146115434Y-114398638D01*
X146279341Y-114639820D01*
X146284474Y-114646390D01*
X146478839Y-114863775D01*
X146484795Y-114869608D01*
X146706203Y-115059378D01*
X146712884Y-115064376D01*
X146957437Y-115223191D01*
X146964727Y-115227265D01*
X147228132Y-115352338D01*
X147235900Y-115355414D01*
X147513531Y-115444552D01*
X147521637Y-115446573D01*
X147793170Y-115495429D01*
X147806429Y-115493997D01*
X147811000Y-115479387D01*
X147811000Y-115476367D01*
X148319000Y-115476367D01*
X148323295Y-115490996D01*
X148335272Y-115493058D01*
X148407053Y-115486778D01*
X148415292Y-115485503D01*
X148699880Y-115421890D01*
X148707877Y-115419536D01*
X148981534Y-115318850D01*
X148989172Y-115315450D01*
X149247115Y-115179451D01*
X149254213Y-115175084D01*
X149491905Y-115006165D01*
X149498372Y-115000892D01*
X149711639Y-114802017D01*
X149717351Y-114795933D01*
X149902437Y-114570607D01*
X149907292Y-114563826D01*
X150060958Y-114315987D01*
X150064871Y-114308627D01*
X150184404Y-114042654D01*
X150187314Y-114034831D01*
X150270624Y-113755375D01*
X150272469Y-113747254D01*
X150318191Y-113458571D01*
X150318899Y-113451597D01*
X150322936Y-113362714D01*
X150323000Y-113359881D01*
X150323000Y-113323993D01*
X155967000Y-113323993D01*
X155967139Y-113328182D01*
X155981549Y-113545132D01*
X155982653Y-113553403D01*
X156040290Y-113839251D01*
X156042478Y-113847303D01*
X156137409Y-114123005D01*
X156140650Y-114130716D01*
X156271213Y-114391444D01*
X156275434Y-114398638D01*
X156439341Y-114639820D01*
X156444474Y-114646390D01*
X156638839Y-114863775D01*
X156644795Y-114869608D01*
X156866203Y-115059378D01*
X156872884Y-115064376D01*
X157117437Y-115223191D01*
X157124727Y-115227265D01*
X157388132Y-115352338D01*
X157395900Y-115355414D01*
X157673531Y-115444552D01*
X157681637Y-115446573D01*
X157953170Y-115495429D01*
X157966429Y-115493997D01*
X157971000Y-115479387D01*
X157971000Y-115476367D01*
X158479000Y-115476367D01*
X158483295Y-115490996D01*
X158495272Y-115493058D01*
X158567053Y-115486778D01*
X158575292Y-115485503D01*
X158859880Y-115421890D01*
X158867877Y-115419536D01*
X159141534Y-115318850D01*
X159149172Y-115315450D01*
X159407115Y-115179451D01*
X159414213Y-115175084D01*
X159651905Y-115006165D01*
X159658372Y-115000892D01*
X159871639Y-114802017D01*
X159877351Y-114795933D01*
X160062437Y-114570607D01*
X160067292Y-114563826D01*
X160220958Y-114315987D01*
X160224871Y-114308627D01*
X160344404Y-114042654D01*
X160347314Y-114034831D01*
X160430624Y-113755375D01*
X160432469Y-113747254D01*
X160478191Y-113458571D01*
X160478899Y-113451597D01*
X160482936Y-113362714D01*
X160483000Y-113359881D01*
X160483000Y-111772115D01*
X160478525Y-111756876D01*
X160477135Y-111755671D01*
X160469452Y-111754000D01*
X158497115Y-111754000D01*
X158481876Y-111758475D01*
X158480671Y-111759865D01*
X158479000Y-111767548D01*
X158479000Y-115476367D01*
X157971000Y-115476367D01*
X157971000Y-111772115D01*
X157966525Y-111756876D01*
X157965135Y-111755671D01*
X157957452Y-111754000D01*
X155985115Y-111754000D01*
X155969876Y-111758475D01*
X155968671Y-111759865D01*
X155967000Y-111767548D01*
X155967000Y-113323993D01*
X150323000Y-113323993D01*
X150323000Y-111772115D01*
X150318525Y-111756876D01*
X150317135Y-111755671D01*
X150309452Y-111754000D01*
X148337115Y-111754000D01*
X148321876Y-111758475D01*
X148320671Y-111759865D01*
X148319000Y-111767548D01*
X148319000Y-115476367D01*
X147811000Y-115476367D01*
X147811000Y-111772115D01*
X147806525Y-111756876D01*
X147805135Y-111755671D01*
X147797452Y-111754000D01*
X145825115Y-111754000D01*
X145809876Y-111758475D01*
X145808671Y-111759865D01*
X145807000Y-111767548D01*
X145807000Y-113323993D01*
X138258000Y-113323993D01*
X138258000Y-111772115D01*
X138253525Y-111756876D01*
X138252135Y-111755671D01*
X138244452Y-111754000D01*
X136272115Y-111754000D01*
X136256876Y-111758475D01*
X136255671Y-111759865D01*
X136254000Y-111767548D01*
X136254000Y-115476367D01*
X135746000Y-115476367D01*
X135746000Y-111772115D01*
X135741525Y-111756876D01*
X135740135Y-111755671D01*
X135732452Y-111754000D01*
X133760115Y-111754000D01*
X133744876Y-111758475D01*
X133743671Y-111759865D01*
X133742000Y-111767548D01*
X133742000Y-113323993D01*
X128098000Y-113323993D01*
X128098000Y-111772115D01*
X128093525Y-111756876D01*
X128092135Y-111755671D01*
X128084452Y-111754000D01*
X126112115Y-111754000D01*
X126096876Y-111758475D01*
X126095671Y-111759865D01*
X126094000Y-111767548D01*
X126094000Y-115476367D01*
X125586000Y-115476367D01*
X125586000Y-111772115D01*
X125581525Y-111756876D01*
X125580135Y-111755671D01*
X125572452Y-111754000D01*
X123600115Y-111754000D01*
X123584876Y-111758475D01*
X123583671Y-111759865D01*
X123582000Y-111767548D01*
X123582000Y-113323993D01*
X116033000Y-113323993D01*
X116033000Y-111772115D01*
X116028525Y-111756876D01*
X116027135Y-111755671D01*
X116019452Y-111754000D01*
X114047115Y-111754000D01*
X114031876Y-111758475D01*
X114030671Y-111759865D01*
X114029000Y-111767548D01*
X114029000Y-115476367D01*
X113521000Y-115476367D01*
X113521000Y-111772115D01*
X113516525Y-111756876D01*
X113515135Y-111755671D01*
X113507452Y-111754000D01*
X111535115Y-111754000D01*
X111519876Y-111758475D01*
X111518671Y-111759865D01*
X111517000Y-111767548D01*
X111517000Y-113323993D01*
X105873000Y-113323993D01*
X105873000Y-111772115D01*
X105868525Y-111756876D01*
X105867135Y-111755671D01*
X105859452Y-111754000D01*
X103887115Y-111754000D01*
X103871876Y-111758475D01*
X103870671Y-111759865D01*
X103869000Y-111767548D01*
X103869000Y-115476367D01*
X103361000Y-115476367D01*
X103361000Y-111772115D01*
X103356525Y-111756876D01*
X103355135Y-111755671D01*
X103347452Y-111754000D01*
X101375115Y-111754000D01*
X101359876Y-111758475D01*
X101358671Y-111759865D01*
X101357000Y-111767548D01*
X101357000Y-113323993D01*
X93808000Y-113323993D01*
X93808000Y-111772115D01*
X93803525Y-111756876D01*
X93802135Y-111755671D01*
X93794452Y-111754000D01*
X91822115Y-111754000D01*
X91806876Y-111758475D01*
X91805671Y-111759865D01*
X91804000Y-111767548D01*
X91804000Y-115476367D01*
X91296000Y-115476367D01*
X91296000Y-111772115D01*
X91291525Y-111756876D01*
X91290135Y-111755671D01*
X91282452Y-111754000D01*
X89310115Y-111754000D01*
X89294876Y-111758475D01*
X89293671Y-111759865D01*
X89292000Y-111767548D01*
X89292000Y-113323993D01*
X83648000Y-113323993D01*
X83648000Y-111772115D01*
X83643525Y-111756876D01*
X83642135Y-111755671D01*
X83634452Y-111754000D01*
X81662115Y-111754000D01*
X81646876Y-111758475D01*
X81645671Y-111759865D01*
X81644000Y-111767548D01*
X81644000Y-115476367D01*
X81136000Y-115476367D01*
X81136000Y-111772115D01*
X81131525Y-111756876D01*
X81130135Y-111755671D01*
X81122452Y-111754000D01*
X79150115Y-111754000D01*
X79134876Y-111758475D01*
X79133671Y-111759865D01*
X79132000Y-111767548D01*
X79132000Y-113323993D01*
X74478000Y-113323993D01*
X74478000Y-111227885D01*
X79132000Y-111227885D01*
X79136475Y-111243124D01*
X79137865Y-111244329D01*
X79145548Y-111246000D01*
X81117885Y-111246000D01*
X81133124Y-111241525D01*
X81134329Y-111240135D01*
X81136000Y-111232452D01*
X81136000Y-111227885D01*
X81644000Y-111227885D01*
X81648475Y-111243124D01*
X81649865Y-111244329D01*
X81657548Y-111246000D01*
X83629885Y-111246000D01*
X83645124Y-111241525D01*
X83646329Y-111240135D01*
X83648000Y-111232452D01*
X83648000Y-111227885D01*
X89292000Y-111227885D01*
X89296475Y-111243124D01*
X89297865Y-111244329D01*
X89305548Y-111246000D01*
X91277885Y-111246000D01*
X91293124Y-111241525D01*
X91294329Y-111240135D01*
X91296000Y-111232452D01*
X91296000Y-111227885D01*
X91804000Y-111227885D01*
X91808475Y-111243124D01*
X91809865Y-111244329D01*
X91817548Y-111246000D01*
X93789885Y-111246000D01*
X93805124Y-111241525D01*
X93806329Y-111240135D01*
X93808000Y-111232452D01*
X93808000Y-111227885D01*
X101357000Y-111227885D01*
X101361475Y-111243124D01*
X101362865Y-111244329D01*
X101370548Y-111246000D01*
X103342885Y-111246000D01*
X103358124Y-111241525D01*
X103359329Y-111240135D01*
X103361000Y-111232452D01*
X103361000Y-111227885D01*
X103869000Y-111227885D01*
X103873475Y-111243124D01*
X103874865Y-111244329D01*
X103882548Y-111246000D01*
X105854885Y-111246000D01*
X105870124Y-111241525D01*
X105871329Y-111240135D01*
X105873000Y-111232452D01*
X105873000Y-111227885D01*
X111517000Y-111227885D01*
X111521475Y-111243124D01*
X111522865Y-111244329D01*
X111530548Y-111246000D01*
X113502885Y-111246000D01*
X113518124Y-111241525D01*
X113519329Y-111240135D01*
X113521000Y-111232452D01*
X113521000Y-111227885D01*
X114029000Y-111227885D01*
X114033475Y-111243124D01*
X114034865Y-111244329D01*
X114042548Y-111246000D01*
X116014885Y-111246000D01*
X116030124Y-111241525D01*
X116031329Y-111240135D01*
X116033000Y-111232452D01*
X116033000Y-111227885D01*
X123582000Y-111227885D01*
X123586475Y-111243124D01*
X123587865Y-111244329D01*
X123595548Y-111246000D01*
X125567885Y-111246000D01*
X125583124Y-111241525D01*
X125584329Y-111240135D01*
X125586000Y-111232452D01*
X125586000Y-111227885D01*
X126094000Y-111227885D01*
X126098475Y-111243124D01*
X126099865Y-111244329D01*
X126107548Y-111246000D01*
X128079885Y-111246000D01*
X128095124Y-111241525D01*
X128096329Y-111240135D01*
X128098000Y-111232452D01*
X128098000Y-111227885D01*
X133742000Y-111227885D01*
X133746475Y-111243124D01*
X133747865Y-111244329D01*
X133755548Y-111246000D01*
X135727885Y-111246000D01*
X135743124Y-111241525D01*
X135744329Y-111240135D01*
X135746000Y-111232452D01*
X135746000Y-111227885D01*
X136254000Y-111227885D01*
X136258475Y-111243124D01*
X136259865Y-111244329D01*
X136267548Y-111246000D01*
X138239885Y-111246000D01*
X138255124Y-111241525D01*
X138256329Y-111240135D01*
X138258000Y-111232452D01*
X138258000Y-111227885D01*
X145807000Y-111227885D01*
X145811475Y-111243124D01*
X145812865Y-111244329D01*
X145820548Y-111246000D01*
X147792885Y-111246000D01*
X147808124Y-111241525D01*
X147809329Y-111240135D01*
X147811000Y-111232452D01*
X147811000Y-111227885D01*
X148319000Y-111227885D01*
X148323475Y-111243124D01*
X148324865Y-111244329D01*
X148332548Y-111246000D01*
X150304885Y-111246000D01*
X150320124Y-111241525D01*
X150321329Y-111240135D01*
X150323000Y-111232452D01*
X150323000Y-111227885D01*
X155967000Y-111227885D01*
X155971475Y-111243124D01*
X155972865Y-111244329D01*
X155980548Y-111246000D01*
X157952885Y-111246000D01*
X157968124Y-111241525D01*
X157969329Y-111240135D01*
X157971000Y-111232452D01*
X157971000Y-111227885D01*
X158479000Y-111227885D01*
X158483475Y-111243124D01*
X158484865Y-111244329D01*
X158492548Y-111246000D01*
X160464885Y-111246000D01*
X160480124Y-111241525D01*
X160481329Y-111240135D01*
X160483000Y-111232452D01*
X160483000Y-109676007D01*
X160482861Y-109671818D01*
X160468451Y-109454868D01*
X160467347Y-109446597D01*
X160409710Y-109160749D01*
X160407522Y-109152697D01*
X160312591Y-108876995D01*
X160309350Y-108869284D01*
X160178787Y-108608556D01*
X160174566Y-108601362D01*
X160010659Y-108360180D01*
X160005526Y-108353610D01*
X159811161Y-108136225D01*
X159805205Y-108130392D01*
X159583797Y-107940622D01*
X159577116Y-107935624D01*
X159332563Y-107776809D01*
X159325273Y-107772735D01*
X159061868Y-107647662D01*
X159054100Y-107644586D01*
X158776469Y-107555448D01*
X158768363Y-107553427D01*
X158496830Y-107504571D01*
X158483571Y-107506003D01*
X158479000Y-107520613D01*
X158479000Y-111227885D01*
X157971000Y-111227885D01*
X157971000Y-107523633D01*
X157966705Y-107509004D01*
X157954728Y-107506942D01*
X157882947Y-107513222D01*
X157874708Y-107514497D01*
X157590120Y-107578110D01*
X157582123Y-107580464D01*
X157308466Y-107681150D01*
X157300828Y-107684550D01*
X157042885Y-107820549D01*
X157035787Y-107824916D01*
X156798095Y-107993835D01*
X156791628Y-107999108D01*
X156578361Y-108197983D01*
X156572649Y-108204067D01*
X156387563Y-108429393D01*
X156382708Y-108436174D01*
X156229042Y-108684013D01*
X156225129Y-108691373D01*
X156105596Y-108957346D01*
X156102686Y-108965169D01*
X156019376Y-109244625D01*
X156017531Y-109252746D01*
X155971809Y-109541429D01*
X155971101Y-109548403D01*
X155967064Y-109637286D01*
X155967000Y-109640119D01*
X155967000Y-111227885D01*
X150323000Y-111227885D01*
X150323000Y-109676007D01*
X150322861Y-109671818D01*
X150308451Y-109454868D01*
X150307347Y-109446597D01*
X150249710Y-109160749D01*
X150247522Y-109152697D01*
X150152591Y-108876995D01*
X150149350Y-108869284D01*
X150018787Y-108608556D01*
X150014566Y-108601362D01*
X149850659Y-108360180D01*
X149845526Y-108353610D01*
X149651161Y-108136225D01*
X149645205Y-108130392D01*
X149423797Y-107940622D01*
X149417116Y-107935624D01*
X149172563Y-107776809D01*
X149165273Y-107772735D01*
X148901868Y-107647662D01*
X148894100Y-107644586D01*
X148616469Y-107555448D01*
X148608363Y-107553427D01*
X148336830Y-107504571D01*
X148323571Y-107506003D01*
X148319000Y-107520613D01*
X148319000Y-111227885D01*
X147811000Y-111227885D01*
X147811000Y-107523633D01*
X147806705Y-107509004D01*
X147794728Y-107506942D01*
X147722947Y-107513222D01*
X147714708Y-107514497D01*
X147430120Y-107578110D01*
X147422123Y-107580464D01*
X147148466Y-107681150D01*
X147140828Y-107684550D01*
X146882885Y-107820549D01*
X146875787Y-107824916D01*
X146638095Y-107993835D01*
X146631628Y-107999108D01*
X146418361Y-108197983D01*
X146412649Y-108204067D01*
X146227563Y-108429393D01*
X146222708Y-108436174D01*
X146069042Y-108684013D01*
X146065129Y-108691373D01*
X145945596Y-108957346D01*
X145942686Y-108965169D01*
X145859376Y-109244625D01*
X145857531Y-109252746D01*
X145811809Y-109541429D01*
X145811101Y-109548403D01*
X145807064Y-109637286D01*
X145807000Y-109640119D01*
X145807000Y-111227885D01*
X138258000Y-111227885D01*
X138258000Y-109676007D01*
X138257861Y-109671818D01*
X138243451Y-109454868D01*
X138242347Y-109446597D01*
X138184710Y-109160749D01*
X138182522Y-109152697D01*
X138087591Y-108876995D01*
X138084350Y-108869284D01*
X137953787Y-108608556D01*
X137949566Y-108601362D01*
X137785659Y-108360180D01*
X137780526Y-108353610D01*
X137586161Y-108136225D01*
X137580205Y-108130392D01*
X137358797Y-107940622D01*
X137352116Y-107935624D01*
X137107563Y-107776809D01*
X137100273Y-107772735D01*
X136836868Y-107647662D01*
X136829100Y-107644586D01*
X136551469Y-107555448D01*
X136543363Y-107553427D01*
X136271830Y-107504571D01*
X136258571Y-107506003D01*
X136254000Y-107520613D01*
X136254000Y-111227885D01*
X135746000Y-111227885D01*
X135746000Y-107523633D01*
X135741705Y-107509004D01*
X135729728Y-107506942D01*
X135657947Y-107513222D01*
X135649708Y-107514497D01*
X135365120Y-107578110D01*
X135357123Y-107580464D01*
X135083466Y-107681150D01*
X135075828Y-107684550D01*
X134817885Y-107820549D01*
X134810787Y-107824916D01*
X134573095Y-107993835D01*
X134566628Y-107999108D01*
X134353361Y-108197983D01*
X134347649Y-108204067D01*
X134162563Y-108429393D01*
X134157708Y-108436174D01*
X134004042Y-108684013D01*
X134000129Y-108691373D01*
X133880596Y-108957346D01*
X133877686Y-108965169D01*
X133794376Y-109244625D01*
X133792531Y-109252746D01*
X133746809Y-109541429D01*
X133746101Y-109548403D01*
X133742064Y-109637286D01*
X133742000Y-109640119D01*
X133742000Y-111227885D01*
X128098000Y-111227885D01*
X128098000Y-109676007D01*
X128097861Y-109671818D01*
X128083451Y-109454868D01*
X128082347Y-109446597D01*
X128024710Y-109160749D01*
X128022522Y-109152697D01*
X127927591Y-108876995D01*
X127924350Y-108869284D01*
X127793787Y-108608556D01*
X127789566Y-108601362D01*
X127625659Y-108360180D01*
X127620526Y-108353610D01*
X127426161Y-108136225D01*
X127420205Y-108130392D01*
X127198797Y-107940622D01*
X127192116Y-107935624D01*
X126947563Y-107776809D01*
X126940273Y-107772735D01*
X126676868Y-107647662D01*
X126669100Y-107644586D01*
X126391469Y-107555448D01*
X126383363Y-107553427D01*
X126111830Y-107504571D01*
X126098571Y-107506003D01*
X126094000Y-107520613D01*
X126094000Y-111227885D01*
X125586000Y-111227885D01*
X125586000Y-107523633D01*
X125581705Y-107509004D01*
X125569728Y-107506942D01*
X125497947Y-107513222D01*
X125489708Y-107514497D01*
X125205120Y-107578110D01*
X125197123Y-107580464D01*
X124923466Y-107681150D01*
X124915828Y-107684550D01*
X124657885Y-107820549D01*
X124650787Y-107824916D01*
X124413095Y-107993835D01*
X124406628Y-107999108D01*
X124193361Y-108197983D01*
X124187649Y-108204067D01*
X124002563Y-108429393D01*
X123997708Y-108436174D01*
X123844042Y-108684013D01*
X123840129Y-108691373D01*
X123720596Y-108957346D01*
X123717686Y-108965169D01*
X123634376Y-109244625D01*
X123632531Y-109252746D01*
X123586809Y-109541429D01*
X123586101Y-109548403D01*
X123582064Y-109637286D01*
X123582000Y-109640119D01*
X123582000Y-111227885D01*
X116033000Y-111227885D01*
X116033000Y-109676007D01*
X116032861Y-109671818D01*
X116018451Y-109454868D01*
X116017347Y-109446597D01*
X115959710Y-109160749D01*
X115957522Y-109152697D01*
X115862591Y-108876995D01*
X115859350Y-108869284D01*
X115728787Y-108608556D01*
X115724566Y-108601362D01*
X115560659Y-108360180D01*
X115555526Y-108353610D01*
X115361161Y-108136225D01*
X115355205Y-108130392D01*
X115133797Y-107940622D01*
X115127116Y-107935624D01*
X114882563Y-107776809D01*
X114875273Y-107772735D01*
X114611868Y-107647662D01*
X114604100Y-107644586D01*
X114326469Y-107555448D01*
X114318363Y-107553427D01*
X114046830Y-107504571D01*
X114033571Y-107506003D01*
X114029000Y-107520613D01*
X114029000Y-111227885D01*
X113521000Y-111227885D01*
X113521000Y-107523633D01*
X113516705Y-107509004D01*
X113504728Y-107506942D01*
X113432947Y-107513222D01*
X113424708Y-107514497D01*
X113140120Y-107578110D01*
X113132123Y-107580464D01*
X112858466Y-107681150D01*
X112850828Y-107684550D01*
X112592885Y-107820549D01*
X112585787Y-107824916D01*
X112348095Y-107993835D01*
X112341628Y-107999108D01*
X112128361Y-108197983D01*
X112122649Y-108204067D01*
X111937563Y-108429393D01*
X111932708Y-108436174D01*
X111779042Y-108684013D01*
X111775129Y-108691373D01*
X111655596Y-108957346D01*
X111652686Y-108965169D01*
X111569376Y-109244625D01*
X111567531Y-109252746D01*
X111521809Y-109541429D01*
X111521101Y-109548403D01*
X111517064Y-109637286D01*
X111517000Y-109640119D01*
X111517000Y-111227885D01*
X105873000Y-111227885D01*
X105873000Y-109676007D01*
X105872861Y-109671818D01*
X105858451Y-109454868D01*
X105857347Y-109446597D01*
X105799710Y-109160749D01*
X105797522Y-109152697D01*
X105702591Y-108876995D01*
X105699350Y-108869284D01*
X105568787Y-108608556D01*
X105564566Y-108601362D01*
X105400659Y-108360180D01*
X105395526Y-108353610D01*
X105201161Y-108136225D01*
X105195205Y-108130392D01*
X104973797Y-107940622D01*
X104967116Y-107935624D01*
X104722563Y-107776809D01*
X104715273Y-107772735D01*
X104451868Y-107647662D01*
X104444100Y-107644586D01*
X104166469Y-107555448D01*
X104158363Y-107553427D01*
X103886830Y-107504571D01*
X103873571Y-107506003D01*
X103869000Y-107520613D01*
X103869000Y-111227885D01*
X103361000Y-111227885D01*
X103361000Y-107523633D01*
X103356705Y-107509004D01*
X103344728Y-107506942D01*
X103272947Y-107513222D01*
X103264708Y-107514497D01*
X102980120Y-107578110D01*
X102972123Y-107580464D01*
X102698466Y-107681150D01*
X102690828Y-107684550D01*
X102432885Y-107820549D01*
X102425787Y-107824916D01*
X102188095Y-107993835D01*
X102181628Y-107999108D01*
X101968361Y-108197983D01*
X101962649Y-108204067D01*
X101777563Y-108429393D01*
X101772708Y-108436174D01*
X101619042Y-108684013D01*
X101615129Y-108691373D01*
X101495596Y-108957346D01*
X101492686Y-108965169D01*
X101409376Y-109244625D01*
X101407531Y-109252746D01*
X101361809Y-109541429D01*
X101361101Y-109548403D01*
X101357064Y-109637286D01*
X101357000Y-109640119D01*
X101357000Y-111227885D01*
X93808000Y-111227885D01*
X93808000Y-109676007D01*
X93807861Y-109671818D01*
X93793451Y-109454868D01*
X93792347Y-109446597D01*
X93734710Y-109160749D01*
X93732522Y-109152697D01*
X93637591Y-108876995D01*
X93634350Y-108869284D01*
X93503787Y-108608556D01*
X93499566Y-108601362D01*
X93335659Y-108360180D01*
X93330526Y-108353610D01*
X93136161Y-108136225D01*
X93130205Y-108130392D01*
X92908797Y-107940622D01*
X92902116Y-107935624D01*
X92657563Y-107776809D01*
X92650273Y-107772735D01*
X92386868Y-107647662D01*
X92379100Y-107644586D01*
X92101469Y-107555448D01*
X92093363Y-107553427D01*
X91821830Y-107504571D01*
X91808571Y-107506003D01*
X91804000Y-107520613D01*
X91804000Y-111227885D01*
X91296000Y-111227885D01*
X91296000Y-107523633D01*
X91291705Y-107509004D01*
X91279728Y-107506942D01*
X91207947Y-107513222D01*
X91199708Y-107514497D01*
X90915120Y-107578110D01*
X90907123Y-107580464D01*
X90633466Y-107681150D01*
X90625828Y-107684550D01*
X90367885Y-107820549D01*
X90360787Y-107824916D01*
X90123095Y-107993835D01*
X90116628Y-107999108D01*
X89903361Y-108197983D01*
X89897649Y-108204067D01*
X89712563Y-108429393D01*
X89707708Y-108436174D01*
X89554042Y-108684013D01*
X89550129Y-108691373D01*
X89430596Y-108957346D01*
X89427686Y-108965169D01*
X89344376Y-109244625D01*
X89342531Y-109252746D01*
X89296809Y-109541429D01*
X89296101Y-109548403D01*
X89292064Y-109637286D01*
X89292000Y-109640119D01*
X89292000Y-111227885D01*
X83648000Y-111227885D01*
X83648000Y-109676007D01*
X83647861Y-109671818D01*
X83633451Y-109454868D01*
X83632347Y-109446597D01*
X83574710Y-109160749D01*
X83572522Y-109152697D01*
X83477591Y-108876995D01*
X83474350Y-108869284D01*
X83343787Y-108608556D01*
X83339566Y-108601362D01*
X83175659Y-108360180D01*
X83170526Y-108353610D01*
X82976161Y-108136225D01*
X82970205Y-108130392D01*
X82748797Y-107940622D01*
X82742116Y-107935624D01*
X82497563Y-107776809D01*
X82490273Y-107772735D01*
X82226868Y-107647662D01*
X82219100Y-107644586D01*
X81941469Y-107555448D01*
X81933363Y-107553427D01*
X81661830Y-107504571D01*
X81648571Y-107506003D01*
X81644000Y-107520613D01*
X81644000Y-111227885D01*
X81136000Y-111227885D01*
X81136000Y-107523633D01*
X81131705Y-107509004D01*
X81119728Y-107506942D01*
X81047947Y-107513222D01*
X81039708Y-107514497D01*
X80755120Y-107578110D01*
X80747123Y-107580464D01*
X80473466Y-107681150D01*
X80465828Y-107684550D01*
X80207885Y-107820549D01*
X80200787Y-107824916D01*
X79963095Y-107993835D01*
X79956628Y-107999108D01*
X79743361Y-108197983D01*
X79737649Y-108204067D01*
X79552563Y-108429393D01*
X79547708Y-108436174D01*
X79394042Y-108684013D01*
X79390129Y-108691373D01*
X79270596Y-108957346D01*
X79267686Y-108965169D01*
X79184376Y-109244625D01*
X79182531Y-109252746D01*
X79136809Y-109541429D01*
X79136101Y-109548403D01*
X79132064Y-109637286D01*
X79132000Y-109640119D01*
X79132000Y-111227885D01*
X74478000Y-111227885D01*
X74478000Y-106927127D01*
X85161500Y-106927127D01*
X85176457Y-107098087D01*
X85235716Y-107319243D01*
X85238039Y-107324224D01*
X85238039Y-107324225D01*
X85330151Y-107521762D01*
X85330154Y-107521767D01*
X85332477Y-107526749D01*
X85463802Y-107714300D01*
X85625700Y-107876198D01*
X85630208Y-107879355D01*
X85630211Y-107879357D01*
X85708389Y-107934098D01*
X85813251Y-108007523D01*
X85818233Y-108009846D01*
X85818238Y-108009849D01*
X86014765Y-108101490D01*
X86020757Y-108104284D01*
X86026065Y-108105706D01*
X86026067Y-108105707D01*
X86236598Y-108162119D01*
X86236600Y-108162119D01*
X86241913Y-108163543D01*
X86470000Y-108183498D01*
X86698087Y-108163543D01*
X86703400Y-108162119D01*
X86703402Y-108162119D01*
X86913933Y-108105707D01*
X86913935Y-108105706D01*
X86919243Y-108104284D01*
X86925235Y-108101490D01*
X87121762Y-108009849D01*
X87121767Y-108009846D01*
X87126749Y-108007523D01*
X87231611Y-107934098D01*
X87309789Y-107879357D01*
X87309792Y-107879355D01*
X87314300Y-107876198D01*
X87476198Y-107714300D01*
X87607523Y-107526749D01*
X87609846Y-107521767D01*
X87609849Y-107521762D01*
X87626081Y-107486951D01*
X87672998Y-107433666D01*
X87741275Y-107414205D01*
X87809235Y-107434747D01*
X87854471Y-107486951D01*
X87870586Y-107521511D01*
X87876069Y-107531007D01*
X88001028Y-107709467D01*
X88008084Y-107717875D01*
X88162125Y-107871916D01*
X88170533Y-107878972D01*
X88348993Y-108003931D01*
X88358489Y-108009414D01*
X88555947Y-108101490D01*
X88566239Y-108105236D01*
X88738503Y-108151394D01*
X88752599Y-108151058D01*
X88756000Y-108143116D01*
X88756000Y-108137967D01*
X89264000Y-108137967D01*
X89267973Y-108151498D01*
X89276522Y-108152727D01*
X89453761Y-108105236D01*
X89464053Y-108101490D01*
X89661511Y-108009414D01*
X89671007Y-108003931D01*
X89849467Y-107878972D01*
X89857875Y-107871916D01*
X90011916Y-107717875D01*
X90018972Y-107709467D01*
X90143931Y-107531007D01*
X90149414Y-107521511D01*
X90241490Y-107324053D01*
X90245236Y-107313761D01*
X90301625Y-107103312D01*
X90303528Y-107092519D01*
X90317762Y-106929830D01*
X90318000Y-106924365D01*
X90318000Y-106692115D01*
X90313525Y-106676876D01*
X90312135Y-106675671D01*
X90304452Y-106674000D01*
X89282115Y-106674000D01*
X89266876Y-106678475D01*
X89265671Y-106679865D01*
X89264000Y-106687548D01*
X89264000Y-108137967D01*
X88756000Y-108137967D01*
X88756000Y-106292000D01*
X88776002Y-106223879D01*
X88829658Y-106177386D01*
X88882000Y-106166000D01*
X90299885Y-106166000D01*
X90315124Y-106161525D01*
X90316329Y-106160135D01*
X90318000Y-106152452D01*
X90318000Y-105915635D01*
X90317762Y-105910170D01*
X90303528Y-105747481D01*
X90301625Y-105736688D01*
X90245236Y-105526239D01*
X90241490Y-105515947D01*
X90149414Y-105318489D01*
X90143931Y-105308993D01*
X90018972Y-105130533D01*
X90011916Y-105122125D01*
X89857875Y-104968084D01*
X89849467Y-104961028D01*
X89671007Y-104836069D01*
X89661511Y-104830586D01*
X89464053Y-104738510D01*
X89453761Y-104734764D01*
X89237999Y-104676951D01*
X89238376Y-104675545D01*
X89180897Y-104647057D01*
X89144429Y-104586143D01*
X89146683Y-104515182D01*
X89186943Y-104456704D01*
X89252428Y-104429276D01*
X89266391Y-104428500D01*
X94408157Y-104428500D01*
X94421764Y-104429237D01*
X94453262Y-104432659D01*
X94453267Y-104432659D01*
X94459388Y-104433324D01*
X94485638Y-104431027D01*
X94509388Y-104428950D01*
X94514214Y-104428621D01*
X94516686Y-104428500D01*
X94519769Y-104428500D01*
X94531738Y-104427326D01*
X94562506Y-104424310D01*
X94563819Y-104424188D01*
X94608084Y-104420315D01*
X94656413Y-104416087D01*
X94661532Y-104414600D01*
X94666833Y-104414080D01*
X94755834Y-104387209D01*
X94756967Y-104386874D01*
X94840414Y-104362630D01*
X94840418Y-104362628D01*
X94846336Y-104360909D01*
X94851068Y-104358456D01*
X94856169Y-104356916D01*
X94863173Y-104353192D01*
X94938260Y-104313269D01*
X94939426Y-104312657D01*
X95016453Y-104272729D01*
X95021926Y-104269892D01*
X95026089Y-104266569D01*
X95030796Y-104264066D01*
X95102918Y-104205245D01*
X95103774Y-104204554D01*
X95142973Y-104173262D01*
X95145477Y-104170758D01*
X95146195Y-104170116D01*
X95150528Y-104166415D01*
X95184062Y-104139065D01*
X95213288Y-104103737D01*
X95221277Y-104094958D01*
X97139379Y-102176855D01*
X97149522Y-102167753D01*
X97174218Y-102147897D01*
X97179025Y-102144032D01*
X97211292Y-102105578D01*
X97214472Y-102101931D01*
X97216115Y-102100119D01*
X97218309Y-102097925D01*
X97245642Y-102064651D01*
X97246348Y-102063800D01*
X97254669Y-102053884D01*
X97306154Y-101992526D01*
X97308722Y-101987856D01*
X97312103Y-101983739D01*
X97355977Y-101901914D01*
X97356604Y-101900758D01*
X97359557Y-101895386D01*
X97409900Y-101845326D01*
X97479317Y-101830430D01*
X97545767Y-101855428D01*
X97581838Y-101898097D01*
X97620108Y-101971926D01*
X97623431Y-101976089D01*
X97625934Y-101980796D01*
X97629830Y-101985573D01*
X97631692Y-101987856D01*
X97684755Y-102052918D01*
X97685446Y-102053774D01*
X97716738Y-102092973D01*
X97719242Y-102095477D01*
X97719884Y-102096195D01*
X97723585Y-102100528D01*
X97750935Y-102134062D01*
X97755682Y-102137989D01*
X97755684Y-102137991D01*
X97786262Y-102163287D01*
X97795042Y-102171277D01*
X99713145Y-104089379D01*
X99722247Y-104099522D01*
X99745968Y-104129025D01*
X99750696Y-104132992D01*
X99784421Y-104161291D01*
X99788069Y-104164472D01*
X99789881Y-104166115D01*
X99792075Y-104168309D01*
X99825349Y-104195642D01*
X99826147Y-104196304D01*
X99897474Y-104256154D01*
X99902144Y-104258722D01*
X99906261Y-104262103D01*
X99926079Y-104272729D01*
X99988086Y-104305977D01*
X99989245Y-104306606D01*
X100065381Y-104348462D01*
X100065389Y-104348465D01*
X100070787Y-104351433D01*
X100075869Y-104353045D01*
X100080563Y-104355562D01*
X100169531Y-104382762D01*
X100170559Y-104383082D01*
X100259306Y-104411235D01*
X100264602Y-104411829D01*
X100269698Y-104413387D01*
X100362257Y-104422790D01*
X100363393Y-104422911D01*
X100397008Y-104426681D01*
X100409730Y-104428108D01*
X100409734Y-104428108D01*
X100413227Y-104428500D01*
X100416754Y-104428500D01*
X100417739Y-104428555D01*
X100423419Y-104429002D01*
X100452825Y-104431989D01*
X100460337Y-104432752D01*
X100460339Y-104432752D01*
X100466462Y-104433374D01*
X100512108Y-104429059D01*
X100523967Y-104428500D01*
X105225075Y-104428500D01*
X105293196Y-104448502D01*
X105314170Y-104465405D01*
X107349595Y-106500829D01*
X107383620Y-106563141D01*
X107386500Y-106589924D01*
X107386500Y-106927127D01*
X107401457Y-107098087D01*
X107460716Y-107319243D01*
X107463039Y-107324224D01*
X107463039Y-107324225D01*
X107555151Y-107521762D01*
X107555154Y-107521767D01*
X107557477Y-107526749D01*
X107688802Y-107714300D01*
X107850700Y-107876198D01*
X107855208Y-107879355D01*
X107855211Y-107879357D01*
X107933389Y-107934098D01*
X108038251Y-108007523D01*
X108043233Y-108009846D01*
X108043238Y-108009849D01*
X108239765Y-108101490D01*
X108245757Y-108104284D01*
X108251065Y-108105706D01*
X108251067Y-108105707D01*
X108461598Y-108162119D01*
X108461600Y-108162119D01*
X108466913Y-108163543D01*
X108695000Y-108183498D01*
X108923087Y-108163543D01*
X108928400Y-108162119D01*
X108928402Y-108162119D01*
X109138933Y-108105707D01*
X109138935Y-108105706D01*
X109144243Y-108104284D01*
X109150235Y-108101490D01*
X109346762Y-108009849D01*
X109346767Y-108009846D01*
X109351749Y-108007523D01*
X109456611Y-107934098D01*
X109534789Y-107879357D01*
X109534792Y-107879355D01*
X109539300Y-107876198D01*
X109701198Y-107714300D01*
X109832523Y-107526749D01*
X109834846Y-107521767D01*
X109834849Y-107521762D01*
X109851081Y-107486951D01*
X109897998Y-107433666D01*
X109966275Y-107414205D01*
X110034235Y-107434747D01*
X110079471Y-107486951D01*
X110095586Y-107521511D01*
X110101069Y-107531007D01*
X110226028Y-107709467D01*
X110233084Y-107717875D01*
X110387125Y-107871916D01*
X110395533Y-107878972D01*
X110573993Y-108003931D01*
X110583489Y-108009414D01*
X110780947Y-108101490D01*
X110791239Y-108105236D01*
X110963503Y-108151394D01*
X110977599Y-108151058D01*
X110981000Y-108143116D01*
X110981000Y-108137967D01*
X111489000Y-108137967D01*
X111492973Y-108151498D01*
X111501522Y-108152727D01*
X111678761Y-108105236D01*
X111689053Y-108101490D01*
X111886511Y-108009414D01*
X111896007Y-108003931D01*
X112074467Y-107878972D01*
X112082875Y-107871916D01*
X112236916Y-107717875D01*
X112243972Y-107709467D01*
X112368931Y-107531007D01*
X112374414Y-107521511D01*
X112466490Y-107324053D01*
X112470236Y-107313761D01*
X112526625Y-107103312D01*
X112528528Y-107092519D01*
X112542762Y-106929830D01*
X112543000Y-106924365D01*
X112543000Y-106692115D01*
X112538525Y-106676876D01*
X112537135Y-106675671D01*
X112529452Y-106674000D01*
X111507115Y-106674000D01*
X111491876Y-106678475D01*
X111490671Y-106679865D01*
X111489000Y-106687548D01*
X111489000Y-108137967D01*
X110981000Y-108137967D01*
X110981000Y-106147885D01*
X111489000Y-106147885D01*
X111493475Y-106163124D01*
X111494865Y-106164329D01*
X111502548Y-106166000D01*
X112524885Y-106166000D01*
X112540124Y-106161525D01*
X112541329Y-106160135D01*
X112543000Y-106152452D01*
X112543000Y-105915635D01*
X112542762Y-105910170D01*
X112528528Y-105747481D01*
X112526625Y-105736688D01*
X112470236Y-105526239D01*
X112466490Y-105515947D01*
X112374414Y-105318489D01*
X112368931Y-105308993D01*
X112243972Y-105130533D01*
X112236916Y-105122125D01*
X112082875Y-104968084D01*
X112074467Y-104961028D01*
X111896007Y-104836069D01*
X111886511Y-104830586D01*
X111689053Y-104738510D01*
X111678761Y-104734764D01*
X111506497Y-104688606D01*
X111492401Y-104688942D01*
X111489000Y-104696884D01*
X111489000Y-106147885D01*
X110981000Y-106147885D01*
X110981000Y-104702033D01*
X110977027Y-104688502D01*
X110968478Y-104687273D01*
X110791239Y-104734764D01*
X110780947Y-104738510D01*
X110583489Y-104830586D01*
X110573993Y-104836069D01*
X110395533Y-104961028D01*
X110387125Y-104968084D01*
X110233084Y-105122125D01*
X110226028Y-105130533D01*
X110101069Y-105308993D01*
X110095586Y-105318489D01*
X110079471Y-105353049D01*
X110032554Y-105406334D01*
X109964277Y-105425795D01*
X109896317Y-105405253D01*
X109851081Y-105353049D01*
X109834849Y-105318238D01*
X109834846Y-105318233D01*
X109832523Y-105313251D01*
X109701198Y-105125700D01*
X109539300Y-104963802D01*
X109534792Y-104960645D01*
X109534789Y-104960643D01*
X109413669Y-104875834D01*
X109351749Y-104832477D01*
X109346767Y-104830154D01*
X109346762Y-104830151D01*
X109149225Y-104738039D01*
X109149224Y-104738039D01*
X109144243Y-104735716D01*
X109138935Y-104734294D01*
X109138933Y-104734293D01*
X108928402Y-104677881D01*
X108928400Y-104677881D01*
X108923087Y-104676457D01*
X108695000Y-104656502D01*
X108466913Y-104676457D01*
X108461601Y-104677880D01*
X108456181Y-104678836D01*
X108455711Y-104676173D01*
X108396065Y-104674867D01*
X108345106Y-104643872D01*
X106451855Y-102750621D01*
X106442753Y-102740478D01*
X106422897Y-102715782D01*
X106419032Y-102710975D01*
X106380578Y-102678708D01*
X106376931Y-102675528D01*
X106375119Y-102673885D01*
X106372925Y-102671691D01*
X106339651Y-102644358D01*
X106338853Y-102643696D01*
X106267526Y-102583846D01*
X106262856Y-102581278D01*
X106258739Y-102577897D01*
X106176914Y-102534023D01*
X106175755Y-102533394D01*
X106099619Y-102491538D01*
X106099611Y-102491535D01*
X106094213Y-102488567D01*
X106089131Y-102486955D01*
X106084437Y-102484438D01*
X105995469Y-102457238D01*
X105994441Y-102456918D01*
X105905694Y-102428765D01*
X105900398Y-102428171D01*
X105895302Y-102426613D01*
X105802743Y-102417210D01*
X105801607Y-102417089D01*
X105767992Y-102413319D01*
X105755270Y-102411892D01*
X105755266Y-102411892D01*
X105751773Y-102411500D01*
X105748246Y-102411500D01*
X105747261Y-102411445D01*
X105741581Y-102410998D01*
X105712175Y-102408011D01*
X105704663Y-102407248D01*
X105704661Y-102407248D01*
X105698538Y-102406626D01*
X105656259Y-102410623D01*
X105652891Y-102410941D01*
X105641033Y-102411500D01*
X100939925Y-102411500D01*
X100871804Y-102391498D01*
X100850830Y-102374595D01*
X99515405Y-101039171D01*
X99481380Y-100976859D01*
X99478500Y-100950076D01*
X99478500Y-95554500D01*
X99498502Y-95486379D01*
X99552158Y-95439886D01*
X99604500Y-95428500D01*
X99892393Y-95428500D01*
X99960514Y-95448502D01*
X99972877Y-95457555D01*
X100068126Y-95536632D01*
X100261000Y-95649338D01*
X100469692Y-95729030D01*
X100474760Y-95730061D01*
X100474763Y-95730062D01*
X100582017Y-95751883D01*
X100688597Y-95773567D01*
X100693772Y-95773757D01*
X100693774Y-95773757D01*
X100906673Y-95781564D01*
X100906677Y-95781564D01*
X100911837Y-95781753D01*
X100916957Y-95781097D01*
X100916959Y-95781097D01*
X101128288Y-95754025D01*
X101128289Y-95754025D01*
X101133416Y-95753368D01*
X101138366Y-95751883D01*
X101342429Y-95690661D01*
X101342434Y-95690659D01*
X101347384Y-95689174D01*
X101547994Y-95590896D01*
X101729860Y-95461173D01*
X101732886Y-95458157D01*
X101797588Y-95429570D01*
X101813976Y-95428500D01*
X102432393Y-95428500D01*
X102500514Y-95448502D01*
X102512877Y-95457555D01*
X102608126Y-95536632D01*
X102801000Y-95649338D01*
X103009692Y-95729030D01*
X103014760Y-95730061D01*
X103014763Y-95730062D01*
X103122017Y-95751883D01*
X103228597Y-95773567D01*
X103233772Y-95773757D01*
X103233774Y-95773757D01*
X103446673Y-95781564D01*
X103446677Y-95781564D01*
X103451837Y-95781753D01*
X103456957Y-95781097D01*
X103456959Y-95781097D01*
X103668288Y-95754025D01*
X103668289Y-95754025D01*
X103673416Y-95753368D01*
X103678366Y-95751883D01*
X103882429Y-95690661D01*
X103882434Y-95690659D01*
X103887384Y-95689174D01*
X104087994Y-95590896D01*
X104269860Y-95461173D01*
X104272886Y-95458157D01*
X104337588Y-95429570D01*
X104353976Y-95428500D01*
X104972393Y-95428500D01*
X105040514Y-95448502D01*
X105052877Y-95457555D01*
X105148126Y-95536632D01*
X105341000Y-95649338D01*
X105549692Y-95729030D01*
X105554760Y-95730061D01*
X105554763Y-95730062D01*
X105662017Y-95751883D01*
X105768597Y-95773567D01*
X105773772Y-95773757D01*
X105773774Y-95773757D01*
X105986673Y-95781564D01*
X105986677Y-95781564D01*
X105991837Y-95781753D01*
X105996957Y-95781097D01*
X105996959Y-95781097D01*
X106208288Y-95754025D01*
X106208289Y-95754025D01*
X106213416Y-95753368D01*
X106218366Y-95751883D01*
X106422429Y-95690661D01*
X106422434Y-95690659D01*
X106427384Y-95689174D01*
X106627994Y-95590896D01*
X106809860Y-95461173D01*
X106812886Y-95458157D01*
X106877588Y-95429570D01*
X106893976Y-95428500D01*
X107048991Y-95428500D01*
X107117112Y-95448502D01*
X107163605Y-95502158D01*
X107165903Y-95507694D01*
X107166232Y-95508296D01*
X107169385Y-95516705D01*
X107256739Y-95633261D01*
X107373295Y-95720615D01*
X107509684Y-95771745D01*
X107571866Y-95778500D01*
X109368134Y-95778500D01*
X109430316Y-95771745D01*
X109566705Y-95720615D01*
X109683261Y-95633261D01*
X109770615Y-95516705D01*
X109821745Y-95380316D01*
X109828500Y-95318134D01*
X109828500Y-94386695D01*
X129287251Y-94386695D01*
X129300110Y-94609715D01*
X129301247Y-94614761D01*
X129301248Y-94614767D01*
X129325304Y-94721508D01*
X129349222Y-94827639D01*
X129433266Y-95034616D01*
X129435965Y-95039020D01*
X129525459Y-95185061D01*
X129549987Y-95225088D01*
X129696250Y-95393938D01*
X129868126Y-95536632D01*
X130061000Y-95649338D01*
X130269692Y-95729030D01*
X130274760Y-95730061D01*
X130274763Y-95730062D01*
X130382017Y-95751883D01*
X130488597Y-95773567D01*
X130493772Y-95773757D01*
X130493774Y-95773757D01*
X130706673Y-95781564D01*
X130706677Y-95781564D01*
X130711837Y-95781753D01*
X130716957Y-95781097D01*
X130716959Y-95781097D01*
X130928288Y-95754025D01*
X130928289Y-95754025D01*
X130933416Y-95753368D01*
X130938366Y-95751883D01*
X131142429Y-95690661D01*
X131142434Y-95690659D01*
X131147384Y-95689174D01*
X131347994Y-95590896D01*
X131529860Y-95461173D01*
X131532886Y-95458157D01*
X131597588Y-95429570D01*
X131613976Y-95428500D01*
X132232393Y-95428500D01*
X132300514Y-95448502D01*
X132312877Y-95457555D01*
X132408126Y-95536632D01*
X132601000Y-95649338D01*
X132809692Y-95729030D01*
X132814760Y-95730061D01*
X132814763Y-95730062D01*
X132922017Y-95751883D01*
X133028597Y-95773567D01*
X133033772Y-95773757D01*
X133033774Y-95773757D01*
X133246673Y-95781564D01*
X133246677Y-95781564D01*
X133251837Y-95781753D01*
X133256957Y-95781097D01*
X133256959Y-95781097D01*
X133468288Y-95754025D01*
X133468289Y-95754025D01*
X133473416Y-95753368D01*
X133478366Y-95751883D01*
X133682429Y-95690661D01*
X133682434Y-95690659D01*
X133687384Y-95689174D01*
X133887994Y-95590896D01*
X134069860Y-95461173D01*
X134072886Y-95458157D01*
X134137588Y-95429570D01*
X134153976Y-95428500D01*
X134772393Y-95428500D01*
X134840514Y-95448502D01*
X134852877Y-95457555D01*
X134948126Y-95536632D01*
X135141000Y-95649338D01*
X135349692Y-95729030D01*
X135354760Y-95730061D01*
X135354763Y-95730062D01*
X135462017Y-95751883D01*
X135568597Y-95773567D01*
X135573772Y-95773757D01*
X135573774Y-95773757D01*
X135786673Y-95781564D01*
X135786677Y-95781564D01*
X135791837Y-95781753D01*
X135796957Y-95781097D01*
X135796959Y-95781097D01*
X136008288Y-95754025D01*
X136008289Y-95754025D01*
X136013416Y-95753368D01*
X136018366Y-95751883D01*
X136222429Y-95690661D01*
X136222434Y-95690659D01*
X136227384Y-95689174D01*
X136427994Y-95590896D01*
X136609860Y-95461173D01*
X136612886Y-95458157D01*
X136677588Y-95429570D01*
X136693976Y-95428500D01*
X136848991Y-95428500D01*
X136917112Y-95448502D01*
X136963605Y-95502158D01*
X136965903Y-95507694D01*
X136966232Y-95508296D01*
X136969385Y-95516705D01*
X137056739Y-95633261D01*
X137173295Y-95720615D01*
X137181704Y-95723767D01*
X137189575Y-95728077D01*
X137188664Y-95729741D01*
X137236490Y-95765663D01*
X137261193Y-95832224D01*
X137261500Y-95841009D01*
X137261500Y-97250076D01*
X137241498Y-97318197D01*
X137224595Y-97339171D01*
X130250621Y-104313145D01*
X130240478Y-104322247D01*
X130210975Y-104345968D01*
X130179968Y-104382921D01*
X130178709Y-104384421D01*
X130175528Y-104388069D01*
X130173885Y-104389881D01*
X130171691Y-104392075D01*
X130144358Y-104425349D01*
X130143696Y-104426147D01*
X130083846Y-104497474D01*
X130081278Y-104502144D01*
X130077897Y-104506261D01*
X130060081Y-104539488D01*
X130034023Y-104588086D01*
X130033394Y-104589245D01*
X129991538Y-104665381D01*
X129991535Y-104665389D01*
X129988567Y-104670787D01*
X129986955Y-104675869D01*
X129984438Y-104680563D01*
X129957238Y-104769531D01*
X129956918Y-104770559D01*
X129928765Y-104859306D01*
X129928171Y-104864602D01*
X129926613Y-104869698D01*
X129917336Y-104961028D01*
X129917218Y-104962187D01*
X129917089Y-104963393D01*
X129911500Y-105013227D01*
X129911500Y-105016754D01*
X129911445Y-105017739D01*
X129910998Y-105023419D01*
X129906626Y-105066462D01*
X129907206Y-105072598D01*
X129908050Y-105081533D01*
X129894546Y-105151234D01*
X129885822Y-105165659D01*
X129785634Y-105308742D01*
X129785633Y-105308744D01*
X129782477Y-105313251D01*
X129780154Y-105318233D01*
X129780151Y-105318238D01*
X129739576Y-105405253D01*
X129685716Y-105520757D01*
X129626457Y-105741913D01*
X129611500Y-105912873D01*
X129611500Y-106927127D01*
X129626457Y-107098087D01*
X129685716Y-107319243D01*
X129688039Y-107324224D01*
X129688039Y-107324225D01*
X129780151Y-107521762D01*
X129780154Y-107521767D01*
X129782477Y-107526749D01*
X129913802Y-107714300D01*
X130075700Y-107876198D01*
X130080208Y-107879355D01*
X130080211Y-107879357D01*
X130158389Y-107934098D01*
X130263251Y-108007523D01*
X130268233Y-108009846D01*
X130268238Y-108009849D01*
X130464765Y-108101490D01*
X130470757Y-108104284D01*
X130476065Y-108105706D01*
X130476067Y-108105707D01*
X130686598Y-108162119D01*
X130686600Y-108162119D01*
X130691913Y-108163543D01*
X130920000Y-108183498D01*
X131148087Y-108163543D01*
X131153400Y-108162119D01*
X131153402Y-108162119D01*
X131363933Y-108105707D01*
X131363935Y-108105706D01*
X131369243Y-108104284D01*
X131375235Y-108101490D01*
X131571762Y-108009849D01*
X131571767Y-108009846D01*
X131576749Y-108007523D01*
X131681611Y-107934098D01*
X131759789Y-107879357D01*
X131759792Y-107879355D01*
X131764300Y-107876198D01*
X131926198Y-107714300D01*
X132057523Y-107526749D01*
X132059846Y-107521767D01*
X132059849Y-107521762D01*
X132076081Y-107486951D01*
X132122998Y-107433666D01*
X132191275Y-107414205D01*
X132259235Y-107434747D01*
X132304471Y-107486951D01*
X132320586Y-107521511D01*
X132326069Y-107531007D01*
X132451028Y-107709467D01*
X132458084Y-107717875D01*
X132612125Y-107871916D01*
X132620533Y-107878972D01*
X132798993Y-108003931D01*
X132808489Y-108009414D01*
X133005947Y-108101490D01*
X133016239Y-108105236D01*
X133188503Y-108151394D01*
X133202599Y-108151058D01*
X133206000Y-108143116D01*
X133206000Y-108137967D01*
X133714000Y-108137967D01*
X133717973Y-108151498D01*
X133726522Y-108152727D01*
X133903761Y-108105236D01*
X133914053Y-108101490D01*
X134111511Y-108009414D01*
X134121007Y-108003931D01*
X134299467Y-107878972D01*
X134307875Y-107871916D01*
X134461916Y-107717875D01*
X134468972Y-107709467D01*
X134593931Y-107531007D01*
X134599414Y-107521511D01*
X134691490Y-107324053D01*
X134695236Y-107313761D01*
X134751625Y-107103312D01*
X134753528Y-107092519D01*
X134767762Y-106929830D01*
X134768000Y-106924365D01*
X134768000Y-106692115D01*
X134763525Y-106676876D01*
X134762135Y-106675671D01*
X134754452Y-106674000D01*
X133732115Y-106674000D01*
X133716876Y-106678475D01*
X133715671Y-106679865D01*
X133714000Y-106687548D01*
X133714000Y-108137967D01*
X133206000Y-108137967D01*
X133206000Y-106147885D01*
X133714000Y-106147885D01*
X133718475Y-106163124D01*
X133719865Y-106164329D01*
X133727548Y-106166000D01*
X134749885Y-106166000D01*
X134765124Y-106161525D01*
X134766329Y-106160135D01*
X134768000Y-106152452D01*
X134768000Y-105915635D01*
X134767762Y-105910170D01*
X134753528Y-105747481D01*
X134751625Y-105736688D01*
X134695236Y-105526239D01*
X134691490Y-105515947D01*
X134599414Y-105318489D01*
X134593931Y-105308993D01*
X134468972Y-105130533D01*
X134461916Y-105122125D01*
X134307875Y-104968084D01*
X134299467Y-104961028D01*
X134121007Y-104836069D01*
X134111511Y-104830586D01*
X133914053Y-104738510D01*
X133903761Y-104734764D01*
X133731497Y-104688606D01*
X133717401Y-104688942D01*
X133714000Y-104696884D01*
X133714000Y-106147885D01*
X133206000Y-106147885D01*
X133206000Y-104702033D01*
X133202027Y-104688502D01*
X133193478Y-104687273D01*
X133013151Y-104735592D01*
X132942175Y-104733902D01*
X132883379Y-104694108D01*
X132855431Y-104628844D01*
X132867204Y-104558830D01*
X132891445Y-104524790D01*
X138939379Y-98476855D01*
X138949522Y-98467753D01*
X138974218Y-98447897D01*
X138979025Y-98444032D01*
X139011292Y-98405578D01*
X139014472Y-98401931D01*
X139016115Y-98400119D01*
X139018309Y-98397925D01*
X139045642Y-98364651D01*
X139046348Y-98363800D01*
X139102195Y-98297244D01*
X139106154Y-98292526D01*
X139108722Y-98287856D01*
X139112103Y-98283739D01*
X139156015Y-98201842D01*
X139156624Y-98200720D01*
X139198466Y-98124611D01*
X139198468Y-98124606D01*
X139201433Y-98119213D01*
X139203044Y-98114135D01*
X139205563Y-98109437D01*
X139232753Y-98020502D01*
X139233136Y-98019272D01*
X139259371Y-97936570D01*
X139261235Y-97930694D01*
X139261828Y-97925403D01*
X139263388Y-97920302D01*
X139272795Y-97827689D01*
X139272915Y-97826569D01*
X139278500Y-97776773D01*
X139278500Y-97773244D01*
X139278555Y-97772261D01*
X139279004Y-97766556D01*
X139282752Y-97729664D01*
X139282752Y-97729661D01*
X139283374Y-97723537D01*
X139279059Y-97677888D01*
X139278500Y-97666031D01*
X139278500Y-95841009D01*
X139298502Y-95772888D01*
X139352158Y-95726395D01*
X139357694Y-95724097D01*
X139358297Y-95723767D01*
X139366705Y-95720615D01*
X139483261Y-95633261D01*
X139570615Y-95516705D01*
X139621745Y-95380316D01*
X139628500Y-95318134D01*
X139628500Y-94386695D01*
X144087251Y-94386695D01*
X144100110Y-94609715D01*
X144101247Y-94614761D01*
X144101248Y-94614767D01*
X144125304Y-94721508D01*
X144149222Y-94827639D01*
X144233266Y-95034616D01*
X144235965Y-95039020D01*
X144325459Y-95185061D01*
X144349987Y-95225088D01*
X144353367Y-95228990D01*
X144410737Y-95295219D01*
X144440220Y-95359804D01*
X144441500Y-95377717D01*
X144441500Y-97338157D01*
X144440763Y-97351764D01*
X144436676Y-97389388D01*
X144437213Y-97395523D01*
X144441050Y-97439388D01*
X144441379Y-97444214D01*
X144441500Y-97446686D01*
X144441500Y-97449769D01*
X144441801Y-97452837D01*
X144445690Y-97492506D01*
X144445812Y-97493819D01*
X144453913Y-97586413D01*
X144455400Y-97591532D01*
X144455920Y-97596833D01*
X144482791Y-97685834D01*
X144483126Y-97686967D01*
X144506250Y-97766556D01*
X144509091Y-97776336D01*
X144511544Y-97781068D01*
X144513084Y-97786169D01*
X144515978Y-97791612D01*
X144556731Y-97868260D01*
X144557343Y-97869426D01*
X144592148Y-97936570D01*
X144600108Y-97951926D01*
X144603431Y-97956089D01*
X144605934Y-97960796D01*
X144664755Y-98032918D01*
X144665446Y-98033774D01*
X144696738Y-98072973D01*
X144699242Y-98075477D01*
X144699884Y-98076195D01*
X144703585Y-98080528D01*
X144730935Y-98114062D01*
X144735682Y-98117989D01*
X144735684Y-98117991D01*
X144766262Y-98143287D01*
X144775042Y-98151277D01*
X151922684Y-105298918D01*
X151956710Y-105361230D01*
X151951645Y-105432045D01*
X151947784Y-105441262D01*
X151913041Y-105515770D01*
X151910716Y-105520757D01*
X151851457Y-105741913D01*
X151836500Y-105912873D01*
X151836500Y-106927127D01*
X151851457Y-107098087D01*
X151910716Y-107319243D01*
X151913039Y-107324224D01*
X151913039Y-107324225D01*
X152005151Y-107521762D01*
X152005154Y-107521767D01*
X152007477Y-107526749D01*
X152138802Y-107714300D01*
X152300700Y-107876198D01*
X152305208Y-107879355D01*
X152305211Y-107879357D01*
X152383389Y-107934098D01*
X152488251Y-108007523D01*
X152493233Y-108009846D01*
X152493238Y-108009849D01*
X152689765Y-108101490D01*
X152695757Y-108104284D01*
X152701065Y-108105706D01*
X152701067Y-108105707D01*
X152911598Y-108162119D01*
X152911600Y-108162119D01*
X152916913Y-108163543D01*
X153145000Y-108183498D01*
X153373087Y-108163543D01*
X153378400Y-108162119D01*
X153378402Y-108162119D01*
X153588933Y-108105707D01*
X153588935Y-108105706D01*
X153594243Y-108104284D01*
X153600235Y-108101490D01*
X153796762Y-108009849D01*
X153796767Y-108009846D01*
X153801749Y-108007523D01*
X153906611Y-107934098D01*
X153984789Y-107879357D01*
X153984792Y-107879355D01*
X153989300Y-107876198D01*
X154151198Y-107714300D01*
X154282523Y-107526749D01*
X154284846Y-107521767D01*
X154284849Y-107521762D01*
X154301081Y-107486951D01*
X154347998Y-107433666D01*
X154416275Y-107414205D01*
X154484235Y-107434747D01*
X154529471Y-107486951D01*
X154545586Y-107521511D01*
X154551069Y-107531007D01*
X154676028Y-107709467D01*
X154683084Y-107717875D01*
X154837125Y-107871916D01*
X154845533Y-107878972D01*
X155023993Y-108003931D01*
X155033489Y-108009414D01*
X155230947Y-108101490D01*
X155241239Y-108105236D01*
X155413503Y-108151394D01*
X155427599Y-108151058D01*
X155431000Y-108143116D01*
X155431000Y-108137967D01*
X155939000Y-108137967D01*
X155942973Y-108151498D01*
X155951522Y-108152727D01*
X156128761Y-108105236D01*
X156139053Y-108101490D01*
X156336511Y-108009414D01*
X156346007Y-108003931D01*
X156524467Y-107878972D01*
X156532875Y-107871916D01*
X156686916Y-107717875D01*
X156693972Y-107709467D01*
X156818931Y-107531007D01*
X156824414Y-107521511D01*
X156916490Y-107324053D01*
X156920236Y-107313761D01*
X156976625Y-107103312D01*
X156978528Y-107092519D01*
X156992762Y-106929830D01*
X156993000Y-106924365D01*
X156993000Y-106692115D01*
X156988525Y-106676876D01*
X156987135Y-106675671D01*
X156979452Y-106674000D01*
X155957115Y-106674000D01*
X155941876Y-106678475D01*
X155940671Y-106679865D01*
X155939000Y-106687548D01*
X155939000Y-108137967D01*
X155431000Y-108137967D01*
X155431000Y-106147885D01*
X155939000Y-106147885D01*
X155943475Y-106163124D01*
X155944865Y-106164329D01*
X155952548Y-106166000D01*
X156974885Y-106166000D01*
X156990124Y-106161525D01*
X156991329Y-106160135D01*
X156993000Y-106152452D01*
X156993000Y-105915635D01*
X156992762Y-105910170D01*
X156978528Y-105747481D01*
X156976625Y-105736688D01*
X156920236Y-105526239D01*
X156916490Y-105515947D01*
X156824414Y-105318489D01*
X156818931Y-105308993D01*
X156693972Y-105130533D01*
X156686916Y-105122125D01*
X156532875Y-104968084D01*
X156524467Y-104961028D01*
X156346007Y-104836069D01*
X156336511Y-104830586D01*
X156139053Y-104738510D01*
X156128761Y-104734764D01*
X155956497Y-104688606D01*
X155942401Y-104688942D01*
X155939000Y-104696884D01*
X155939000Y-106147885D01*
X155431000Y-106147885D01*
X155431000Y-104702033D01*
X155427027Y-104688502D01*
X155418478Y-104687273D01*
X155241239Y-104734764D01*
X155230947Y-104738510D01*
X155033489Y-104830586D01*
X155023993Y-104836069D01*
X154845533Y-104961028D01*
X154837125Y-104968084D01*
X154683084Y-105122125D01*
X154676028Y-105130533D01*
X154551069Y-105308993D01*
X154545586Y-105318489D01*
X154529471Y-105353049D01*
X154482554Y-105406334D01*
X154414277Y-105425795D01*
X154346317Y-105405253D01*
X154301081Y-105353049D01*
X154284849Y-105318238D01*
X154284846Y-105318233D01*
X154282523Y-105313251D01*
X154180623Y-105167723D01*
X154161331Y-105105347D01*
X154158324Y-105105610D01*
X154153950Y-105055609D01*
X154153621Y-105050784D01*
X154153500Y-105048313D01*
X154153500Y-105045231D01*
X154149309Y-105002489D01*
X154149187Y-105001174D01*
X154141623Y-104914719D01*
X154141087Y-104908587D01*
X154139600Y-104903468D01*
X154139080Y-104898167D01*
X154112218Y-104809194D01*
X154111862Y-104807994D01*
X154101010Y-104770642D01*
X154085909Y-104718663D01*
X154083455Y-104713929D01*
X154081916Y-104708831D01*
X154079021Y-104703386D01*
X154038316Y-104626831D01*
X154037702Y-104625663D01*
X153997726Y-104548541D01*
X153997725Y-104548540D01*
X153994892Y-104543074D01*
X153991569Y-104538911D01*
X153989066Y-104534204D01*
X153930245Y-104462082D01*
X153929554Y-104461226D01*
X153898262Y-104422027D01*
X153895758Y-104419523D01*
X153895116Y-104418805D01*
X153891415Y-104414472D01*
X153864065Y-104380938D01*
X153841935Y-104362630D01*
X153828738Y-104351713D01*
X153819958Y-104343723D01*
X146495405Y-97019171D01*
X146461379Y-96956859D01*
X146458500Y-96930076D01*
X146458500Y-95797386D01*
X158567759Y-95797386D01*
X158575216Y-95807753D01*
X158814935Y-96001874D01*
X158820272Y-96005751D01*
X159140685Y-96213830D01*
X159146394Y-96217127D01*
X159486811Y-96390578D01*
X159492836Y-96393260D01*
X159849502Y-96530171D01*
X159855784Y-96532212D01*
X160224816Y-96631094D01*
X160231266Y-96632465D01*
X160608629Y-96692234D01*
X160615167Y-96692920D01*
X160996699Y-96712916D01*
X161003301Y-96712916D01*
X161384833Y-96692920D01*
X161391371Y-96692234D01*
X161768734Y-96632465D01*
X161775184Y-96631094D01*
X162144216Y-96532212D01*
X162150498Y-96530171D01*
X162507164Y-96393260D01*
X162513189Y-96390578D01*
X162853606Y-96217127D01*
X162859315Y-96213830D01*
X163179728Y-96005751D01*
X163185065Y-96001874D01*
X163423835Y-95808522D01*
X163432300Y-95796267D01*
X163425966Y-95785176D01*
X161012812Y-93372022D01*
X160998868Y-93364408D01*
X160997035Y-93364539D01*
X160990420Y-93368790D01*
X158574900Y-95784310D01*
X158567759Y-95797386D01*
X146458500Y-95797386D01*
X146458500Y-95554500D01*
X146478502Y-95486379D01*
X146532158Y-95439886D01*
X146584500Y-95428500D01*
X147032393Y-95428500D01*
X147100514Y-95448502D01*
X147112877Y-95457555D01*
X147208126Y-95536632D01*
X147401000Y-95649338D01*
X147609692Y-95729030D01*
X147614760Y-95730061D01*
X147614763Y-95730062D01*
X147722017Y-95751883D01*
X147828597Y-95773567D01*
X147833772Y-95773757D01*
X147833774Y-95773757D01*
X148046673Y-95781564D01*
X148046677Y-95781564D01*
X148051837Y-95781753D01*
X148056957Y-95781097D01*
X148056959Y-95781097D01*
X148268288Y-95754025D01*
X148268289Y-95754025D01*
X148273416Y-95753368D01*
X148278366Y-95751883D01*
X148482429Y-95690661D01*
X148482434Y-95690659D01*
X148487384Y-95689174D01*
X148687994Y-95590896D01*
X148869860Y-95461173D01*
X148872886Y-95458157D01*
X148937588Y-95429570D01*
X148953976Y-95428500D01*
X149572393Y-95428500D01*
X149640514Y-95448502D01*
X149652877Y-95457555D01*
X149748126Y-95536632D01*
X149941000Y-95649338D01*
X150149692Y-95729030D01*
X150154760Y-95730061D01*
X150154763Y-95730062D01*
X150262017Y-95751883D01*
X150368597Y-95773567D01*
X150373772Y-95773757D01*
X150373774Y-95773757D01*
X150586673Y-95781564D01*
X150586677Y-95781564D01*
X150591837Y-95781753D01*
X150596957Y-95781097D01*
X150596959Y-95781097D01*
X150808288Y-95754025D01*
X150808289Y-95754025D01*
X150813416Y-95753368D01*
X150818366Y-95751883D01*
X151022429Y-95690661D01*
X151022434Y-95690659D01*
X151027384Y-95689174D01*
X151227994Y-95590896D01*
X151409860Y-95461173D01*
X151412886Y-95458157D01*
X151477588Y-95429570D01*
X151493976Y-95428500D01*
X151648991Y-95428500D01*
X151717112Y-95448502D01*
X151763605Y-95502158D01*
X151765903Y-95507694D01*
X151766232Y-95508296D01*
X151769385Y-95516705D01*
X151856739Y-95633261D01*
X151973295Y-95720615D01*
X152109684Y-95771745D01*
X152171866Y-95778500D01*
X153968134Y-95778500D01*
X154030316Y-95771745D01*
X154166705Y-95720615D01*
X154283261Y-95633261D01*
X154370615Y-95516705D01*
X154421745Y-95380316D01*
X154428500Y-95318134D01*
X154428500Y-93521866D01*
X154421745Y-93459684D01*
X154370615Y-93323295D01*
X154283261Y-93206739D01*
X154166705Y-93119385D01*
X154139905Y-93109338D01*
X154048203Y-93074960D01*
X153991439Y-93032318D01*
X153980671Y-93003301D01*
X157287084Y-93003301D01*
X157307080Y-93384833D01*
X157307766Y-93391371D01*
X157367535Y-93768734D01*
X157368906Y-93775184D01*
X157467788Y-94144216D01*
X157469829Y-94150498D01*
X157606740Y-94507164D01*
X157609422Y-94513189D01*
X157782872Y-94853603D01*
X157786169Y-94859313D01*
X157994253Y-95179735D01*
X157998123Y-95185061D01*
X158191478Y-95423835D01*
X158203733Y-95432300D01*
X158214824Y-95425966D01*
X160627978Y-93012812D01*
X160634356Y-93001132D01*
X161364408Y-93001132D01*
X161364539Y-93002965D01*
X161368790Y-93009580D01*
X163784310Y-95425100D01*
X163797386Y-95432241D01*
X163807753Y-95424784D01*
X164001877Y-95185061D01*
X164005747Y-95179735D01*
X164213831Y-94859313D01*
X164217128Y-94853603D01*
X164390578Y-94513189D01*
X164393260Y-94507164D01*
X164530171Y-94150498D01*
X164532212Y-94144216D01*
X164631094Y-93775184D01*
X164632465Y-93768734D01*
X164692234Y-93391371D01*
X164692920Y-93384833D01*
X164710173Y-93055640D01*
X164730632Y-92997426D01*
X164715104Y-92973264D01*
X164710173Y-92944360D01*
X164692920Y-92615167D01*
X164692234Y-92608629D01*
X164632465Y-92231266D01*
X164631094Y-92224816D01*
X164532212Y-91855784D01*
X164530171Y-91849502D01*
X164393260Y-91492836D01*
X164390578Y-91486811D01*
X164217128Y-91146397D01*
X164213831Y-91140687D01*
X164005747Y-90820265D01*
X164001877Y-90814939D01*
X163808522Y-90576165D01*
X163796267Y-90567700D01*
X163785176Y-90574034D01*
X161372022Y-92987188D01*
X161364408Y-93001132D01*
X160634356Y-93001132D01*
X160635592Y-92998868D01*
X160635461Y-92997035D01*
X160631210Y-92990420D01*
X158215690Y-90574900D01*
X158202614Y-90567759D01*
X158192247Y-90575216D01*
X157998123Y-90814939D01*
X157994253Y-90820265D01*
X157786169Y-91140687D01*
X157782872Y-91146397D01*
X157609422Y-91486811D01*
X157606740Y-91492836D01*
X157469829Y-91849502D01*
X157467788Y-91855784D01*
X157368906Y-92224816D01*
X157367535Y-92231266D01*
X157307766Y-92608629D01*
X157307080Y-92615167D01*
X157287084Y-92996699D01*
X157287084Y-93003301D01*
X153980671Y-93003301D01*
X153966739Y-92965756D01*
X153981947Y-92896408D01*
X154003493Y-92867727D01*
X154031000Y-92840316D01*
X154108096Y-92763489D01*
X154167594Y-92680689D01*
X154235435Y-92586277D01*
X154238453Y-92582077D01*
X154259320Y-92539857D01*
X154335136Y-92386453D01*
X154335137Y-92386451D01*
X154337430Y-92381811D01*
X154402370Y-92168069D01*
X154431529Y-91946590D01*
X154433156Y-91880000D01*
X154414852Y-91657361D01*
X154360431Y-91440702D01*
X154271354Y-91235840D01*
X154150014Y-91048277D01*
X153999670Y-90883051D01*
X153995619Y-90879852D01*
X153995615Y-90879848D01*
X153828414Y-90747800D01*
X153828410Y-90747798D01*
X153824359Y-90744598D01*
X153628789Y-90636638D01*
X153623920Y-90634914D01*
X153623916Y-90634912D01*
X153423087Y-90563795D01*
X153423083Y-90563794D01*
X153418212Y-90562069D01*
X153413119Y-90561162D01*
X153413116Y-90561161D01*
X153203373Y-90523800D01*
X153203367Y-90523799D01*
X153198284Y-90522894D01*
X153124452Y-90521992D01*
X152980081Y-90520228D01*
X152980079Y-90520228D01*
X152974911Y-90520165D01*
X152754091Y-90553955D01*
X152541756Y-90623357D01*
X152343607Y-90726507D01*
X152339474Y-90729610D01*
X152339471Y-90729612D01*
X152169100Y-90857530D01*
X152164965Y-90860635D01*
X152010629Y-91022138D01*
X151903201Y-91179621D01*
X151848293Y-91224621D01*
X151777768Y-91232792D01*
X151714021Y-91201538D01*
X151693324Y-91177054D01*
X151612822Y-91052617D01*
X151612820Y-91052614D01*
X151610014Y-91048277D01*
X151459670Y-90883051D01*
X151455619Y-90879852D01*
X151455615Y-90879848D01*
X151288414Y-90747800D01*
X151288410Y-90747798D01*
X151284359Y-90744598D01*
X151088789Y-90636638D01*
X151083920Y-90634914D01*
X151083916Y-90634912D01*
X150883087Y-90563795D01*
X150883083Y-90563794D01*
X150878212Y-90562069D01*
X150873119Y-90561162D01*
X150873116Y-90561161D01*
X150663373Y-90523800D01*
X150663367Y-90523799D01*
X150658284Y-90522894D01*
X150584452Y-90521992D01*
X150440081Y-90520228D01*
X150440079Y-90520228D01*
X150434911Y-90520165D01*
X150214091Y-90553955D01*
X150001756Y-90623357D01*
X149803607Y-90726507D01*
X149799474Y-90729610D01*
X149799471Y-90729612D01*
X149629100Y-90857530D01*
X149624965Y-90860635D01*
X149470629Y-91022138D01*
X149363201Y-91179621D01*
X149308293Y-91224621D01*
X149237768Y-91232792D01*
X149174021Y-91201538D01*
X149153324Y-91177054D01*
X149072822Y-91052617D01*
X149072820Y-91052614D01*
X149070014Y-91048277D01*
X148919670Y-90883051D01*
X148915619Y-90879852D01*
X148915615Y-90879848D01*
X148748414Y-90747800D01*
X148748410Y-90747798D01*
X148744359Y-90744598D01*
X148548789Y-90636638D01*
X148543920Y-90634914D01*
X148543916Y-90634912D01*
X148343087Y-90563795D01*
X148343083Y-90563794D01*
X148338212Y-90562069D01*
X148333119Y-90561162D01*
X148333116Y-90561161D01*
X148123373Y-90523800D01*
X148123367Y-90523799D01*
X148118284Y-90522894D01*
X148044452Y-90521992D01*
X147900081Y-90520228D01*
X147900079Y-90520228D01*
X147894911Y-90520165D01*
X147674091Y-90553955D01*
X147461756Y-90623357D01*
X147263607Y-90726507D01*
X147259474Y-90729610D01*
X147259471Y-90729612D01*
X147089100Y-90857530D01*
X147084965Y-90860635D01*
X146930629Y-91022138D01*
X146823201Y-91179621D01*
X146768293Y-91224621D01*
X146697768Y-91232792D01*
X146634021Y-91201538D01*
X146613324Y-91177054D01*
X146532822Y-91052617D01*
X146532820Y-91052614D01*
X146530014Y-91048277D01*
X146379670Y-90883051D01*
X146375619Y-90879852D01*
X146375615Y-90879848D01*
X146208414Y-90747800D01*
X146208410Y-90747798D01*
X146204359Y-90744598D01*
X146008789Y-90636638D01*
X146003920Y-90634914D01*
X146003916Y-90634912D01*
X145803087Y-90563795D01*
X145803083Y-90563794D01*
X145798212Y-90562069D01*
X145793119Y-90561162D01*
X145793116Y-90561161D01*
X145583373Y-90523800D01*
X145583367Y-90523799D01*
X145578284Y-90522894D01*
X145504452Y-90521992D01*
X145360081Y-90520228D01*
X145360079Y-90520228D01*
X145354911Y-90520165D01*
X145134091Y-90553955D01*
X144921756Y-90623357D01*
X144723607Y-90726507D01*
X144719474Y-90729610D01*
X144719471Y-90729612D01*
X144549100Y-90857530D01*
X144544965Y-90860635D01*
X144390629Y-91022138D01*
X144264743Y-91206680D01*
X144170688Y-91409305D01*
X144110989Y-91624570D01*
X144087251Y-91846695D01*
X144087548Y-91851848D01*
X144087548Y-91851851D01*
X144092899Y-91944659D01*
X144100110Y-92069715D01*
X144101247Y-92074761D01*
X144101248Y-92074767D01*
X144121119Y-92162939D01*
X144149222Y-92287639D01*
X144233266Y-92494616D01*
X144284019Y-92577438D01*
X144347291Y-92680688D01*
X144349987Y-92685088D01*
X144496250Y-92853938D01*
X144668126Y-92996632D01*
X144675827Y-93001132D01*
X144741445Y-93039476D01*
X144790169Y-93091114D01*
X144803240Y-93160897D01*
X144776509Y-93226669D01*
X144736055Y-93260027D01*
X144723607Y-93266507D01*
X144719474Y-93269610D01*
X144719471Y-93269612D01*
X144557134Y-93391498D01*
X144544965Y-93400635D01*
X144534207Y-93411893D01*
X144423178Y-93528078D01*
X144390629Y-93562138D01*
X144387715Y-93566410D01*
X144387714Y-93566411D01*
X144302556Y-93691249D01*
X144264743Y-93746680D01*
X144246664Y-93785628D01*
X144173920Y-93942343D01*
X144170688Y-93949305D01*
X144110989Y-94164570D01*
X144087251Y-94386695D01*
X139628500Y-94386695D01*
X139628500Y-93521866D01*
X139621745Y-93459684D01*
X139570615Y-93323295D01*
X139483261Y-93206739D01*
X139366705Y-93119385D01*
X139339905Y-93109338D01*
X139248203Y-93074960D01*
X139191439Y-93032318D01*
X139166739Y-92965756D01*
X139181947Y-92896408D01*
X139203493Y-92867727D01*
X139231000Y-92840316D01*
X139308096Y-92763489D01*
X139367594Y-92680689D01*
X139435435Y-92586277D01*
X139438453Y-92582077D01*
X139459320Y-92539857D01*
X139535136Y-92386453D01*
X139535137Y-92386451D01*
X139537430Y-92381811D01*
X139602370Y-92168069D01*
X139631529Y-91946590D01*
X139633156Y-91880000D01*
X139614852Y-91657361D01*
X139560431Y-91440702D01*
X139471354Y-91235840D01*
X139350014Y-91048277D01*
X139199670Y-90883051D01*
X139195619Y-90879852D01*
X139195615Y-90879848D01*
X139028414Y-90747800D01*
X139028410Y-90747798D01*
X139024359Y-90744598D01*
X138828789Y-90636638D01*
X138823920Y-90634914D01*
X138823916Y-90634912D01*
X138623087Y-90563795D01*
X138623083Y-90563794D01*
X138618212Y-90562069D01*
X138613119Y-90561162D01*
X138613116Y-90561161D01*
X138403373Y-90523800D01*
X138403367Y-90523799D01*
X138398284Y-90522894D01*
X138324452Y-90521992D01*
X138180081Y-90520228D01*
X138180079Y-90520228D01*
X138174911Y-90520165D01*
X137954091Y-90553955D01*
X137741756Y-90623357D01*
X137543607Y-90726507D01*
X137539474Y-90729610D01*
X137539471Y-90729612D01*
X137369100Y-90857530D01*
X137364965Y-90860635D01*
X137210629Y-91022138D01*
X137103201Y-91179621D01*
X137048293Y-91224621D01*
X136977768Y-91232792D01*
X136914021Y-91201538D01*
X136893324Y-91177054D01*
X136812822Y-91052617D01*
X136812820Y-91052614D01*
X136810014Y-91048277D01*
X136659670Y-90883051D01*
X136655619Y-90879852D01*
X136655615Y-90879848D01*
X136488414Y-90747800D01*
X136488410Y-90747798D01*
X136484359Y-90744598D01*
X136288789Y-90636638D01*
X136283920Y-90634914D01*
X136283916Y-90634912D01*
X136083087Y-90563795D01*
X136083083Y-90563794D01*
X136078212Y-90562069D01*
X136073119Y-90561162D01*
X136073116Y-90561161D01*
X135863373Y-90523800D01*
X135863367Y-90523799D01*
X135858284Y-90522894D01*
X135784452Y-90521992D01*
X135640081Y-90520228D01*
X135640079Y-90520228D01*
X135634911Y-90520165D01*
X135414091Y-90553955D01*
X135201756Y-90623357D01*
X135003607Y-90726507D01*
X134999474Y-90729610D01*
X134999471Y-90729612D01*
X134829100Y-90857530D01*
X134824965Y-90860635D01*
X134670629Y-91022138D01*
X134563201Y-91179621D01*
X134508293Y-91224621D01*
X134437768Y-91232792D01*
X134374021Y-91201538D01*
X134353324Y-91177054D01*
X134272822Y-91052617D01*
X134272820Y-91052614D01*
X134270014Y-91048277D01*
X134119670Y-90883051D01*
X134115619Y-90879852D01*
X134115615Y-90879848D01*
X133948414Y-90747800D01*
X133948410Y-90747798D01*
X133944359Y-90744598D01*
X133748789Y-90636638D01*
X133743920Y-90634914D01*
X133743916Y-90634912D01*
X133543087Y-90563795D01*
X133543083Y-90563794D01*
X133538212Y-90562069D01*
X133533119Y-90561162D01*
X133533116Y-90561161D01*
X133323373Y-90523800D01*
X133323367Y-90523799D01*
X133318284Y-90522894D01*
X133244452Y-90521992D01*
X133100081Y-90520228D01*
X133100079Y-90520228D01*
X133094911Y-90520165D01*
X132874091Y-90553955D01*
X132661756Y-90623357D01*
X132463607Y-90726507D01*
X132459474Y-90729610D01*
X132459471Y-90729612D01*
X132289100Y-90857530D01*
X132284965Y-90860635D01*
X132130629Y-91022138D01*
X132023201Y-91179621D01*
X131968293Y-91224621D01*
X131897768Y-91232792D01*
X131834021Y-91201538D01*
X131813324Y-91177054D01*
X131732822Y-91052617D01*
X131732820Y-91052614D01*
X131730014Y-91048277D01*
X131579670Y-90883051D01*
X131575619Y-90879852D01*
X131575615Y-90879848D01*
X131408414Y-90747800D01*
X131408410Y-90747798D01*
X131404359Y-90744598D01*
X131208789Y-90636638D01*
X131203920Y-90634914D01*
X131203916Y-90634912D01*
X131003087Y-90563795D01*
X131003083Y-90563794D01*
X130998212Y-90562069D01*
X130993119Y-90561162D01*
X130993116Y-90561161D01*
X130783373Y-90523800D01*
X130783367Y-90523799D01*
X130778284Y-90522894D01*
X130704452Y-90521992D01*
X130560081Y-90520228D01*
X130560079Y-90520228D01*
X130554911Y-90520165D01*
X130334091Y-90553955D01*
X130121756Y-90623357D01*
X129923607Y-90726507D01*
X129919474Y-90729610D01*
X129919471Y-90729612D01*
X129749100Y-90857530D01*
X129744965Y-90860635D01*
X129590629Y-91022138D01*
X129464743Y-91206680D01*
X129370688Y-91409305D01*
X129310989Y-91624570D01*
X129287251Y-91846695D01*
X129287548Y-91851848D01*
X129287548Y-91851851D01*
X129292899Y-91944659D01*
X129300110Y-92069715D01*
X129301247Y-92074761D01*
X129301248Y-92074767D01*
X129321119Y-92162939D01*
X129349222Y-92287639D01*
X129433266Y-92494616D01*
X129484019Y-92577438D01*
X129547291Y-92680688D01*
X129549987Y-92685088D01*
X129696250Y-92853938D01*
X129868126Y-92996632D01*
X129875827Y-93001132D01*
X129941445Y-93039476D01*
X129990169Y-93091114D01*
X130003240Y-93160897D01*
X129976509Y-93226669D01*
X129936055Y-93260027D01*
X129923607Y-93266507D01*
X129919474Y-93269610D01*
X129919471Y-93269612D01*
X129757134Y-93391498D01*
X129744965Y-93400635D01*
X129734207Y-93411893D01*
X129623178Y-93528078D01*
X129590629Y-93562138D01*
X129587715Y-93566410D01*
X129587714Y-93566411D01*
X129502556Y-93691249D01*
X129464743Y-93746680D01*
X129446664Y-93785628D01*
X129373920Y-93942343D01*
X129370688Y-93949305D01*
X129310989Y-94164570D01*
X129287251Y-94386695D01*
X109828500Y-94386695D01*
X109828500Y-93521866D01*
X109821745Y-93459684D01*
X109770615Y-93323295D01*
X109683261Y-93206739D01*
X109566705Y-93119385D01*
X109539905Y-93109338D01*
X109448203Y-93074960D01*
X109391439Y-93032318D01*
X109366739Y-92965756D01*
X109381947Y-92896408D01*
X109403493Y-92867727D01*
X109431000Y-92840316D01*
X109508096Y-92763489D01*
X109567594Y-92680689D01*
X109635435Y-92586277D01*
X109638453Y-92582077D01*
X109659320Y-92539857D01*
X109735136Y-92386453D01*
X109735137Y-92386451D01*
X109737430Y-92381811D01*
X109802370Y-92168069D01*
X109831529Y-91946590D01*
X109833156Y-91880000D01*
X109814852Y-91657361D01*
X109760431Y-91440702D01*
X109671354Y-91235840D01*
X109550014Y-91048277D01*
X109399670Y-90883051D01*
X109395619Y-90879852D01*
X109395615Y-90879848D01*
X109228414Y-90747800D01*
X109228410Y-90747798D01*
X109224359Y-90744598D01*
X109028789Y-90636638D01*
X109023920Y-90634914D01*
X109023916Y-90634912D01*
X108823087Y-90563795D01*
X108823083Y-90563794D01*
X108818212Y-90562069D01*
X108813119Y-90561162D01*
X108813116Y-90561161D01*
X108603373Y-90523800D01*
X108603367Y-90523799D01*
X108598284Y-90522894D01*
X108524452Y-90521992D01*
X108380081Y-90520228D01*
X108380079Y-90520228D01*
X108374911Y-90520165D01*
X108154091Y-90553955D01*
X107941756Y-90623357D01*
X107743607Y-90726507D01*
X107739474Y-90729610D01*
X107739471Y-90729612D01*
X107569100Y-90857530D01*
X107564965Y-90860635D01*
X107410629Y-91022138D01*
X107303201Y-91179621D01*
X107248293Y-91224621D01*
X107177768Y-91232792D01*
X107114021Y-91201538D01*
X107093324Y-91177054D01*
X107012822Y-91052617D01*
X107012820Y-91052614D01*
X107010014Y-91048277D01*
X106859670Y-90883051D01*
X106855619Y-90879852D01*
X106855615Y-90879848D01*
X106688414Y-90747800D01*
X106688410Y-90747798D01*
X106684359Y-90744598D01*
X106488789Y-90636638D01*
X106483920Y-90634914D01*
X106483916Y-90634912D01*
X106283087Y-90563795D01*
X106283083Y-90563794D01*
X106278212Y-90562069D01*
X106273119Y-90561162D01*
X106273116Y-90561161D01*
X106063373Y-90523800D01*
X106063367Y-90523799D01*
X106058284Y-90522894D01*
X105984452Y-90521992D01*
X105840081Y-90520228D01*
X105840079Y-90520228D01*
X105834911Y-90520165D01*
X105614091Y-90553955D01*
X105401756Y-90623357D01*
X105203607Y-90726507D01*
X105199474Y-90729610D01*
X105199471Y-90729612D01*
X105029100Y-90857530D01*
X105024965Y-90860635D01*
X104870629Y-91022138D01*
X104763201Y-91179621D01*
X104708293Y-91224621D01*
X104637768Y-91232792D01*
X104574021Y-91201538D01*
X104553324Y-91177054D01*
X104472822Y-91052617D01*
X104472820Y-91052614D01*
X104470014Y-91048277D01*
X104319670Y-90883051D01*
X104315619Y-90879852D01*
X104315615Y-90879848D01*
X104148414Y-90747800D01*
X104148410Y-90747798D01*
X104144359Y-90744598D01*
X103948789Y-90636638D01*
X103943920Y-90634914D01*
X103943916Y-90634912D01*
X103743087Y-90563795D01*
X103743083Y-90563794D01*
X103738212Y-90562069D01*
X103733119Y-90561162D01*
X103733116Y-90561161D01*
X103523373Y-90523800D01*
X103523367Y-90523799D01*
X103518284Y-90522894D01*
X103444452Y-90521992D01*
X103300081Y-90520228D01*
X103300079Y-90520228D01*
X103294911Y-90520165D01*
X103074091Y-90553955D01*
X102861756Y-90623357D01*
X102663607Y-90726507D01*
X102659474Y-90729610D01*
X102659471Y-90729612D01*
X102489100Y-90857530D01*
X102484965Y-90860635D01*
X102330629Y-91022138D01*
X102223201Y-91179621D01*
X102168293Y-91224621D01*
X102097768Y-91232792D01*
X102034021Y-91201538D01*
X102013324Y-91177054D01*
X101932822Y-91052617D01*
X101932820Y-91052614D01*
X101930014Y-91048277D01*
X101779670Y-90883051D01*
X101775619Y-90879852D01*
X101775615Y-90879848D01*
X101608414Y-90747800D01*
X101608410Y-90747798D01*
X101604359Y-90744598D01*
X101408789Y-90636638D01*
X101403920Y-90634914D01*
X101403916Y-90634912D01*
X101203087Y-90563795D01*
X101203083Y-90563794D01*
X101198212Y-90562069D01*
X101193119Y-90561162D01*
X101193116Y-90561161D01*
X100983373Y-90523800D01*
X100983367Y-90523799D01*
X100978284Y-90522894D01*
X100904452Y-90521992D01*
X100760081Y-90520228D01*
X100760079Y-90520228D01*
X100754911Y-90520165D01*
X100534091Y-90553955D01*
X100321756Y-90623357D01*
X100123607Y-90726507D01*
X100119474Y-90729610D01*
X100119471Y-90729612D01*
X99949100Y-90857530D01*
X99944965Y-90860635D01*
X99790629Y-91022138D01*
X99664743Y-91206680D01*
X99570688Y-91409305D01*
X99510989Y-91624570D01*
X99487251Y-91846695D01*
X99487548Y-91851848D01*
X99487548Y-91851851D01*
X99492899Y-91944659D01*
X99500110Y-92069715D01*
X99501247Y-92074761D01*
X99501248Y-92074767D01*
X99521119Y-92162939D01*
X99549222Y-92287639D01*
X99633266Y-92494616D01*
X99684019Y-92577438D01*
X99747291Y-92680688D01*
X99749987Y-92685088D01*
X99896250Y-92853938D01*
X100068126Y-92996632D01*
X100075827Y-93001132D01*
X100141445Y-93039476D01*
X100190169Y-93091114D01*
X100203240Y-93160897D01*
X100176509Y-93226669D01*
X100136055Y-93260027D01*
X100123607Y-93266507D01*
X100119474Y-93269610D01*
X100119471Y-93269612D01*
X100027503Y-93338664D01*
X99966012Y-93384833D01*
X99964111Y-93386260D01*
X99897626Y-93411166D01*
X99888458Y-93411500D01*
X98529873Y-93411500D01*
X98516703Y-93410810D01*
X98483204Y-93407289D01*
X98483202Y-93407289D01*
X98477075Y-93406645D01*
X98426827Y-93411218D01*
X98422793Y-93411500D01*
X98420231Y-93411500D01*
X98417173Y-93411800D01*
X98417169Y-93411800D01*
X98375404Y-93415895D01*
X98374529Y-93415977D01*
X98359982Y-93417301D01*
X98280112Y-93424570D01*
X98276703Y-93425573D01*
X98273167Y-93425920D01*
X98182279Y-93453361D01*
X98181610Y-93453561D01*
X98090381Y-93480410D01*
X98087228Y-93482058D01*
X98083831Y-93483084D01*
X98078401Y-93485971D01*
X98078399Y-93485972D01*
X98054013Y-93498938D01*
X97999899Y-93527711D01*
X97999319Y-93528016D01*
X97915110Y-93572040D01*
X97912342Y-93574265D01*
X97909204Y-93575934D01*
X97899503Y-93583846D01*
X97835628Y-93635941D01*
X97834944Y-93636494D01*
X97765782Y-93692102D01*
X97765776Y-93692108D01*
X97760975Y-93695968D01*
X97758692Y-93698689D01*
X97755938Y-93700935D01*
X97752011Y-93705682D01*
X97752009Y-93705684D01*
X97728627Y-93733949D01*
X97721635Y-93742401D01*
X97695441Y-93774064D01*
X97694935Y-93774671D01*
X97633846Y-93847474D01*
X97632134Y-93850589D01*
X97629870Y-93853325D01*
X97624995Y-93862342D01*
X97584700Y-93936865D01*
X97584274Y-93937645D01*
X97580408Y-93944676D01*
X97530059Y-93994731D01*
X97460641Y-94009619D01*
X97394194Y-93984614D01*
X97358337Y-93942343D01*
X97320814Y-93870569D01*
X97317960Y-93865110D01*
X97315735Y-93862342D01*
X97314066Y-93859204D01*
X97299310Y-93841111D01*
X97254059Y-93785628D01*
X97253506Y-93784944D01*
X97197898Y-93715782D01*
X97197892Y-93715776D01*
X97194032Y-93710975D01*
X97191311Y-93708692D01*
X97189065Y-93705938D01*
X97183018Y-93700935D01*
X97156051Y-93678627D01*
X97115864Y-93645381D01*
X97115329Y-93644935D01*
X97042526Y-93583846D01*
X97039411Y-93582134D01*
X97036675Y-93579870D01*
X96953101Y-93534682D01*
X96952363Y-93534279D01*
X96941084Y-93528078D01*
X96869213Y-93488567D01*
X96865830Y-93487494D01*
X96862701Y-93485802D01*
X96771974Y-93457718D01*
X96771158Y-93457462D01*
X96686565Y-93430627D01*
X96686561Y-93430626D01*
X96680694Y-93428765D01*
X96677163Y-93428369D01*
X96673768Y-93427318D01*
X96579293Y-93417389D01*
X96578579Y-93417311D01*
X96526773Y-93411500D01*
X96524200Y-93411500D01*
X96520224Y-93411180D01*
X96483204Y-93407289D01*
X96483202Y-93407289D01*
X96477075Y-93406645D01*
X96431309Y-93410810D01*
X96429430Y-93410981D01*
X96418010Y-93411500D01*
X95428799Y-93411500D01*
X95360678Y-93391498D01*
X95350707Y-93384382D01*
X95228414Y-93287800D01*
X95228410Y-93287798D01*
X95224359Y-93284598D01*
X95183053Y-93261796D01*
X95133084Y-93211364D01*
X95118312Y-93141921D01*
X95143428Y-93075516D01*
X95170780Y-93048909D01*
X95237761Y-93001132D01*
X95349860Y-92921173D01*
X95508096Y-92763489D01*
X95567594Y-92680689D01*
X95635435Y-92586277D01*
X95638453Y-92582077D01*
X95659320Y-92539857D01*
X95735136Y-92386453D01*
X95735137Y-92386451D01*
X95737430Y-92381811D01*
X95802370Y-92168069D01*
X95826232Y-91986824D01*
X95854955Y-91921897D01*
X95862059Y-91914176D01*
X97572502Y-90203733D01*
X158567700Y-90203733D01*
X158574034Y-90214824D01*
X160987188Y-92627978D01*
X161001132Y-92635592D01*
X161002965Y-92635461D01*
X161009580Y-92631210D01*
X163425100Y-90215690D01*
X163432241Y-90202614D01*
X163424784Y-90192247D01*
X163185065Y-89998126D01*
X163179728Y-89994249D01*
X162859315Y-89786170D01*
X162853606Y-89782873D01*
X162513189Y-89609422D01*
X162507164Y-89606740D01*
X162150498Y-89469829D01*
X162144216Y-89467788D01*
X161775184Y-89368906D01*
X161768734Y-89367535D01*
X161391371Y-89307766D01*
X161384833Y-89307080D01*
X161003301Y-89287084D01*
X160996699Y-89287084D01*
X160615167Y-89307080D01*
X160608629Y-89307766D01*
X160231266Y-89367535D01*
X160224816Y-89368906D01*
X159855784Y-89467788D01*
X159849502Y-89469829D01*
X159492836Y-89606740D01*
X159486811Y-89609422D01*
X159146397Y-89782872D01*
X159140687Y-89786169D01*
X158820265Y-89994253D01*
X158814939Y-89998123D01*
X158576165Y-90191478D01*
X158567700Y-90203733D01*
X97572502Y-90203733D01*
X105020829Y-82755405D01*
X105083141Y-82721379D01*
X105109924Y-82718500D01*
X139595101Y-82718500D01*
X139663222Y-82738502D01*
X139702245Y-82778197D01*
X139721522Y-82809348D01*
X139846697Y-82934305D01*
X139852927Y-82938145D01*
X139852928Y-82938146D01*
X139990090Y-83022694D01*
X139997262Y-83027115D01*
X140165139Y-83082797D01*
X140171973Y-83083497D01*
X140171977Y-83083498D01*
X140195601Y-83085918D01*
X140263073Y-83114177D01*
X140288604Y-83135298D01*
X140297384Y-83143288D01*
X140522878Y-83368782D01*
X140556904Y-83431094D01*
X140559092Y-83444703D01*
X140576458Y-83609928D01*
X140635473Y-83791556D01*
X140730960Y-83956944D01*
X140858747Y-84098866D01*
X141013248Y-84211118D01*
X141019276Y-84213802D01*
X141019278Y-84213803D01*
X141181681Y-84286109D01*
X141187712Y-84288794D01*
X141281113Y-84308647D01*
X141368056Y-84327128D01*
X141368061Y-84327128D01*
X141374513Y-84328500D01*
X141565487Y-84328500D01*
X141571939Y-84327128D01*
X141571944Y-84327128D01*
X141658887Y-84308647D01*
X141752288Y-84288794D01*
X141758319Y-84286109D01*
X141920722Y-84213803D01*
X141920724Y-84213802D01*
X141926752Y-84211118D01*
X142081253Y-84098866D01*
X142126364Y-84048765D01*
X142186810Y-84011525D01*
X142257793Y-84012877D01*
X142313636Y-84048765D01*
X142358747Y-84098866D01*
X142513248Y-84211118D01*
X142519276Y-84213802D01*
X142519278Y-84213803D01*
X142681681Y-84286109D01*
X142687712Y-84288794D01*
X142781113Y-84308647D01*
X142868056Y-84327128D01*
X142868061Y-84327128D01*
X142874513Y-84328500D01*
X143065487Y-84328500D01*
X143071939Y-84327128D01*
X143071944Y-84327128D01*
X143158887Y-84308647D01*
X143252288Y-84288794D01*
X143258319Y-84286109D01*
X143420722Y-84213803D01*
X143420724Y-84213802D01*
X143426752Y-84211118D01*
X143581253Y-84098866D01*
X143709040Y-83956944D01*
X143804527Y-83791556D01*
X143863542Y-83609928D01*
X143880907Y-83444706D01*
X143907920Y-83379050D01*
X143917122Y-83368782D01*
X144155499Y-83130405D01*
X144217811Y-83096379D01*
X144244594Y-83093500D01*
X144270400Y-83093500D01*
X144273646Y-83093163D01*
X144273650Y-83093163D01*
X144369308Y-83083238D01*
X144369312Y-83083237D01*
X144376166Y-83082526D01*
X144382702Y-83080345D01*
X144382704Y-83080345D01*
X144514806Y-83036272D01*
X144543946Y-83026550D01*
X144694348Y-82933478D01*
X144819305Y-82808303D01*
X144912115Y-82657738D01*
X144947765Y-82550255D01*
X144965632Y-82496389D01*
X144965632Y-82496387D01*
X144967797Y-82489861D01*
X144978500Y-82385400D01*
X144978500Y-81034600D01*
X144967526Y-80928834D01*
X144911550Y-80761054D01*
X144818478Y-80610652D01*
X144693303Y-80485695D01*
X144542738Y-80392885D01*
X144462995Y-80366436D01*
X144381389Y-80339368D01*
X144381387Y-80339368D01*
X144374861Y-80337203D01*
X144368025Y-80336503D01*
X144368022Y-80336502D01*
X144324969Y-80332091D01*
X144270400Y-80326500D01*
X143914924Y-80326500D01*
X143846803Y-80306498D01*
X143825829Y-80289595D01*
X143064019Y-79527785D01*
X143029993Y-79465473D01*
X143035058Y-79394658D01*
X143077605Y-79337822D01*
X143126917Y-79315444D01*
X143245822Y-79290169D01*
X143245827Y-79290167D01*
X143252288Y-79288794D01*
X143265861Y-79282751D01*
X143420722Y-79213803D01*
X143420724Y-79213802D01*
X143426752Y-79211118D01*
X143445715Y-79197341D01*
X143482157Y-79170864D01*
X143581253Y-79098866D01*
X143709040Y-78956944D01*
X143804527Y-78791556D01*
X143863542Y-78609928D01*
X143883504Y-78420000D01*
X143863815Y-78232670D01*
X143876587Y-78162832D01*
X143925089Y-78110985D01*
X143989125Y-78093500D01*
X144270400Y-78093500D01*
X144273646Y-78093163D01*
X144273650Y-78093163D01*
X144369308Y-78083238D01*
X144369312Y-78083237D01*
X144376166Y-78082526D01*
X144382702Y-78080345D01*
X144382704Y-78080345D01*
X144514806Y-78036272D01*
X144543946Y-78026550D01*
X144694348Y-77933478D01*
X144819305Y-77808303D01*
X144837863Y-77778197D01*
X144908275Y-77663968D01*
X144908276Y-77663966D01*
X144912115Y-77657738D01*
X144967797Y-77489861D01*
X144968811Y-77479970D01*
X144974940Y-77420144D01*
X144978500Y-77385400D01*
X144978500Y-76034600D01*
X144967526Y-75928834D01*
X144911550Y-75761054D01*
X144833813Y-75635433D01*
X144817109Y-75592315D01*
X144816624Y-75589724D01*
X144816087Y-75583587D01*
X144814600Y-75578468D01*
X144814080Y-75573167D01*
X144787209Y-75484166D01*
X144786874Y-75483033D01*
X144762630Y-75399586D01*
X144762628Y-75399582D01*
X144760909Y-75393664D01*
X144758456Y-75388932D01*
X144756916Y-75383831D01*
X144713269Y-75301740D01*
X144712657Y-75300574D01*
X144672729Y-75223547D01*
X144669892Y-75218074D01*
X144666569Y-75213911D01*
X144664066Y-75209204D01*
X144605261Y-75137102D01*
X144604433Y-75136075D01*
X144575469Y-75099792D01*
X144575464Y-75099787D01*
X144573262Y-75097028D01*
X144570761Y-75094527D01*
X144570119Y-75093809D01*
X144566406Y-75089461D01*
X144558642Y-75079941D01*
X144539065Y-75055938D01*
X144534323Y-75052015D01*
X144534321Y-75052013D01*
X144503727Y-75026703D01*
X144494947Y-75018713D01*
X144306289Y-74830055D01*
X144272263Y-74767743D01*
X144277328Y-74696928D01*
X144319875Y-74640092D01*
X144369185Y-74617714D01*
X144552288Y-74578794D01*
X144558319Y-74576109D01*
X144720722Y-74503803D01*
X144720724Y-74503802D01*
X144726752Y-74501118D01*
X144881253Y-74388866D01*
X144915727Y-74350579D01*
X145004621Y-74251852D01*
X145004622Y-74251851D01*
X145009040Y-74246944D01*
X145077518Y-74128337D01*
X145101223Y-74087279D01*
X145101224Y-74087278D01*
X145104527Y-74081556D01*
X145163542Y-73899928D01*
X145183504Y-73710000D01*
X145179583Y-73672697D01*
X145164232Y-73526635D01*
X145164232Y-73526633D01*
X145163542Y-73520072D01*
X145104527Y-73338444D01*
X145009040Y-73173056D01*
X144881253Y-73031134D01*
X144835497Y-72997890D01*
X144792143Y-72941667D01*
X144786068Y-72870931D01*
X144810675Y-72817863D01*
X144814134Y-72813483D01*
X144819305Y-72808303D01*
X144912115Y-72657738D01*
X144967797Y-72489861D01*
X144978500Y-72385400D01*
X144978500Y-71034600D01*
X144967526Y-70928834D01*
X144911550Y-70761054D01*
X144833813Y-70635433D01*
X144817109Y-70592315D01*
X144816624Y-70589724D01*
X144816087Y-70583587D01*
X144814600Y-70578468D01*
X144814080Y-70573167D01*
X144787209Y-70484166D01*
X144786874Y-70483033D01*
X144762630Y-70399586D01*
X144762628Y-70399582D01*
X144760909Y-70393664D01*
X144758456Y-70388932D01*
X144756916Y-70383831D01*
X144713269Y-70301740D01*
X144712657Y-70300574D01*
X144672729Y-70223547D01*
X144669892Y-70218074D01*
X144666569Y-70213911D01*
X144664066Y-70209204D01*
X144605261Y-70137102D01*
X144604433Y-70136075D01*
X144575469Y-70099792D01*
X144575464Y-70099787D01*
X144573262Y-70097028D01*
X144570761Y-70094527D01*
X144570119Y-70093809D01*
X144566406Y-70089461D01*
X144558642Y-70079941D01*
X144539065Y-70055938D01*
X144534323Y-70052015D01*
X144534321Y-70052013D01*
X144503727Y-70026703D01*
X144494947Y-70018713D01*
X144306289Y-69830055D01*
X144272263Y-69767743D01*
X144277328Y-69696928D01*
X144319875Y-69640092D01*
X144369185Y-69617714D01*
X144552288Y-69578794D01*
X144558319Y-69576109D01*
X144720722Y-69503803D01*
X144720724Y-69503802D01*
X144726752Y-69501118D01*
X144881253Y-69388866D01*
X144915727Y-69350579D01*
X145004621Y-69251852D01*
X145004622Y-69251851D01*
X145009040Y-69246944D01*
X145077518Y-69128337D01*
X145101223Y-69087279D01*
X145101224Y-69087278D01*
X145104527Y-69081556D01*
X145163542Y-68899928D01*
X145174320Y-68797386D01*
X158567759Y-68797386D01*
X158575216Y-68807753D01*
X158814935Y-69001874D01*
X158820272Y-69005751D01*
X159140685Y-69213830D01*
X159146394Y-69217127D01*
X159486811Y-69390578D01*
X159492836Y-69393260D01*
X159849502Y-69530171D01*
X159855784Y-69532212D01*
X160224816Y-69631094D01*
X160231266Y-69632465D01*
X160608629Y-69692234D01*
X160615167Y-69692920D01*
X160996699Y-69712916D01*
X161003301Y-69712916D01*
X161384833Y-69692920D01*
X161391371Y-69692234D01*
X161768734Y-69632465D01*
X161775184Y-69631094D01*
X162144216Y-69532212D01*
X162150498Y-69530171D01*
X162507164Y-69393260D01*
X162513189Y-69390578D01*
X162853606Y-69217127D01*
X162859315Y-69213830D01*
X163179728Y-69005751D01*
X163185065Y-69001874D01*
X163423835Y-68808522D01*
X163432300Y-68796267D01*
X163425966Y-68785176D01*
X161012812Y-66372022D01*
X160998868Y-66364408D01*
X160997035Y-66364539D01*
X160990420Y-66368790D01*
X158574900Y-68784310D01*
X158567759Y-68797386D01*
X145174320Y-68797386D01*
X145182814Y-68716565D01*
X145183504Y-68710000D01*
X145179583Y-68672697D01*
X145164232Y-68526635D01*
X145164232Y-68526633D01*
X145163542Y-68520072D01*
X145104527Y-68338444D01*
X145009040Y-68173056D01*
X144881253Y-68031134D01*
X144835497Y-67997890D01*
X144792143Y-67941667D01*
X144786068Y-67870931D01*
X144810675Y-67817863D01*
X144814134Y-67813483D01*
X144819305Y-67808303D01*
X144912115Y-67657738D01*
X144959514Y-67514832D01*
X144999944Y-67456473D01*
X145065508Y-67429236D01*
X145079107Y-67428500D01*
X146519769Y-67428500D01*
X146522825Y-67428200D01*
X146522832Y-67428200D01*
X146581340Y-67422463D01*
X146666833Y-67414080D01*
X146672734Y-67412298D01*
X146672736Y-67412298D01*
X146751233Y-67388598D01*
X146856169Y-67356916D01*
X147030796Y-67264066D01*
X147170044Y-67150498D01*
X147179287Y-67142960D01*
X147179290Y-67142957D01*
X147184062Y-67139065D01*
X147187991Y-67134316D01*
X147306201Y-66991425D01*
X147306203Y-66991421D01*
X147310130Y-66986675D01*
X147404198Y-66812701D01*
X147462682Y-66623768D01*
X147483355Y-66427075D01*
X147465430Y-66230112D01*
X147409590Y-66040381D01*
X147395178Y-66012812D01*
X147390206Y-66003301D01*
X157287084Y-66003301D01*
X157307080Y-66384833D01*
X157307766Y-66391371D01*
X157367535Y-66768734D01*
X157368906Y-66775184D01*
X157467788Y-67144216D01*
X157469829Y-67150498D01*
X157606740Y-67507164D01*
X157609422Y-67513189D01*
X157782872Y-67853603D01*
X157786169Y-67859313D01*
X157994253Y-68179735D01*
X157998123Y-68185061D01*
X158191478Y-68423835D01*
X158203733Y-68432300D01*
X158214824Y-68425966D01*
X160627978Y-66012812D01*
X160634356Y-66001132D01*
X161364408Y-66001132D01*
X161364539Y-66002965D01*
X161368790Y-66009580D01*
X163784310Y-68425100D01*
X163797386Y-68432241D01*
X163807753Y-68424784D01*
X164001877Y-68185061D01*
X164005747Y-68179735D01*
X164213831Y-67859313D01*
X164217128Y-67853603D01*
X164390578Y-67513189D01*
X164393260Y-67507164D01*
X164530171Y-67150498D01*
X164532212Y-67144216D01*
X164631094Y-66775184D01*
X164632465Y-66768734D01*
X164692234Y-66391371D01*
X164692920Y-66384833D01*
X164710173Y-66055640D01*
X164730632Y-65997426D01*
X164715104Y-65973264D01*
X164710173Y-65944360D01*
X164692920Y-65615167D01*
X164692234Y-65608629D01*
X164632465Y-65231266D01*
X164631094Y-65224816D01*
X164532212Y-64855784D01*
X164530171Y-64849502D01*
X164393260Y-64492836D01*
X164390578Y-64486811D01*
X164217128Y-64146397D01*
X164213831Y-64140687D01*
X164005747Y-63820265D01*
X164001877Y-63814939D01*
X163808522Y-63576165D01*
X163796267Y-63567700D01*
X163785176Y-63574034D01*
X161372022Y-65987188D01*
X161364408Y-66001132D01*
X160634356Y-66001132D01*
X160635592Y-65998868D01*
X160635461Y-65997035D01*
X160631210Y-65990420D01*
X158215690Y-63574900D01*
X158202614Y-63567759D01*
X158192247Y-63575216D01*
X157998123Y-63814939D01*
X157994253Y-63820265D01*
X157786169Y-64140687D01*
X157782872Y-64146397D01*
X157609422Y-64486811D01*
X157606740Y-64492836D01*
X157469829Y-64849502D01*
X157467788Y-64855784D01*
X157368906Y-65224816D01*
X157367535Y-65231266D01*
X157307766Y-65608629D01*
X157307080Y-65615167D01*
X157287084Y-65996699D01*
X157287084Y-66003301D01*
X147390206Y-66003301D01*
X147354860Y-65935692D01*
X147317960Y-65865110D01*
X147194032Y-65710975D01*
X147042526Y-65583846D01*
X147037128Y-65580879D01*
X147037123Y-65580875D01*
X146874608Y-65491533D01*
X146874609Y-65491533D01*
X146869213Y-65488567D01*
X146863346Y-65486706D01*
X146863344Y-65486705D01*
X146686564Y-65430627D01*
X146686563Y-65430627D01*
X146680694Y-65428765D01*
X146526773Y-65411500D01*
X144608586Y-65411500D01*
X144555338Y-65399695D01*
X144548965Y-65396723D01*
X144542738Y-65392885D01*
X144382254Y-65339655D01*
X144381389Y-65339368D01*
X144381387Y-65339368D01*
X144374861Y-65337203D01*
X144368025Y-65336503D01*
X144368022Y-65336502D01*
X144324969Y-65332091D01*
X144270400Y-65326500D01*
X143369600Y-65326500D01*
X143366354Y-65326837D01*
X143366350Y-65326837D01*
X143270692Y-65336762D01*
X143270688Y-65336763D01*
X143263834Y-65337474D01*
X143257298Y-65339655D01*
X143257296Y-65339655D01*
X143125194Y-65383728D01*
X143096054Y-65393450D01*
X142945652Y-65486522D01*
X142820695Y-65611697D01*
X142816855Y-65617927D01*
X142816854Y-65617928D01*
X142755352Y-65717703D01*
X142727885Y-65762262D01*
X142672203Y-65930139D01*
X142671503Y-65936975D01*
X142671502Y-65936978D01*
X142670746Y-65944360D01*
X142661500Y-66034600D01*
X142661500Y-67385400D01*
X142661837Y-67388646D01*
X142661837Y-67388650D01*
X142664476Y-67414080D01*
X142672474Y-67491166D01*
X142728450Y-67658946D01*
X142821522Y-67809348D01*
X142946697Y-67934305D01*
X142952927Y-67938145D01*
X142952928Y-67938146D01*
X143090090Y-68022694D01*
X143097262Y-68027115D01*
X143104209Y-68029419D01*
X143110844Y-68032513D01*
X143109801Y-68034749D01*
X143158538Y-68068523D01*
X143185766Y-68134091D01*
X143186500Y-68147672D01*
X143186500Y-68181233D01*
X143185973Y-68192416D01*
X143184298Y-68199909D01*
X143184547Y-68207835D01*
X143184547Y-68207836D01*
X143186438Y-68267986D01*
X143186500Y-68271945D01*
X143186500Y-68299856D01*
X143186997Y-68303790D01*
X143186997Y-68303791D01*
X143187005Y-68303856D01*
X143187938Y-68315693D01*
X143189327Y-68359889D01*
X143194978Y-68379339D01*
X143198987Y-68398700D01*
X143201526Y-68418797D01*
X143204445Y-68426168D01*
X143204445Y-68426170D01*
X143217804Y-68459912D01*
X143221649Y-68471142D01*
X143233982Y-68513593D01*
X143238015Y-68520412D01*
X143238017Y-68520417D01*
X143244293Y-68531028D01*
X143252988Y-68548776D01*
X143260448Y-68567617D01*
X143265110Y-68574033D01*
X143265110Y-68574034D01*
X143286436Y-68603387D01*
X143292952Y-68613307D01*
X143309390Y-68641101D01*
X143315458Y-68651362D01*
X143322878Y-68658782D01*
X143323843Y-68660549D01*
X143325921Y-68663228D01*
X143325489Y-68663563D01*
X143356904Y-68721094D01*
X143359092Y-68734703D01*
X143376458Y-68899928D01*
X143378497Y-68906203D01*
X143378498Y-68906206D01*
X143397681Y-68965246D01*
X143399708Y-69036214D01*
X143363046Y-69097012D01*
X143299334Y-69128337D01*
X143263805Y-69129397D01*
X143254349Y-69128337D01*
X143242253Y-69126980D01*
X143238725Y-69126980D01*
X143237741Y-69126925D01*
X143232061Y-69126478D01*
X143202655Y-69123491D01*
X143195143Y-69122728D01*
X143195141Y-69122728D01*
X143189018Y-69122106D01*
X143146739Y-69126103D01*
X143143371Y-69126421D01*
X143131513Y-69126980D01*
X141263192Y-69126980D01*
X141195071Y-69106978D01*
X141148578Y-69053322D01*
X141138474Y-68983048D01*
X141143359Y-68962043D01*
X141161503Y-68906203D01*
X141163542Y-68899928D01*
X141174320Y-68797386D01*
X141181220Y-68731731D01*
X141208233Y-68666075D01*
X141214679Y-68658650D01*
X141231159Y-68641101D01*
X141231162Y-68641097D01*
X141236586Y-68635321D01*
X141240405Y-68628375D01*
X141240407Y-68628372D01*
X141246348Y-68617566D01*
X141257199Y-68601047D01*
X141264758Y-68591301D01*
X141269614Y-68585041D01*
X141272759Y-68577772D01*
X141272762Y-68577768D01*
X141287174Y-68544463D01*
X141292391Y-68533813D01*
X141313695Y-68495060D01*
X141318733Y-68475437D01*
X141325137Y-68456734D01*
X141330033Y-68445420D01*
X141330033Y-68445419D01*
X141333181Y-68438145D01*
X141334420Y-68430322D01*
X141334423Y-68430312D01*
X141340099Y-68394476D01*
X141342505Y-68382856D01*
X141351528Y-68347711D01*
X141351528Y-68347710D01*
X141353500Y-68340030D01*
X141353500Y-68319776D01*
X141355051Y-68300065D01*
X141356980Y-68287886D01*
X141358220Y-68280057D01*
X141354059Y-68236038D01*
X141353500Y-68224181D01*
X141353500Y-68147516D01*
X141373502Y-68079395D01*
X141427158Y-68032902D01*
X141434874Y-68029863D01*
X141436997Y-68028868D01*
X141443946Y-68026550D01*
X141594348Y-67933478D01*
X141719305Y-67808303D01*
X141723146Y-67802072D01*
X141808275Y-67663968D01*
X141808276Y-67663966D01*
X141812115Y-67657738D01*
X141859514Y-67514833D01*
X141865632Y-67496389D01*
X141865632Y-67496387D01*
X141867797Y-67489861D01*
X141878500Y-67385400D01*
X141878500Y-66034600D01*
X141878163Y-66031350D01*
X141868238Y-65935692D01*
X141868237Y-65935688D01*
X141867526Y-65928834D01*
X141830224Y-65817025D01*
X141813868Y-65768002D01*
X141811550Y-65761054D01*
X141718478Y-65610652D01*
X141593303Y-65485695D01*
X141453786Y-65399695D01*
X141448968Y-65396725D01*
X141448966Y-65396724D01*
X141442738Y-65392885D01*
X141282254Y-65339655D01*
X141281389Y-65339368D01*
X141281387Y-65339368D01*
X141274861Y-65337203D01*
X141268025Y-65336503D01*
X141268022Y-65336502D01*
X141224969Y-65332091D01*
X141170400Y-65326500D01*
X140269600Y-65326500D01*
X140266354Y-65326837D01*
X140266350Y-65326837D01*
X140170692Y-65336762D01*
X140170688Y-65336763D01*
X140163834Y-65337474D01*
X140157298Y-65339655D01*
X140157296Y-65339655D01*
X140025194Y-65383728D01*
X139996054Y-65393450D01*
X139845652Y-65486522D01*
X139720695Y-65611697D01*
X139716855Y-65617927D01*
X139702251Y-65641618D01*
X139649478Y-65689110D01*
X139594992Y-65701500D01*
X112081840Y-65701500D01*
X112068232Y-65700763D01*
X112036736Y-65697341D01*
X112036732Y-65697341D01*
X112030611Y-65696676D01*
X112012611Y-65698251D01*
X111980609Y-65701050D01*
X111975784Y-65701379D01*
X111973313Y-65701500D01*
X111970231Y-65701500D01*
X111947763Y-65703703D01*
X111927489Y-65705691D01*
X111926174Y-65705813D01*
X111893913Y-65708636D01*
X111833587Y-65713913D01*
X111828468Y-65715400D01*
X111823167Y-65715920D01*
X111734194Y-65742782D01*
X111733054Y-65743120D01*
X111643663Y-65769091D01*
X111638929Y-65771545D01*
X111633831Y-65773084D01*
X111628387Y-65775978D01*
X111628386Y-65775979D01*
X111551831Y-65816684D01*
X111550663Y-65817298D01*
X111468074Y-65860108D01*
X111463911Y-65863431D01*
X111459204Y-65865934D01*
X111387082Y-65924755D01*
X111386226Y-65925446D01*
X111347027Y-65956738D01*
X111344523Y-65959242D01*
X111343805Y-65959884D01*
X111339472Y-65963585D01*
X111305938Y-65990935D01*
X111302011Y-65995682D01*
X111302009Y-65995684D01*
X111276713Y-66026262D01*
X111268723Y-66035042D01*
X86819171Y-90484595D01*
X86756859Y-90518621D01*
X86730076Y-90521500D01*
X85951866Y-90521500D01*
X85889684Y-90528255D01*
X85753295Y-90579385D01*
X85636739Y-90666739D01*
X85549385Y-90783295D01*
X85498255Y-90919684D01*
X85491500Y-90981866D01*
X85491500Y-92778134D01*
X85498255Y-92840316D01*
X85549385Y-92976705D01*
X85636739Y-93093261D01*
X85753295Y-93180615D01*
X85761704Y-93183767D01*
X85761705Y-93183768D01*
X85870451Y-93224535D01*
X85927216Y-93267176D01*
X85951916Y-93333738D01*
X85936709Y-93403087D01*
X85917316Y-93429568D01*
X85823178Y-93528078D01*
X85790629Y-93562138D01*
X85787715Y-93566410D01*
X85787714Y-93566411D01*
X85702556Y-93691249D01*
X85664743Y-93746680D01*
X85646664Y-93785628D01*
X85573920Y-93942343D01*
X85570688Y-93949305D01*
X85510989Y-94164570D01*
X85487251Y-94386695D01*
X85500110Y-94609715D01*
X85501247Y-94614761D01*
X85501248Y-94614767D01*
X85525304Y-94721508D01*
X85549222Y-94827639D01*
X85633266Y-95034616D01*
X85635965Y-95039020D01*
X85725459Y-95185061D01*
X85749987Y-95225088D01*
X85896250Y-95393938D01*
X86068126Y-95536632D01*
X86261000Y-95649338D01*
X86469692Y-95729030D01*
X86474760Y-95730061D01*
X86474763Y-95730062D01*
X86582017Y-95751883D01*
X86688597Y-95773567D01*
X86693772Y-95773757D01*
X86693774Y-95773757D01*
X86906673Y-95781564D01*
X86906677Y-95781564D01*
X86911837Y-95781753D01*
X86916957Y-95781097D01*
X86916959Y-95781097D01*
X87128288Y-95754025D01*
X87128289Y-95754025D01*
X87133416Y-95753368D01*
X87138366Y-95751883D01*
X87342429Y-95690661D01*
X87342434Y-95690659D01*
X87347384Y-95689174D01*
X87547994Y-95590896D01*
X87729860Y-95461173D01*
X87732886Y-95458157D01*
X87797588Y-95429570D01*
X87813976Y-95428500D01*
X88432393Y-95428500D01*
X88500514Y-95448502D01*
X88512877Y-95457555D01*
X88608126Y-95536632D01*
X88801000Y-95649338D01*
X89009692Y-95729030D01*
X89014760Y-95730061D01*
X89014763Y-95730062D01*
X89122017Y-95751883D01*
X89228597Y-95773567D01*
X89233772Y-95773757D01*
X89233774Y-95773757D01*
X89446673Y-95781564D01*
X89446677Y-95781564D01*
X89451837Y-95781753D01*
X89456957Y-95781097D01*
X89456959Y-95781097D01*
X89668288Y-95754025D01*
X89668289Y-95754025D01*
X89673416Y-95753368D01*
X89678366Y-95751883D01*
X89882429Y-95690661D01*
X89882434Y-95690659D01*
X89887384Y-95689174D01*
X90087994Y-95590896D01*
X90269860Y-95461173D01*
X90272886Y-95458157D01*
X90337588Y-95429570D01*
X90353976Y-95428500D01*
X90972393Y-95428500D01*
X91040514Y-95448502D01*
X91052877Y-95457555D01*
X91148126Y-95536632D01*
X91341000Y-95649338D01*
X91549692Y-95729030D01*
X91554760Y-95730061D01*
X91554763Y-95730062D01*
X91662017Y-95751883D01*
X91768597Y-95773567D01*
X91773772Y-95773757D01*
X91773774Y-95773757D01*
X91986673Y-95781564D01*
X91986677Y-95781564D01*
X91991837Y-95781753D01*
X91996957Y-95781097D01*
X91996959Y-95781097D01*
X92208288Y-95754025D01*
X92208289Y-95754025D01*
X92213416Y-95753368D01*
X92218366Y-95751883D01*
X92422429Y-95690661D01*
X92422434Y-95690659D01*
X92427384Y-95689174D01*
X92627994Y-95590896D01*
X92809860Y-95461173D01*
X92812886Y-95458157D01*
X92877588Y-95429570D01*
X92893976Y-95428500D01*
X93512393Y-95428500D01*
X93580514Y-95448502D01*
X93592877Y-95457555D01*
X93688126Y-95536632D01*
X93881000Y-95649338D01*
X94089692Y-95729030D01*
X94094760Y-95730061D01*
X94094763Y-95730062D01*
X94202017Y-95751883D01*
X94308597Y-95773567D01*
X94313772Y-95773757D01*
X94313774Y-95773757D01*
X94526673Y-95781564D01*
X94526677Y-95781564D01*
X94531837Y-95781753D01*
X94536957Y-95781097D01*
X94536959Y-95781097D01*
X94748288Y-95754025D01*
X94748289Y-95754025D01*
X94753416Y-95753368D01*
X94758366Y-95751883D01*
X94962429Y-95690661D01*
X94962434Y-95690659D01*
X94967384Y-95689174D01*
X95167994Y-95590896D01*
X95262331Y-95523606D01*
X95329405Y-95500332D01*
X95398414Y-95517016D01*
X95447448Y-95568360D01*
X95461500Y-95626185D01*
X95461500Y-100950075D01*
X95441498Y-101018196D01*
X95424595Y-101039170D01*
X94089171Y-102374595D01*
X94026859Y-102408620D01*
X94000076Y-102411500D01*
X88181840Y-102411500D01*
X88168232Y-102410763D01*
X88136736Y-102407341D01*
X88136732Y-102407341D01*
X88130611Y-102406676D01*
X88112611Y-102408251D01*
X88080609Y-102411050D01*
X88075784Y-102411379D01*
X88073313Y-102411500D01*
X88070231Y-102411500D01*
X88047763Y-102413703D01*
X88027489Y-102415691D01*
X88026174Y-102415813D01*
X87993913Y-102418636D01*
X87933587Y-102423913D01*
X87928468Y-102425400D01*
X87923167Y-102425920D01*
X87917262Y-102427703D01*
X87917261Y-102427703D01*
X87897907Y-102433546D01*
X87834194Y-102452782D01*
X87833054Y-102453120D01*
X87743663Y-102479091D01*
X87738929Y-102481545D01*
X87733831Y-102483084D01*
X87728387Y-102485978D01*
X87728386Y-102485979D01*
X87651831Y-102526684D01*
X87650663Y-102527298D01*
X87568074Y-102570108D01*
X87563911Y-102573431D01*
X87559204Y-102575934D01*
X87554430Y-102579828D01*
X87554428Y-102579829D01*
X87487105Y-102634737D01*
X87486160Y-102635500D01*
X87447027Y-102666739D01*
X87444536Y-102669230D01*
X87443809Y-102669880D01*
X87439463Y-102673592D01*
X87420588Y-102688987D01*
X87405938Y-102700935D01*
X87402015Y-102705677D01*
X87402013Y-102705679D01*
X87376703Y-102736273D01*
X87368713Y-102745053D01*
X85800621Y-104313145D01*
X85790478Y-104322247D01*
X85760975Y-104345968D01*
X85729968Y-104382921D01*
X85728709Y-104384421D01*
X85725528Y-104388069D01*
X85723885Y-104389881D01*
X85721691Y-104392075D01*
X85694358Y-104425349D01*
X85693696Y-104426147D01*
X85633846Y-104497474D01*
X85631278Y-104502144D01*
X85627897Y-104506261D01*
X85610081Y-104539488D01*
X85584023Y-104588086D01*
X85583394Y-104589245D01*
X85541538Y-104665381D01*
X85541535Y-104665389D01*
X85538567Y-104670787D01*
X85536955Y-104675869D01*
X85534438Y-104680563D01*
X85507238Y-104769531D01*
X85506918Y-104770559D01*
X85478765Y-104859306D01*
X85478171Y-104864602D01*
X85476613Y-104869698D01*
X85467336Y-104961028D01*
X85467218Y-104962187D01*
X85467089Y-104963393D01*
X85461500Y-105013227D01*
X85461500Y-105016754D01*
X85461445Y-105017739D01*
X85460998Y-105023419D01*
X85456626Y-105066462D01*
X85457206Y-105072598D01*
X85458050Y-105081533D01*
X85444546Y-105151234D01*
X85435822Y-105165659D01*
X85335634Y-105308742D01*
X85335633Y-105308744D01*
X85332477Y-105313251D01*
X85330154Y-105318233D01*
X85330151Y-105318238D01*
X85289576Y-105405253D01*
X85235716Y-105520757D01*
X85176457Y-105741913D01*
X85161500Y-105912873D01*
X85161500Y-106927127D01*
X74478000Y-106927127D01*
X74478000Y-95797386D01*
X76567759Y-95797386D01*
X76575216Y-95807753D01*
X76814935Y-96001874D01*
X76820272Y-96005751D01*
X77140685Y-96213830D01*
X77146394Y-96217127D01*
X77486811Y-96390578D01*
X77492836Y-96393260D01*
X77849502Y-96530171D01*
X77855784Y-96532212D01*
X78224816Y-96631094D01*
X78231266Y-96632465D01*
X78608629Y-96692234D01*
X78615167Y-96692920D01*
X78996699Y-96712916D01*
X79003301Y-96712916D01*
X79384833Y-96692920D01*
X79391371Y-96692234D01*
X79768734Y-96632465D01*
X79775184Y-96631094D01*
X80144216Y-96532212D01*
X80150498Y-96530171D01*
X80507164Y-96393260D01*
X80513189Y-96390578D01*
X80853606Y-96217127D01*
X80859315Y-96213830D01*
X81179728Y-96005751D01*
X81185065Y-96001874D01*
X81423835Y-95808522D01*
X81432300Y-95796267D01*
X81425966Y-95785176D01*
X79012812Y-93372022D01*
X78998868Y-93364408D01*
X78997035Y-93364539D01*
X78990420Y-93368790D01*
X76574900Y-95784310D01*
X76567759Y-95797386D01*
X74478000Y-95797386D01*
X74478000Y-93003301D01*
X75287084Y-93003301D01*
X75307080Y-93384833D01*
X75307766Y-93391371D01*
X75367535Y-93768734D01*
X75368906Y-93775184D01*
X75467788Y-94144216D01*
X75469829Y-94150498D01*
X75606740Y-94507164D01*
X75609422Y-94513189D01*
X75782872Y-94853603D01*
X75786169Y-94859313D01*
X75994253Y-95179735D01*
X75998123Y-95185061D01*
X76191478Y-95423835D01*
X76203733Y-95432300D01*
X76214824Y-95425966D01*
X78627978Y-93012812D01*
X78634356Y-93001132D01*
X79364408Y-93001132D01*
X79364539Y-93002965D01*
X79368790Y-93009580D01*
X81784310Y-95425100D01*
X81797386Y-95432241D01*
X81807753Y-95424784D01*
X82001877Y-95185061D01*
X82005747Y-95179735D01*
X82213831Y-94859313D01*
X82217128Y-94853603D01*
X82390578Y-94513189D01*
X82393260Y-94507164D01*
X82530171Y-94150498D01*
X82532212Y-94144216D01*
X82631094Y-93775184D01*
X82632465Y-93768734D01*
X82692234Y-93391371D01*
X82692920Y-93384833D01*
X82712916Y-93003301D01*
X82712916Y-92996699D01*
X82692920Y-92615167D01*
X82692234Y-92608629D01*
X82632465Y-92231266D01*
X82631094Y-92224816D01*
X82532212Y-91855784D01*
X82530171Y-91849502D01*
X82393260Y-91492836D01*
X82390578Y-91486811D01*
X82217128Y-91146397D01*
X82213831Y-91140687D01*
X82005747Y-90820265D01*
X82001877Y-90814939D01*
X81808522Y-90576165D01*
X81796267Y-90567700D01*
X81785176Y-90574034D01*
X79372022Y-92987188D01*
X79364408Y-93001132D01*
X78634356Y-93001132D01*
X78635592Y-92998868D01*
X78635461Y-92997035D01*
X78631210Y-92990420D01*
X76215690Y-90574900D01*
X76202614Y-90567759D01*
X76192247Y-90575216D01*
X75998123Y-90814939D01*
X75994253Y-90820265D01*
X75786169Y-91140687D01*
X75782872Y-91146397D01*
X75609422Y-91486811D01*
X75606740Y-91492836D01*
X75469829Y-91849502D01*
X75467788Y-91855784D01*
X75368906Y-92224816D01*
X75367535Y-92231266D01*
X75307766Y-92608629D01*
X75307080Y-92615167D01*
X75287084Y-92996699D01*
X75287084Y-93003301D01*
X74478000Y-93003301D01*
X74478000Y-90203733D01*
X76567700Y-90203733D01*
X76574034Y-90214824D01*
X78987188Y-92627978D01*
X79001132Y-92635592D01*
X79002965Y-92635461D01*
X79009580Y-92631210D01*
X81425100Y-90215690D01*
X81432241Y-90202614D01*
X81424784Y-90192247D01*
X81185065Y-89998126D01*
X81179728Y-89994249D01*
X80859315Y-89786170D01*
X80853606Y-89782873D01*
X80513189Y-89609422D01*
X80507164Y-89606740D01*
X80150498Y-89469829D01*
X80144216Y-89467788D01*
X79775184Y-89368906D01*
X79768734Y-89367535D01*
X79391371Y-89307766D01*
X79384833Y-89307080D01*
X79003301Y-89287084D01*
X78996699Y-89287084D01*
X78615167Y-89307080D01*
X78608629Y-89307766D01*
X78231266Y-89367535D01*
X78224816Y-89368906D01*
X77855784Y-89467788D01*
X77849502Y-89469829D01*
X77492836Y-89606740D01*
X77486811Y-89609422D01*
X77146397Y-89782872D01*
X77140687Y-89786169D01*
X76820265Y-89994253D01*
X76814939Y-89998123D01*
X76576165Y-90191478D01*
X76567700Y-90203733D01*
X74478000Y-90203733D01*
X74478000Y-68797386D01*
X76567759Y-68797386D01*
X76575216Y-68807753D01*
X76814935Y-69001874D01*
X76820272Y-69005751D01*
X77140685Y-69213830D01*
X77146394Y-69217127D01*
X77486811Y-69390578D01*
X77492836Y-69393260D01*
X77849502Y-69530171D01*
X77855784Y-69532212D01*
X78224816Y-69631094D01*
X78231266Y-69632465D01*
X78608629Y-69692234D01*
X78615167Y-69692920D01*
X78996699Y-69712916D01*
X79003301Y-69712916D01*
X79384833Y-69692920D01*
X79391371Y-69692234D01*
X79768734Y-69632465D01*
X79775184Y-69631094D01*
X80144216Y-69532212D01*
X80150498Y-69530171D01*
X80507164Y-69393260D01*
X80513189Y-69390578D01*
X80853606Y-69217127D01*
X80859315Y-69213830D01*
X81179728Y-69005751D01*
X81185065Y-69001874D01*
X81423835Y-68808522D01*
X81432300Y-68796267D01*
X81425966Y-68785176D01*
X79012812Y-66372022D01*
X78998868Y-66364408D01*
X78997035Y-66364539D01*
X78990420Y-66368790D01*
X76574900Y-68784310D01*
X76567759Y-68797386D01*
X74478000Y-68797386D01*
X74478000Y-66003301D01*
X75287084Y-66003301D01*
X75307080Y-66384833D01*
X75307766Y-66391371D01*
X75367535Y-66768734D01*
X75368906Y-66775184D01*
X75467788Y-67144216D01*
X75469829Y-67150498D01*
X75606740Y-67507164D01*
X75609422Y-67513189D01*
X75782872Y-67853603D01*
X75786169Y-67859313D01*
X75994253Y-68179735D01*
X75998123Y-68185061D01*
X76191478Y-68423835D01*
X76203733Y-68432300D01*
X76214824Y-68425966D01*
X78627978Y-66012812D01*
X78634356Y-66001132D01*
X79364408Y-66001132D01*
X79364539Y-66002965D01*
X79368790Y-66009580D01*
X81784310Y-68425100D01*
X81797386Y-68432241D01*
X81807753Y-68424784D01*
X82001877Y-68185061D01*
X82005747Y-68179735D01*
X82213831Y-67859313D01*
X82217128Y-67853603D01*
X82390578Y-67513189D01*
X82393260Y-67507164D01*
X82530171Y-67150498D01*
X82532212Y-67144216D01*
X82631094Y-66775184D01*
X82632465Y-66768734D01*
X82692234Y-66391371D01*
X82692920Y-66384833D01*
X82712916Y-66003301D01*
X82712916Y-65996699D01*
X82692920Y-65615167D01*
X82692234Y-65608629D01*
X82632465Y-65231266D01*
X82631094Y-65224816D01*
X82532212Y-64855784D01*
X82530171Y-64849502D01*
X82393260Y-64492836D01*
X82390578Y-64486811D01*
X82217128Y-64146397D01*
X82213831Y-64140687D01*
X82005747Y-63820265D01*
X82001877Y-63814939D01*
X81808522Y-63576165D01*
X81796267Y-63567700D01*
X81785176Y-63574034D01*
X79372022Y-65987188D01*
X79364408Y-66001132D01*
X78634356Y-66001132D01*
X78635592Y-65998868D01*
X78635461Y-65997035D01*
X78631210Y-65990420D01*
X76215690Y-63574900D01*
X76202614Y-63567759D01*
X76192247Y-63575216D01*
X75998123Y-63814939D01*
X75994253Y-63820265D01*
X75786169Y-64140687D01*
X75782872Y-64146397D01*
X75609422Y-64486811D01*
X75606740Y-64492836D01*
X75469829Y-64849502D01*
X75467788Y-64855784D01*
X75368906Y-65224816D01*
X75367535Y-65231266D01*
X75307766Y-65608629D01*
X75307080Y-65615167D01*
X75287084Y-65996699D01*
X75287084Y-66003301D01*
X74478000Y-66003301D01*
X74478000Y-63973207D01*
X74479746Y-63952303D01*
X74482264Y-63937335D01*
X74483071Y-63932539D01*
X74483224Y-63920000D01*
X74481502Y-63907975D01*
X74480499Y-63881871D01*
X74494502Y-63668234D01*
X74496653Y-63651894D01*
X74544265Y-63412530D01*
X74548529Y-63396617D01*
X74614004Y-63203733D01*
X76567700Y-63203733D01*
X76574034Y-63214824D01*
X78987188Y-65627978D01*
X79001132Y-65635592D01*
X79002965Y-65635461D01*
X79009580Y-65631210D01*
X81425100Y-63215690D01*
X81431630Y-63203733D01*
X158567700Y-63203733D01*
X158574034Y-63214824D01*
X160987188Y-65627978D01*
X161001132Y-65635592D01*
X161002965Y-65635461D01*
X161009580Y-65631210D01*
X163425100Y-63215690D01*
X163432241Y-63202614D01*
X163424784Y-63192247D01*
X163185065Y-62998126D01*
X163179728Y-62994249D01*
X162859315Y-62786170D01*
X162853606Y-62782873D01*
X162513189Y-62609422D01*
X162507164Y-62606740D01*
X162150498Y-62469829D01*
X162144216Y-62467788D01*
X161775184Y-62368906D01*
X161768734Y-62367535D01*
X161391371Y-62307766D01*
X161384833Y-62307080D01*
X161003301Y-62287084D01*
X160996699Y-62287084D01*
X160615167Y-62307080D01*
X160608629Y-62307766D01*
X160231266Y-62367535D01*
X160224816Y-62368906D01*
X159855784Y-62467788D01*
X159849502Y-62469829D01*
X159492836Y-62606740D01*
X159486811Y-62609422D01*
X159146397Y-62782872D01*
X159140687Y-62786169D01*
X158820265Y-62994253D01*
X158814939Y-62998123D01*
X158576165Y-63191478D01*
X158567700Y-63203733D01*
X81431630Y-63203733D01*
X81432241Y-63202614D01*
X81424784Y-63192247D01*
X81185065Y-62998126D01*
X81179728Y-62994249D01*
X80859315Y-62786170D01*
X80853606Y-62782873D01*
X80513189Y-62609422D01*
X80507164Y-62606740D01*
X80150498Y-62469829D01*
X80144216Y-62467788D01*
X79775184Y-62368906D01*
X79768734Y-62367535D01*
X79391371Y-62307766D01*
X79384833Y-62307080D01*
X79003301Y-62287084D01*
X78996699Y-62287084D01*
X78615167Y-62307080D01*
X78608629Y-62307766D01*
X78231266Y-62367535D01*
X78224816Y-62368906D01*
X77855784Y-62467788D01*
X77849502Y-62469829D01*
X77492836Y-62606740D01*
X77486811Y-62609422D01*
X77146397Y-62782872D01*
X77140687Y-62786169D01*
X76820265Y-62994253D01*
X76814939Y-62998123D01*
X76576165Y-63191478D01*
X76567700Y-63203733D01*
X74614004Y-63203733D01*
X74626978Y-63165514D01*
X74633284Y-63150290D01*
X74741224Y-62931408D01*
X74749465Y-62917134D01*
X74885050Y-62714217D01*
X74895083Y-62701142D01*
X75055998Y-62517653D01*
X75067653Y-62505998D01*
X75251142Y-62345083D01*
X75264217Y-62335050D01*
X75467134Y-62199465D01*
X75481408Y-62191224D01*
X75700290Y-62083284D01*
X75715516Y-62076977D01*
X75946617Y-61998529D01*
X75962527Y-61994266D01*
X76082212Y-61970459D01*
X76201894Y-61946653D01*
X76218234Y-61944502D01*
X76428268Y-61930736D01*
X76451304Y-61931761D01*
X76454854Y-61931804D01*
X76463730Y-61933186D01*
X76495252Y-61929064D01*
X76511589Y-61928000D01*
X162920672Y-61928000D01*
X162940057Y-61929500D01*
G37*
%TD.AperFunction*%
%TA.AperFunction,Conductor*%
G36*
X139663222Y-77738502D02*
G01*
X139702245Y-77778197D01*
X139721522Y-77809348D01*
X139846697Y-77934305D01*
X139852927Y-77938145D01*
X139852928Y-77938146D01*
X139990090Y-78022694D01*
X139997262Y-78027115D01*
X140077005Y-78053564D01*
X140158611Y-78080632D01*
X140158613Y-78080632D01*
X140165139Y-78082797D01*
X140171975Y-78083497D01*
X140171978Y-78083498D01*
X140215031Y-78087909D01*
X140269600Y-78093500D01*
X140450875Y-78093500D01*
X140518996Y-78113502D01*
X140565489Y-78167158D01*
X140576185Y-78232670D01*
X140556496Y-78420000D01*
X140576458Y-78609928D01*
X140635473Y-78791556D01*
X140638776Y-78797278D01*
X140638777Y-78797279D01*
X140720011Y-78937980D01*
X140736749Y-79006975D01*
X140713529Y-79074067D01*
X140657722Y-79117954D01*
X140610892Y-79126980D01*
X139988539Y-79126980D01*
X139974932Y-79126243D01*
X139943434Y-79122821D01*
X139943429Y-79122821D01*
X139937308Y-79122156D01*
X139911058Y-79124453D01*
X139887308Y-79126530D01*
X139882482Y-79126859D01*
X139880010Y-79126980D01*
X139876927Y-79126980D01*
X139864958Y-79128154D01*
X139834190Y-79131170D01*
X139832877Y-79131292D01*
X139788612Y-79135165D01*
X139740283Y-79139393D01*
X139735164Y-79140880D01*
X139729863Y-79141400D01*
X139640862Y-79168271D01*
X139639729Y-79168606D01*
X139556282Y-79192850D01*
X139556278Y-79192852D01*
X139550360Y-79194571D01*
X139545628Y-79197024D01*
X139540527Y-79198564D01*
X139535084Y-79201458D01*
X139458436Y-79242211D01*
X139457270Y-79242823D01*
X139380243Y-79282751D01*
X139374770Y-79285588D01*
X139370607Y-79288911D01*
X139365900Y-79291414D01*
X139293778Y-79350235D01*
X139292922Y-79350926D01*
X139253723Y-79382218D01*
X139253722Y-79382219D01*
X139253049Y-79381376D01*
X139193014Y-79409925D01*
X139173153Y-79411500D01*
X135420231Y-79411500D01*
X135417175Y-79411800D01*
X135417168Y-79411800D01*
X135358660Y-79417537D01*
X135273167Y-79425920D01*
X135267266Y-79427702D01*
X135267264Y-79427702D01*
X135193947Y-79449838D01*
X135083831Y-79483084D01*
X134909204Y-79575934D01*
X134822938Y-79646291D01*
X134760713Y-79697040D01*
X134760710Y-79697043D01*
X134755938Y-79700935D01*
X134752011Y-79705682D01*
X134752009Y-79705684D01*
X134633799Y-79848575D01*
X134633797Y-79848579D01*
X134629870Y-79853325D01*
X134535802Y-80027299D01*
X134477318Y-80216232D01*
X134476674Y-80222357D01*
X134476674Y-80222358D01*
X134458348Y-80396725D01*
X134456645Y-80412925D01*
X134457204Y-80419065D01*
X134470401Y-80564080D01*
X134456656Y-80633734D01*
X134407434Y-80684898D01*
X134344920Y-80701500D01*
X104838924Y-80701500D01*
X104770803Y-80681498D01*
X104724310Y-80627842D01*
X104714206Y-80557568D01*
X104743700Y-80492988D01*
X104749829Y-80486405D01*
X107480829Y-77755405D01*
X107543141Y-77721379D01*
X107569924Y-77718500D01*
X139595101Y-77718500D01*
X139663222Y-77738502D01*
G37*
%TD.AperFunction*%
%TA.AperFunction,Conductor*%
G36*
X139663222Y-72738502D02*
G01*
X139702245Y-72778197D01*
X139721522Y-72809348D01*
X139726710Y-72814527D01*
X139729205Y-72817675D01*
X139755843Y-72883485D01*
X139742673Y-72953249D01*
X139704521Y-72997877D01*
X139658747Y-73031134D01*
X139530960Y-73173056D01*
X139435473Y-73338444D01*
X139376458Y-73520072D01*
X139375768Y-73526633D01*
X139375768Y-73526635D01*
X139360417Y-73672697D01*
X139356496Y-73710000D01*
X139376458Y-73899928D01*
X139378497Y-73906203D01*
X139396641Y-73962043D01*
X139398669Y-74033011D01*
X139362006Y-74093809D01*
X139298294Y-74125134D01*
X139276808Y-74126980D01*
X137816363Y-74126980D01*
X137802756Y-74126243D01*
X137771258Y-74122821D01*
X137771253Y-74122821D01*
X137765132Y-74122156D01*
X137738882Y-74124453D01*
X137715132Y-74126530D01*
X137710306Y-74126859D01*
X137707834Y-74126980D01*
X137704751Y-74126980D01*
X137692782Y-74128154D01*
X137662014Y-74131170D01*
X137660701Y-74131292D01*
X137616436Y-74135165D01*
X137568107Y-74139393D01*
X137562988Y-74140880D01*
X137557687Y-74141400D01*
X137468686Y-74168271D01*
X137467553Y-74168606D01*
X137384106Y-74192850D01*
X137384102Y-74192852D01*
X137378184Y-74194571D01*
X137373452Y-74197024D01*
X137368351Y-74198564D01*
X137362908Y-74201458D01*
X137286260Y-74242211D01*
X137285094Y-74242823D01*
X137267676Y-74251852D01*
X137202594Y-74285588D01*
X137198431Y-74288911D01*
X137193724Y-74291414D01*
X137121602Y-74350235D01*
X137120746Y-74350926D01*
X137081547Y-74382218D01*
X137079043Y-74384722D01*
X137078325Y-74385364D01*
X137073992Y-74389065D01*
X137040458Y-74416415D01*
X137011225Y-74451751D01*
X137003248Y-74460517D01*
X136723870Y-74739895D01*
X136723860Y-74739906D01*
X136721691Y-74742075D01*
X136627897Y-74856261D01*
X136534438Y-75030563D01*
X136513272Y-75099792D01*
X136478549Y-75213367D01*
X136476613Y-75219698D01*
X136475990Y-75225833D01*
X136458942Y-75393664D01*
X136456626Y-75416462D01*
X136463238Y-75486405D01*
X136470539Y-75563642D01*
X136457036Y-75633343D01*
X136407994Y-75684679D01*
X136345098Y-75701500D01*
X107298925Y-75701500D01*
X107230804Y-75681498D01*
X107184311Y-75627842D01*
X107174207Y-75557568D01*
X107203701Y-75492988D01*
X107209830Y-75486405D01*
X109940830Y-72755405D01*
X110003142Y-72721379D01*
X110029925Y-72718500D01*
X139595101Y-72718500D01*
X139663222Y-72738502D01*
G37*
%TD.AperFunction*%
%TA.AperFunction,Conductor*%
G36*
X139663222Y-67738502D02*
G01*
X139702245Y-67778197D01*
X139721522Y-67809348D01*
X139726710Y-67814527D01*
X139729205Y-67817675D01*
X139755843Y-67883485D01*
X139742673Y-67953249D01*
X139704521Y-67997877D01*
X139658747Y-68031134D01*
X139530960Y-68173056D01*
X139435473Y-68338444D01*
X139376458Y-68520072D01*
X139375768Y-68526633D01*
X139375768Y-68526635D01*
X139360417Y-68672697D01*
X139356496Y-68710000D01*
X139357186Y-68716565D01*
X139365681Y-68797386D01*
X139376458Y-68899928D01*
X139378497Y-68906203D01*
X139396641Y-68962043D01*
X139398669Y-69033011D01*
X139362006Y-69093809D01*
X139298294Y-69125134D01*
X139276808Y-69126980D01*
X138316363Y-69126980D01*
X138302756Y-69126243D01*
X138271258Y-69122821D01*
X138271253Y-69122821D01*
X138265132Y-69122156D01*
X138238882Y-69124453D01*
X138215132Y-69126530D01*
X138210306Y-69126859D01*
X138207834Y-69126980D01*
X138204751Y-69126980D01*
X138192782Y-69128154D01*
X138162014Y-69131170D01*
X138160701Y-69131292D01*
X138116436Y-69135165D01*
X138068107Y-69139393D01*
X138062988Y-69140880D01*
X138057687Y-69141400D01*
X137968686Y-69168271D01*
X137967553Y-69168606D01*
X137884106Y-69192850D01*
X137884102Y-69192852D01*
X137878184Y-69194571D01*
X137873452Y-69197024D01*
X137868351Y-69198564D01*
X137862908Y-69201458D01*
X137786260Y-69242211D01*
X137785094Y-69242823D01*
X137767676Y-69251852D01*
X137702594Y-69285588D01*
X137698431Y-69288911D01*
X137693724Y-69291414D01*
X137621602Y-69350235D01*
X137620746Y-69350926D01*
X137581547Y-69382218D01*
X137579043Y-69384722D01*
X137578325Y-69385364D01*
X137573992Y-69389065D01*
X137540458Y-69416415D01*
X137511225Y-69451751D01*
X137503248Y-69460517D01*
X137223870Y-69739895D01*
X137223860Y-69739906D01*
X137221691Y-69742075D01*
X137127897Y-69856261D01*
X137034438Y-70030563D01*
X137013272Y-70099792D01*
X136978549Y-70213367D01*
X136976613Y-70219698D01*
X136975990Y-70225833D01*
X136958942Y-70393664D01*
X136956626Y-70416462D01*
X136963238Y-70486405D01*
X136970539Y-70563642D01*
X136957036Y-70633343D01*
X136907994Y-70684679D01*
X136845098Y-70701500D01*
X109758924Y-70701500D01*
X109690803Y-70681498D01*
X109644310Y-70627842D01*
X109634206Y-70557568D01*
X109663700Y-70492988D01*
X109669829Y-70486405D01*
X112400829Y-67755405D01*
X112463141Y-67721379D01*
X112489924Y-67718500D01*
X139595101Y-67718500D01*
X139663222Y-67738502D01*
G37*
%TD.AperFunction*%
%TD*%
M02*
