%TF.GenerationSoftware,KiCad,Pcbnew,(6.0.0)*%
%TF.CreationDate,2022-09-15T20:56:53-04:00*%
%TF.ProjectId,Load_PCB_KiCAD,4c6f6164-5f50-4434-925f-4b694341442e,rev?*%
%TF.SameCoordinates,Original*%
%TF.FileFunction,Soldermask,Top*%
%TF.FilePolarity,Negative*%
%FSLAX46Y46*%
G04 Gerber Fmt 4.6, Leading zero omitted, Abs format (unit mm)*
G04 Created by KiCad (PCBNEW (6.0.0)) date 2022-09-15 20:56:53*
%MOMM*%
%LPD*%
G01*
G04 APERTURE LIST*
G04 Aperture macros list*
%AMRoundRect*
0 Rectangle with rounded corners*
0 $1 Rounding radius*
0 $2 $3 $4 $5 $6 $7 $8 $9 X,Y pos of 4 corners*
0 Add a 4 corners polygon primitive as box body*
4,1,4,$2,$3,$4,$5,$6,$7,$8,$9,$2,$3,0*
0 Add four circle primitives for the rounded corners*
1,1,$1+$1,$2,$3*
1,1,$1+$1,$4,$5*
1,1,$1+$1,$6,$7*
1,1,$1+$1,$8,$9*
0 Add four rect primitives between the rounded corners*
20,1,$1+$1,$2,$3,$4,$5,0*
20,1,$1+$1,$4,$5,$6,$7,0*
20,1,$1+$1,$6,$7,$8,$9,0*
20,1,$1+$1,$8,$9,$2,$3,0*%
G04 Aperture macros list end*
%ADD10C,6.400000*%
%ADD11O,1.600000X2.500000*%
%ADD12O,3.500000X7.000000*%
%ADD13RoundRect,0.250000X0.400000X0.625000X-0.400000X0.625000X-0.400000X-0.625000X0.400000X-0.625000X0*%
%ADD14R,1.700000X1.700000*%
%ADD15O,1.700000X1.700000*%
G04 APERTURE END LIST*
D10*
%TO.C,H4*%
X79000000Y-66000000D03*
%TD*%
%TO.C,H3*%
X79000000Y-93000000D03*
%TD*%
%TO.C,H2*%
X161000000Y-93000000D03*
%TD*%
%TO.C,H1*%
X161000000Y-66000000D03*
%TD*%
D11*
%TO.C,J3*%
X155685000Y-106420000D03*
X153145000Y-106420000D03*
D12*
X148065000Y-111500000D03*
X158225000Y-111500000D03*
%TD*%
D13*
%TO.C,R4*%
X143820000Y-66710000D03*
X140720000Y-66710000D03*
%TD*%
%TO.C,R3*%
X140720000Y-71710000D03*
X143820000Y-71710000D03*
%TD*%
%TO.C,R2*%
X140720000Y-76710000D03*
X143820000Y-76710000D03*
%TD*%
%TO.C,R1*%
X143820000Y-81710000D03*
X140720000Y-81710000D03*
%TD*%
D12*
%TO.C,J8*%
X91550000Y-111500000D03*
X81390000Y-111500000D03*
D11*
X86470000Y-106420000D03*
X89010000Y-106420000D03*
%TD*%
D14*
%TO.C,J7*%
X86850000Y-91880000D03*
D15*
X86850000Y-94420000D03*
X89390000Y-91880000D03*
X89390000Y-94420000D03*
X91930000Y-91880000D03*
X91930000Y-94420000D03*
X94470000Y-91880000D03*
X94470000Y-94420000D03*
%TD*%
D14*
%TO.C,J6*%
X138270000Y-94420000D03*
D15*
X138270000Y-91880000D03*
X135730000Y-94420000D03*
X135730000Y-91880000D03*
X133190000Y-94420000D03*
X133190000Y-91880000D03*
X130650000Y-94420000D03*
X130650000Y-91880000D03*
%TD*%
D12*
%TO.C,J5*%
X136000000Y-111500000D03*
X125840000Y-111500000D03*
D11*
X130920000Y-106420000D03*
X133460000Y-106420000D03*
%TD*%
D14*
%TO.C,J4*%
X153070000Y-94420000D03*
D15*
X153070000Y-91880000D03*
X150530000Y-94420000D03*
X150530000Y-91880000D03*
X147990000Y-94420000D03*
X147990000Y-91880000D03*
X145450000Y-94420000D03*
X145450000Y-91880000D03*
%TD*%
%TO.C,J2*%
X100850000Y-91880000D03*
X100850000Y-94420000D03*
X103390000Y-91880000D03*
X103390000Y-94420000D03*
X105930000Y-91880000D03*
X105930000Y-94420000D03*
X108470000Y-91880000D03*
D14*
X108470000Y-94420000D03*
%TD*%
D11*
%TO.C,J1*%
X111235000Y-106420000D03*
X108695000Y-106420000D03*
D12*
X103615000Y-111500000D03*
X113775000Y-111500000D03*
%TD*%
M02*
