%TF.GenerationSoftware,KiCad,Pcbnew,(6.0.0)*%
%TF.CreationDate,2022-09-15T20:56:53-04:00*%
%TF.ProjectId,Load_PCB_KiCAD,4c6f6164-5f50-4434-925f-4b694341442e,rev?*%
%TF.SameCoordinates,Original*%
%TF.FileFunction,Legend,Top*%
%TF.FilePolarity,Positive*%
%FSLAX46Y46*%
G04 Gerber Fmt 4.6, Leading zero omitted, Abs format (unit mm)*
G04 Created by KiCad (PCBNEW (6.0.0)) date 2022-09-15 20:56:53*
%MOMM*%
%LPD*%
G01*
G04 APERTURE LIST*
%ADD10C,0.150000*%
%ADD11C,0.120000*%
G04 APERTURE END LIST*
D10*
%TO.C,H4*%
X78238095Y-62252380D02*
X78238095Y-61252380D01*
X78238095Y-61728571D02*
X78809523Y-61728571D01*
X78809523Y-62252380D02*
X78809523Y-61252380D01*
X79714285Y-61585714D02*
X79714285Y-62252380D01*
X79476190Y-61204761D02*
X79238095Y-61919047D01*
X79857142Y-61919047D01*
%TO.C,H3*%
X78238095Y-89252380D02*
X78238095Y-88252380D01*
X78238095Y-88728571D02*
X78809523Y-88728571D01*
X78809523Y-89252380D02*
X78809523Y-88252380D01*
X79190476Y-88252380D02*
X79809523Y-88252380D01*
X79476190Y-88633333D01*
X79619047Y-88633333D01*
X79714285Y-88680952D01*
X79761904Y-88728571D01*
X79809523Y-88823809D01*
X79809523Y-89061904D01*
X79761904Y-89157142D01*
X79714285Y-89204761D01*
X79619047Y-89252380D01*
X79333333Y-89252380D01*
X79238095Y-89204761D01*
X79190476Y-89157142D01*
%TO.C,H2*%
X160238095Y-89252380D02*
X160238095Y-88252380D01*
X160238095Y-88728571D02*
X160809523Y-88728571D01*
X160809523Y-89252380D02*
X160809523Y-88252380D01*
X161238095Y-88347619D02*
X161285714Y-88300000D01*
X161380952Y-88252380D01*
X161619047Y-88252380D01*
X161714285Y-88300000D01*
X161761904Y-88347619D01*
X161809523Y-88442857D01*
X161809523Y-88538095D01*
X161761904Y-88680952D01*
X161190476Y-89252380D01*
X161809523Y-89252380D01*
%TO.C,H1*%
X160238095Y-62252380D02*
X160238095Y-61252380D01*
X160238095Y-61728571D02*
X160809523Y-61728571D01*
X160809523Y-62252380D02*
X160809523Y-61252380D01*
X161809523Y-62252380D02*
X161238095Y-62252380D01*
X161523809Y-62252380D02*
X161523809Y-61252380D01*
X161428571Y-61395238D01*
X161333333Y-61490476D01*
X161238095Y-61538095D01*
%TO.C,J3*%
X152811666Y-101872380D02*
X152811666Y-102586666D01*
X152764047Y-102729523D01*
X152668809Y-102824761D01*
X152525952Y-102872380D01*
X152430714Y-102872380D01*
X153192619Y-101872380D02*
X153811666Y-101872380D01*
X153478333Y-102253333D01*
X153621190Y-102253333D01*
X153716428Y-102300952D01*
X153764047Y-102348571D01*
X153811666Y-102443809D01*
X153811666Y-102681904D01*
X153764047Y-102777142D01*
X153716428Y-102824761D01*
X153621190Y-102872380D01*
X153335476Y-102872380D01*
X153240238Y-102824761D01*
X153192619Y-102777142D01*
%TO.C,R4*%
X142103333Y-68982380D02*
X141770000Y-68506190D01*
X141531904Y-68982380D02*
X141531904Y-67982380D01*
X141912857Y-67982380D01*
X142008095Y-68030000D01*
X142055714Y-68077619D01*
X142103333Y-68172857D01*
X142103333Y-68315714D01*
X142055714Y-68410952D01*
X142008095Y-68458571D01*
X141912857Y-68506190D01*
X141531904Y-68506190D01*
X142960476Y-68315714D02*
X142960476Y-68982380D01*
X142722380Y-67934761D02*
X142484285Y-68649047D01*
X143103333Y-68649047D01*
%TO.C,R3*%
X142103333Y-73982380D02*
X141770000Y-73506190D01*
X141531904Y-73982380D02*
X141531904Y-72982380D01*
X141912857Y-72982380D01*
X142008095Y-73030000D01*
X142055714Y-73077619D01*
X142103333Y-73172857D01*
X142103333Y-73315714D01*
X142055714Y-73410952D01*
X142008095Y-73458571D01*
X141912857Y-73506190D01*
X141531904Y-73506190D01*
X142436666Y-72982380D02*
X143055714Y-72982380D01*
X142722380Y-73363333D01*
X142865238Y-73363333D01*
X142960476Y-73410952D01*
X143008095Y-73458571D01*
X143055714Y-73553809D01*
X143055714Y-73791904D01*
X143008095Y-73887142D01*
X142960476Y-73934761D01*
X142865238Y-73982380D01*
X142579523Y-73982380D01*
X142484285Y-73934761D01*
X142436666Y-73887142D01*
%TO.C,R2*%
X142103333Y-78982380D02*
X141770000Y-78506190D01*
X141531904Y-78982380D02*
X141531904Y-77982380D01*
X141912857Y-77982380D01*
X142008095Y-78030000D01*
X142055714Y-78077619D01*
X142103333Y-78172857D01*
X142103333Y-78315714D01*
X142055714Y-78410952D01*
X142008095Y-78458571D01*
X141912857Y-78506190D01*
X141531904Y-78506190D01*
X142484285Y-78077619D02*
X142531904Y-78030000D01*
X142627142Y-77982380D01*
X142865238Y-77982380D01*
X142960476Y-78030000D01*
X143008095Y-78077619D01*
X143055714Y-78172857D01*
X143055714Y-78268095D01*
X143008095Y-78410952D01*
X142436666Y-78982380D01*
X143055714Y-78982380D01*
%TO.C,R1*%
X142103333Y-83982380D02*
X141770000Y-83506190D01*
X141531904Y-83982380D02*
X141531904Y-82982380D01*
X141912857Y-82982380D01*
X142008095Y-83030000D01*
X142055714Y-83077619D01*
X142103333Y-83172857D01*
X142103333Y-83315714D01*
X142055714Y-83410952D01*
X142008095Y-83458571D01*
X141912857Y-83506190D01*
X141531904Y-83506190D01*
X143055714Y-83982380D02*
X142484285Y-83982380D01*
X142770000Y-83982380D02*
X142770000Y-82982380D01*
X142674761Y-83125238D01*
X142579523Y-83220476D01*
X142484285Y-83268095D01*
%TO.C,J8*%
X86136666Y-101872380D02*
X86136666Y-102586666D01*
X86089047Y-102729523D01*
X85993809Y-102824761D01*
X85850952Y-102872380D01*
X85755714Y-102872380D01*
X86755714Y-102300952D02*
X86660476Y-102253333D01*
X86612857Y-102205714D01*
X86565238Y-102110476D01*
X86565238Y-102062857D01*
X86612857Y-101967619D01*
X86660476Y-101920000D01*
X86755714Y-101872380D01*
X86946190Y-101872380D01*
X87041428Y-101920000D01*
X87089047Y-101967619D01*
X87136666Y-102062857D01*
X87136666Y-102110476D01*
X87089047Y-102205714D01*
X87041428Y-102253333D01*
X86946190Y-102300952D01*
X86755714Y-102300952D01*
X86660476Y-102348571D01*
X86612857Y-102396190D01*
X86565238Y-102491428D01*
X86565238Y-102681904D01*
X86612857Y-102777142D01*
X86660476Y-102824761D01*
X86755714Y-102872380D01*
X86946190Y-102872380D01*
X87041428Y-102824761D01*
X87089047Y-102777142D01*
X87136666Y-102681904D01*
X87136666Y-102491428D01*
X87089047Y-102396190D01*
X87041428Y-102348571D01*
X86946190Y-102300952D01*
%TO.C,J7*%
X83532380Y-93483333D02*
X84246666Y-93483333D01*
X84389523Y-93530952D01*
X84484761Y-93626190D01*
X84532380Y-93769047D01*
X84532380Y-93864285D01*
X83532380Y-93102380D02*
X83532380Y-92435714D01*
X84532380Y-92864285D01*
%TO.C,J6*%
X140492380Y-93483333D02*
X141206666Y-93483333D01*
X141349523Y-93530952D01*
X141444761Y-93626190D01*
X141492380Y-93769047D01*
X141492380Y-93864285D01*
X140492380Y-92578571D02*
X140492380Y-92769047D01*
X140540000Y-92864285D01*
X140587619Y-92911904D01*
X140730476Y-93007142D01*
X140920952Y-93054761D01*
X141301904Y-93054761D01*
X141397142Y-93007142D01*
X141444761Y-92959523D01*
X141492380Y-92864285D01*
X141492380Y-92673809D01*
X141444761Y-92578571D01*
X141397142Y-92530952D01*
X141301904Y-92483333D01*
X141063809Y-92483333D01*
X140968571Y-92530952D01*
X140920952Y-92578571D01*
X140873333Y-92673809D01*
X140873333Y-92864285D01*
X140920952Y-92959523D01*
X140968571Y-93007142D01*
X141063809Y-93054761D01*
%TO.C,J5*%
X130586666Y-101872380D02*
X130586666Y-102586666D01*
X130539047Y-102729523D01*
X130443809Y-102824761D01*
X130300952Y-102872380D01*
X130205714Y-102872380D01*
X131539047Y-101872380D02*
X131062857Y-101872380D01*
X131015238Y-102348571D01*
X131062857Y-102300952D01*
X131158095Y-102253333D01*
X131396190Y-102253333D01*
X131491428Y-102300952D01*
X131539047Y-102348571D01*
X131586666Y-102443809D01*
X131586666Y-102681904D01*
X131539047Y-102777142D01*
X131491428Y-102824761D01*
X131396190Y-102872380D01*
X131158095Y-102872380D01*
X131062857Y-102824761D01*
X131015238Y-102777142D01*
%TO.C,J4*%
X155292380Y-93483333D02*
X156006666Y-93483333D01*
X156149523Y-93530952D01*
X156244761Y-93626190D01*
X156292380Y-93769047D01*
X156292380Y-93864285D01*
X155625714Y-92578571D02*
X156292380Y-92578571D01*
X155244761Y-92816666D02*
X155959047Y-93054761D01*
X155959047Y-92435714D01*
%TO.C,J2*%
X110692380Y-93483333D02*
X111406666Y-93483333D01*
X111549523Y-93530952D01*
X111644761Y-93626190D01*
X111692380Y-93769047D01*
X111692380Y-93864285D01*
X110787619Y-93054761D02*
X110740000Y-93007142D01*
X110692380Y-92911904D01*
X110692380Y-92673809D01*
X110740000Y-92578571D01*
X110787619Y-92530952D01*
X110882857Y-92483333D01*
X110978095Y-92483333D01*
X111120952Y-92530952D01*
X111692380Y-93102380D01*
X111692380Y-92483333D01*
%TO.C,J1*%
X108361666Y-101872380D02*
X108361666Y-102586666D01*
X108314047Y-102729523D01*
X108218809Y-102824761D01*
X108075952Y-102872380D01*
X107980714Y-102872380D01*
X109361666Y-102872380D02*
X108790238Y-102872380D01*
X109075952Y-102872380D02*
X109075952Y-101872380D01*
X108980714Y-102015238D01*
X108885476Y-102110476D01*
X108790238Y-102158095D01*
D11*
%TO.C,J3*%
X153145000Y-118920000D02*
X152145000Y-117920000D01*
X153145000Y-118920000D02*
X154145000Y-117920000D01*
X160645000Y-104120000D02*
X160645000Y-119120000D01*
X145645000Y-104120000D02*
X160645000Y-104120000D01*
X145645000Y-119120000D02*
X145645000Y-104120000D01*
X160645000Y-119120000D02*
X145645000Y-119120000D01*
%TO.C,R4*%
X142997064Y-67620000D02*
X141542936Y-67620000D01*
X142997064Y-65800000D02*
X141542936Y-65800000D01*
%TO.C,R3*%
X142997064Y-70800000D02*
X141542936Y-70800000D01*
X142997064Y-72620000D02*
X141542936Y-72620000D01*
%TO.C,R2*%
X142997064Y-75800000D02*
X141542936Y-75800000D01*
X142997064Y-77620000D02*
X141542936Y-77620000D01*
%TO.C,R1*%
X142997064Y-82620000D02*
X141542936Y-82620000D01*
X142997064Y-80800000D02*
X141542936Y-80800000D01*
%TO.C,J8*%
X93970000Y-119120000D02*
X78970000Y-119120000D01*
X78970000Y-119120000D02*
X78970000Y-104120000D01*
X78970000Y-104120000D02*
X93970000Y-104120000D01*
X93970000Y-104120000D02*
X93970000Y-119120000D01*
X86470000Y-118920000D02*
X87470000Y-117920000D01*
X86470000Y-118920000D02*
X85470000Y-117920000D01*
%TO.C,J7*%
X85520000Y-95750000D02*
X85520000Y-93150000D01*
X85520000Y-95750000D02*
X95800000Y-95750000D01*
X95800000Y-95750000D02*
X95800000Y-90550000D01*
X88120000Y-90550000D02*
X95800000Y-90550000D01*
X88120000Y-93150000D02*
X88120000Y-90550000D01*
X85520000Y-93150000D02*
X88120000Y-93150000D01*
X85520000Y-90550000D02*
X86850000Y-90550000D01*
X85520000Y-91880000D02*
X85520000Y-90550000D01*
%TO.C,J6*%
X139600000Y-90550000D02*
X139600000Y-93150000D01*
X139600000Y-90550000D02*
X129320000Y-90550000D01*
X129320000Y-90550000D02*
X129320000Y-95750000D01*
X137000000Y-95750000D02*
X129320000Y-95750000D01*
X137000000Y-93150000D02*
X137000000Y-95750000D01*
X139600000Y-93150000D02*
X137000000Y-93150000D01*
X139600000Y-95750000D02*
X138270000Y-95750000D01*
X139600000Y-94420000D02*
X139600000Y-95750000D01*
%TO.C,J5*%
X138420000Y-119120000D02*
X123420000Y-119120000D01*
X123420000Y-119120000D02*
X123420000Y-104120000D01*
X123420000Y-104120000D02*
X138420000Y-104120000D01*
X138420000Y-104120000D02*
X138420000Y-119120000D01*
X130920000Y-118920000D02*
X131920000Y-117920000D01*
X130920000Y-118920000D02*
X129920000Y-117920000D01*
%TO.C,J4*%
X154400000Y-90550000D02*
X154400000Y-93150000D01*
X154400000Y-90550000D02*
X144120000Y-90550000D01*
X144120000Y-90550000D02*
X144120000Y-95750000D01*
X151800000Y-95750000D02*
X144120000Y-95750000D01*
X151800000Y-93150000D02*
X151800000Y-95750000D01*
X154400000Y-93150000D02*
X151800000Y-93150000D01*
X154400000Y-95750000D02*
X153070000Y-95750000D01*
X154400000Y-94420000D02*
X154400000Y-95750000D01*
%TO.C,J2*%
X109800000Y-94420000D02*
X109800000Y-95750000D01*
X109800000Y-95750000D02*
X108470000Y-95750000D01*
X109800000Y-93150000D02*
X107200000Y-93150000D01*
X107200000Y-93150000D02*
X107200000Y-95750000D01*
X107200000Y-95750000D02*
X99520000Y-95750000D01*
X99520000Y-90550000D02*
X99520000Y-95750000D01*
X109800000Y-90550000D02*
X99520000Y-90550000D01*
X109800000Y-90550000D02*
X109800000Y-93150000D01*
%TO.C,J1*%
X108695000Y-118920000D02*
X107695000Y-117920000D01*
X108695000Y-118920000D02*
X109695000Y-117920000D01*
X116195000Y-104120000D02*
X116195000Y-119120000D01*
X101195000Y-104120000D02*
X116195000Y-104120000D01*
X101195000Y-119120000D02*
X101195000Y-104120000D01*
X116195000Y-119120000D02*
X101195000Y-119120000D01*
%TD*%
M02*
