%TF.GenerationSoftware,KiCad,Pcbnew,(6.0.0)*%
%TF.CreationDate,2022-09-15T20:56:53-04:00*%
%TF.ProjectId,Load_PCB_KiCAD,4c6f6164-5f50-4434-925f-4b694341442e,rev?*%
%TF.SameCoordinates,Original*%
%TF.FileFunction,Copper,L2,Bot*%
%TF.FilePolarity,Positive*%
%FSLAX46Y46*%
G04 Gerber Fmt 4.6, Leading zero omitted, Abs format (unit mm)*
G04 Created by KiCad (PCBNEW (6.0.0)) date 2022-09-15 20:56:53*
%MOMM*%
%LPD*%
G01*
G04 APERTURE LIST*
%TA.AperFunction,ComponentPad*%
%ADD10C,6.400000*%
%TD*%
%TA.AperFunction,ComponentPad*%
%ADD11O,1.600000X2.500000*%
%TD*%
%TA.AperFunction,ComponentPad*%
%ADD12O,3.500000X7.000000*%
%TD*%
%TA.AperFunction,ComponentPad*%
%ADD13R,1.700000X1.700000*%
%TD*%
%TA.AperFunction,ComponentPad*%
%ADD14O,1.700000X1.700000*%
%TD*%
%TA.AperFunction,ViaPad*%
%ADD15C,0.800000*%
%TD*%
%TA.AperFunction,Conductor*%
%ADD16C,1.000000*%
%TD*%
%TA.AperFunction,Conductor*%
%ADD17C,0.250000*%
%TD*%
G04 APERTURE END LIST*
D10*
%TO.P,H4,1,1*%
%TO.N,GND*%
X79000000Y-66000000D03*
%TD*%
%TO.P,H3,1,1*%
%TO.N,GND*%
X79000000Y-93000000D03*
%TD*%
%TO.P,H2,1,1*%
%TO.N,GND*%
X161000000Y-93000000D03*
%TD*%
%TO.P,H1,1,1*%
%TO.N,GND*%
X161000000Y-66000000D03*
%TD*%
D11*
%TO.P,J3,2,Ext*%
%TO.N,GND*%
X155685000Y-106420000D03*
%TO.P,J3,1,In*%
%TO.N,Net-(J3-Pad1)*%
X153145000Y-106420000D03*
D12*
%TO.P,J3,2,Ext*%
%TO.N,GND*%
X148065000Y-111500000D03*
X158225000Y-111500000D03*
%TD*%
%TO.P,J8,2,Ext*%
%TO.N,GND*%
X91550000Y-111500000D03*
X81390000Y-111500000D03*
D11*
%TO.P,J8,1,In*%
%TO.N,Net-(J7-Pad2)*%
X86470000Y-106420000D03*
%TO.P,J8,2,Ext*%
%TO.N,GND*%
X89010000Y-106420000D03*
%TD*%
D13*
%TO.P,J7,1,Pin_1*%
%TO.N,Net-(J7-Pad1)*%
X86850000Y-91880000D03*
D14*
%TO.P,J7,2,Pin_2*%
%TO.N,Net-(J7-Pad2)*%
X86850000Y-94420000D03*
%TO.P,J7,3,Pin_3*%
%TO.N,Net-(J6-Pad6)*%
X89390000Y-91880000D03*
%TO.P,J7,4,Pin_4*%
%TO.N,Net-(J7-Pad2)*%
X89390000Y-94420000D03*
%TO.P,J7,5,Pin_5*%
%TO.N,Net-(J6-Pad4)*%
X91930000Y-91880000D03*
%TO.P,J7,6,Pin_6*%
%TO.N,Net-(J7-Pad2)*%
X91930000Y-94420000D03*
%TO.P,J7,7,Pin_7*%
%TO.N,Net-(J6-Pad2)*%
X94470000Y-91880000D03*
%TO.P,J7,8,Pin_8*%
%TO.N,Net-(J7-Pad2)*%
X94470000Y-94420000D03*
%TD*%
D13*
%TO.P,J6,1,Pin_1*%
%TO.N,Net-(J5-Pad1)*%
X138270000Y-94420000D03*
D14*
%TO.P,J6,2,Pin_2*%
%TO.N,Net-(J6-Pad2)*%
X138270000Y-91880000D03*
%TO.P,J6,3,Pin_3*%
%TO.N,Net-(J5-Pad1)*%
X135730000Y-94420000D03*
%TO.P,J6,4,Pin_4*%
%TO.N,Net-(J6-Pad4)*%
X135730000Y-91880000D03*
%TO.P,J6,5,Pin_5*%
%TO.N,Net-(J5-Pad1)*%
X133190000Y-94420000D03*
%TO.P,J6,6,Pin_6*%
%TO.N,Net-(J6-Pad6)*%
X133190000Y-91880000D03*
%TO.P,J6,7,Pin_7*%
%TO.N,Net-(J5-Pad1)*%
X130650000Y-94420000D03*
%TO.P,J6,8,Pin_8*%
%TO.N,Net-(J7-Pad1)*%
X130650000Y-91880000D03*
%TD*%
D12*
%TO.P,J5,2,Ext*%
%TO.N,GND*%
X136000000Y-111500000D03*
X125840000Y-111500000D03*
D11*
%TO.P,J5,1,In*%
%TO.N,Net-(J5-Pad1)*%
X130920000Y-106420000D03*
%TO.P,J5,2,Ext*%
%TO.N,GND*%
X133460000Y-106420000D03*
%TD*%
D13*
%TO.P,J4,1,Pin_1*%
%TO.N,Net-(J3-Pad1)*%
X153070000Y-94420000D03*
D14*
%TO.P,J4,2,Pin_2*%
%TO.N,Net-(J4-Pad2)*%
X153070000Y-91880000D03*
%TO.P,J4,3,Pin_3*%
%TO.N,Net-(J3-Pad1)*%
X150530000Y-94420000D03*
%TO.P,J4,4,Pin_4*%
%TO.N,Net-(J2-Pad6)*%
X150530000Y-91880000D03*
%TO.P,J4,5,Pin_5*%
%TO.N,Net-(J3-Pad1)*%
X147990000Y-94420000D03*
%TO.P,J4,6,Pin_6*%
%TO.N,Net-(J2-Pad4)*%
X147990000Y-91880000D03*
%TO.P,J4,7,Pin_7*%
%TO.N,Net-(J3-Pad1)*%
X145450000Y-94420000D03*
%TO.P,J4,8,Pin_8*%
%TO.N,Net-(J4-Pad8)*%
X145450000Y-91880000D03*
%TD*%
%TO.P,J2,8,Pin_8*%
%TO.N,Net-(J4-Pad2)*%
X100850000Y-91880000D03*
%TO.P,J2,7,Pin_7*%
%TO.N,Net-(J1-Pad1)*%
X100850000Y-94420000D03*
%TO.P,J2,6,Pin_6*%
%TO.N,Net-(J2-Pad6)*%
X103390000Y-91880000D03*
%TO.P,J2,5,Pin_5*%
%TO.N,Net-(J1-Pad1)*%
X103390000Y-94420000D03*
%TO.P,J2,4,Pin_4*%
%TO.N,Net-(J2-Pad4)*%
X105930000Y-91880000D03*
%TO.P,J2,3,Pin_3*%
%TO.N,Net-(J1-Pad1)*%
X105930000Y-94420000D03*
%TO.P,J2,2,Pin_2*%
%TO.N,Net-(J4-Pad8)*%
X108470000Y-91880000D03*
D13*
%TO.P,J2,1,Pin_1*%
%TO.N,Net-(J1-Pad1)*%
X108470000Y-94420000D03*
%TD*%
D11*
%TO.P,J1,2,Ext*%
%TO.N,GND*%
X111235000Y-106420000D03*
%TO.P,J1,1,In*%
%TO.N,Net-(J1-Pad1)*%
X108695000Y-106420000D03*
D12*
%TO.P,J1,2,Ext*%
%TO.N,GND*%
X103615000Y-111500000D03*
X113775000Y-111500000D03*
%TD*%
D15*
%TO.N,GND*%
X111000000Y-74000000D03*
X115000000Y-69000000D03*
X115000000Y-74000000D03*
X120000000Y-74000000D03*
X120000000Y-69000000D03*
X125000000Y-69000000D03*
X125000000Y-74000000D03*
X130000000Y-69000000D03*
X130000000Y-74000000D03*
X137000000Y-79000000D03*
X130000000Y-79000000D03*
X125000000Y-79000000D03*
X120000000Y-79000000D03*
X115000000Y-79000000D03*
X110000000Y-79000000D03*
%TO.N,Net-(J4-Pad8)*%
X135470000Y-80420000D03*
%TO.N,Net-(J2-Pad4)*%
X137470000Y-75420000D03*
%TO.N,Net-(J2-Pad6)*%
X137970000Y-70420000D03*
%TO.N,Net-(J4-Pad2)*%
X146470000Y-66420000D03*
%TO.N,Net-(J4-Pad8)*%
X142970000Y-83420000D03*
%TO.N,Net-(J2-Pad4)*%
X142970000Y-78420000D03*
%TO.N,Net-(J2-Pad6)*%
X144270000Y-73710000D03*
%TO.N,Net-(J4-Pad2)*%
X144270000Y-68710000D03*
%TO.N,Net-(J7-Pad1)*%
X140270000Y-68710000D03*
%TO.N,Net-(J6-Pad6)*%
X140270000Y-73710000D03*
%TO.N,Net-(J6-Pad2)*%
X141470000Y-83420000D03*
%TO.N,Net-(J6-Pad4)*%
X141470000Y-78420000D03*
%TD*%
D16*
%TO.N,Net-(J2-Pad6)*%
X103390000Y-90340000D02*
X103390000Y-91880000D01*
X136970000Y-71420000D02*
X110470000Y-71420000D01*
X97470000Y-84420000D02*
X103390000Y-90340000D01*
X137970000Y-70420000D02*
X136970000Y-71420000D01*
X110470000Y-71420000D02*
X97470000Y-84420000D01*
%TO.N,Net-(J2-Pad4)*%
X105930000Y-88880000D02*
X105930000Y-91880000D01*
X107470000Y-76420000D02*
X100470000Y-83420000D01*
X100470000Y-83420000D02*
X105930000Y-88880000D01*
X137470000Y-75420000D02*
X136470000Y-76420000D01*
X136470000Y-76420000D02*
X107470000Y-76420000D01*
%TO.N,Net-(J4-Pad8)*%
X103470000Y-83420000D02*
X108470000Y-88420000D01*
X105470000Y-81420000D02*
X103470000Y-83420000D01*
X108470000Y-88420000D02*
X108470000Y-91880000D01*
X135470000Y-80420000D02*
X134470000Y-81420000D01*
X134470000Y-81420000D02*
X105470000Y-81420000D01*
D17*
%TO.N,Net-(J4-Pad2)*%
X146970000Y-80420000D02*
X146970000Y-85360000D01*
X144994511Y-73409897D02*
X144994511Y-78444511D01*
X144570103Y-72985489D02*
X144994511Y-73409897D01*
X146970000Y-85360000D02*
X153070000Y-91460000D01*
X144270000Y-72985489D02*
X144570103Y-72985489D01*
X144994511Y-78444511D02*
X146970000Y-80420000D01*
X144270000Y-68710000D02*
X144270000Y-72985489D01*
%TO.N,Net-(J2-Pad6)*%
X145970000Y-86900000D02*
X150530000Y-91460000D01*
X145970000Y-80420000D02*
X145970000Y-86900000D01*
X144270000Y-78720000D02*
X145970000Y-80420000D01*
X144270000Y-73710000D02*
X144270000Y-78720000D01*
%TO.N,Net-(J2-Pad4)*%
X144970000Y-80420000D02*
X144970000Y-88440000D01*
X144970000Y-88440000D02*
X147990000Y-91460000D01*
X142970000Y-78420000D02*
X144970000Y-80420000D01*
%TO.N,Net-(J4-Pad8)*%
X143970000Y-89980000D02*
X145450000Y-91460000D01*
X143970000Y-84420000D02*
X143970000Y-89980000D01*
X142970000Y-83420000D02*
X143970000Y-84420000D01*
%TO.N,Net-(J7-Pad1)*%
X137470000Y-84350000D02*
X130650000Y-91170000D01*
X137470000Y-80784283D02*
X137470000Y-84350000D01*
X139545489Y-73409897D02*
X139545489Y-78708794D01*
X139545489Y-78708794D02*
X137470000Y-80784283D01*
X140270000Y-72985489D02*
X139969897Y-72985489D01*
X140270000Y-68710000D02*
X140270000Y-72985489D01*
X139969897Y-72985489D02*
X139545489Y-73409897D01*
%TO.N,Net-(J6-Pad6)*%
X140270000Y-78620000D02*
X138470000Y-80420000D01*
X138470000Y-80420000D02*
X138470000Y-85890000D01*
X138470000Y-85890000D02*
X133190000Y-91170000D01*
X140270000Y-73710000D02*
X140270000Y-78620000D01*
%TO.N,Net-(J6-Pad4)*%
X139470000Y-87430000D02*
X135730000Y-91170000D01*
X139470000Y-80510000D02*
X139470000Y-87430000D01*
X141470000Y-78510000D02*
X139470000Y-80510000D01*
X141470000Y-78420000D02*
X141470000Y-78510000D01*
%TO.N,Net-(J6-Pad2)*%
X138720000Y-91170000D02*
X138270000Y-91170000D01*
X140470000Y-89420000D02*
X138720000Y-91170000D01*
X140470000Y-84420000D02*
X140470000Y-89420000D01*
X141470000Y-83420000D02*
X140470000Y-84420000D01*
D16*
%TO.N,Net-(J4-Pad2)*%
X112470000Y-66420000D02*
X146470000Y-66420000D01*
X94470000Y-84420000D02*
X112470000Y-66420000D01*
X94470000Y-85500000D02*
X94470000Y-84420000D01*
X100850000Y-91880000D02*
X94470000Y-85500000D01*
%TD*%
%TA.AperFunction,Conductor*%
%TO.N,GND*%
G36*
X162940057Y-61929500D02*
G01*
X162954858Y-61931805D01*
X162954861Y-61931805D01*
X162963730Y-61933186D01*
X162979999Y-61931059D01*
X163004567Y-61930266D01*
X163221766Y-61944502D01*
X163238106Y-61946653D01*
X163357788Y-61970459D01*
X163477473Y-61994266D01*
X163493383Y-61998529D01*
X163724484Y-62076977D01*
X163739710Y-62083284D01*
X163958592Y-62191224D01*
X163972866Y-62199465D01*
X164175783Y-62335050D01*
X164188858Y-62345083D01*
X164372347Y-62505998D01*
X164384002Y-62517653D01*
X164544917Y-62701142D01*
X164554950Y-62714217D01*
X164690535Y-62917134D01*
X164698776Y-62931408D01*
X164806716Y-63150290D01*
X164813022Y-63165514D01*
X164891471Y-63396617D01*
X164895735Y-63412530D01*
X164943347Y-63651894D01*
X164945498Y-63668234D01*
X164959264Y-63878268D01*
X164958239Y-63901304D01*
X164958196Y-63904854D01*
X164956814Y-63913730D01*
X164958638Y-63927678D01*
X164960936Y-63945251D01*
X164962000Y-63961589D01*
X164962000Y-65937766D01*
X164942353Y-66004680D01*
X164958588Y-66033112D01*
X164962000Y-66062234D01*
X164962000Y-92937766D01*
X164942353Y-93004680D01*
X164958588Y-93033112D01*
X164962000Y-93062234D01*
X164962000Y-116370672D01*
X164960500Y-116390056D01*
X164956814Y-116413730D01*
X164958941Y-116429999D01*
X164959734Y-116454567D01*
X164945498Y-116671766D01*
X164943347Y-116688106D01*
X164895735Y-116927470D01*
X164891471Y-116943383D01*
X164856550Y-117046257D01*
X164813023Y-117174484D01*
X164806716Y-117189710D01*
X164698776Y-117408592D01*
X164690535Y-117422866D01*
X164554950Y-117625783D01*
X164544917Y-117638858D01*
X164384002Y-117822347D01*
X164372347Y-117834002D01*
X164188858Y-117994917D01*
X164175783Y-118004950D01*
X163972866Y-118140535D01*
X163958592Y-118148776D01*
X163739710Y-118256716D01*
X163724486Y-118263022D01*
X163493383Y-118341471D01*
X163477473Y-118345734D01*
X163357788Y-118369541D01*
X163238106Y-118393347D01*
X163221766Y-118395498D01*
X163011732Y-118409264D01*
X162988696Y-118408239D01*
X162985146Y-118408196D01*
X162976270Y-118406814D01*
X162947762Y-118410542D01*
X162944749Y-118410936D01*
X162928411Y-118412000D01*
X76519328Y-118412000D01*
X76499943Y-118410500D01*
X76485142Y-118408195D01*
X76485139Y-118408195D01*
X76476270Y-118406814D01*
X76460001Y-118408941D01*
X76435433Y-118409734D01*
X76218234Y-118395498D01*
X76201894Y-118393347D01*
X76082212Y-118369541D01*
X75962527Y-118345734D01*
X75946617Y-118341471D01*
X75715514Y-118263022D01*
X75700290Y-118256716D01*
X75481408Y-118148776D01*
X75467134Y-118140535D01*
X75264217Y-118004950D01*
X75251142Y-117994917D01*
X75067653Y-117834002D01*
X75055998Y-117822347D01*
X74895083Y-117638858D01*
X74885050Y-117625783D01*
X74749465Y-117422866D01*
X74741224Y-117408592D01*
X74633284Y-117189710D01*
X74626977Y-117174484D01*
X74583450Y-117046257D01*
X74548529Y-116943383D01*
X74544265Y-116927470D01*
X74496653Y-116688106D01*
X74494502Y-116671766D01*
X74480974Y-116465376D01*
X74482147Y-116442218D01*
X74481829Y-116442189D01*
X74482264Y-116437333D01*
X74483071Y-116432539D01*
X74483224Y-116420000D01*
X74479273Y-116392412D01*
X74478000Y-116374549D01*
X74478000Y-113323993D01*
X79132000Y-113323993D01*
X79132139Y-113328182D01*
X79146549Y-113545132D01*
X79147653Y-113553403D01*
X79205290Y-113839251D01*
X79207478Y-113847303D01*
X79302409Y-114123005D01*
X79305650Y-114130716D01*
X79436213Y-114391444D01*
X79440434Y-114398638D01*
X79604341Y-114639820D01*
X79609474Y-114646390D01*
X79803839Y-114863775D01*
X79809795Y-114869608D01*
X80031203Y-115059378D01*
X80037884Y-115064376D01*
X80282437Y-115223191D01*
X80289727Y-115227265D01*
X80553132Y-115352338D01*
X80560900Y-115355414D01*
X80838531Y-115444552D01*
X80846637Y-115446573D01*
X81118170Y-115495429D01*
X81131429Y-115493997D01*
X81136000Y-115479387D01*
X81136000Y-115476367D01*
X81644000Y-115476367D01*
X81648295Y-115490996D01*
X81660272Y-115493058D01*
X81732053Y-115486778D01*
X81740292Y-115485503D01*
X82024880Y-115421890D01*
X82032877Y-115419536D01*
X82306534Y-115318850D01*
X82314172Y-115315450D01*
X82572115Y-115179451D01*
X82579213Y-115175084D01*
X82816905Y-115006165D01*
X82823372Y-115000892D01*
X83036639Y-114802017D01*
X83042351Y-114795933D01*
X83227437Y-114570607D01*
X83232292Y-114563826D01*
X83385958Y-114315987D01*
X83389871Y-114308627D01*
X83509404Y-114042654D01*
X83512314Y-114034831D01*
X83595624Y-113755375D01*
X83597469Y-113747254D01*
X83643191Y-113458571D01*
X83643899Y-113451597D01*
X83647936Y-113362714D01*
X83648000Y-113359881D01*
X83648000Y-113323993D01*
X89292000Y-113323993D01*
X89292139Y-113328182D01*
X89306549Y-113545132D01*
X89307653Y-113553403D01*
X89365290Y-113839251D01*
X89367478Y-113847303D01*
X89462409Y-114123005D01*
X89465650Y-114130716D01*
X89596213Y-114391444D01*
X89600434Y-114398638D01*
X89764341Y-114639820D01*
X89769474Y-114646390D01*
X89963839Y-114863775D01*
X89969795Y-114869608D01*
X90191203Y-115059378D01*
X90197884Y-115064376D01*
X90442437Y-115223191D01*
X90449727Y-115227265D01*
X90713132Y-115352338D01*
X90720900Y-115355414D01*
X90998531Y-115444552D01*
X91006637Y-115446573D01*
X91278170Y-115495429D01*
X91291429Y-115493997D01*
X91296000Y-115479387D01*
X91296000Y-115476367D01*
X91804000Y-115476367D01*
X91808295Y-115490996D01*
X91820272Y-115493058D01*
X91892053Y-115486778D01*
X91900292Y-115485503D01*
X92184880Y-115421890D01*
X92192877Y-115419536D01*
X92466534Y-115318850D01*
X92474172Y-115315450D01*
X92732115Y-115179451D01*
X92739213Y-115175084D01*
X92976905Y-115006165D01*
X92983372Y-115000892D01*
X93196639Y-114802017D01*
X93202351Y-114795933D01*
X93387437Y-114570607D01*
X93392292Y-114563826D01*
X93545958Y-114315987D01*
X93549871Y-114308627D01*
X93669404Y-114042654D01*
X93672314Y-114034831D01*
X93755624Y-113755375D01*
X93757469Y-113747254D01*
X93803191Y-113458571D01*
X93803899Y-113451597D01*
X93807936Y-113362714D01*
X93808000Y-113359881D01*
X93808000Y-113323993D01*
X101357000Y-113323993D01*
X101357139Y-113328182D01*
X101371549Y-113545132D01*
X101372653Y-113553403D01*
X101430290Y-113839251D01*
X101432478Y-113847303D01*
X101527409Y-114123005D01*
X101530650Y-114130716D01*
X101661213Y-114391444D01*
X101665434Y-114398638D01*
X101829341Y-114639820D01*
X101834474Y-114646390D01*
X102028839Y-114863775D01*
X102034795Y-114869608D01*
X102256203Y-115059378D01*
X102262884Y-115064376D01*
X102507437Y-115223191D01*
X102514727Y-115227265D01*
X102778132Y-115352338D01*
X102785900Y-115355414D01*
X103063531Y-115444552D01*
X103071637Y-115446573D01*
X103343170Y-115495429D01*
X103356429Y-115493997D01*
X103361000Y-115479387D01*
X103361000Y-115476367D01*
X103869000Y-115476367D01*
X103873295Y-115490996D01*
X103885272Y-115493058D01*
X103957053Y-115486778D01*
X103965292Y-115485503D01*
X104249880Y-115421890D01*
X104257877Y-115419536D01*
X104531534Y-115318850D01*
X104539172Y-115315450D01*
X104797115Y-115179451D01*
X104804213Y-115175084D01*
X105041905Y-115006165D01*
X105048372Y-115000892D01*
X105261639Y-114802017D01*
X105267351Y-114795933D01*
X105452437Y-114570607D01*
X105457292Y-114563826D01*
X105610958Y-114315987D01*
X105614871Y-114308627D01*
X105734404Y-114042654D01*
X105737314Y-114034831D01*
X105820624Y-113755375D01*
X105822469Y-113747254D01*
X105868191Y-113458571D01*
X105868899Y-113451597D01*
X105872936Y-113362714D01*
X105873000Y-113359881D01*
X105873000Y-113323993D01*
X111517000Y-113323993D01*
X111517139Y-113328182D01*
X111531549Y-113545132D01*
X111532653Y-113553403D01*
X111590290Y-113839251D01*
X111592478Y-113847303D01*
X111687409Y-114123005D01*
X111690650Y-114130716D01*
X111821213Y-114391444D01*
X111825434Y-114398638D01*
X111989341Y-114639820D01*
X111994474Y-114646390D01*
X112188839Y-114863775D01*
X112194795Y-114869608D01*
X112416203Y-115059378D01*
X112422884Y-115064376D01*
X112667437Y-115223191D01*
X112674727Y-115227265D01*
X112938132Y-115352338D01*
X112945900Y-115355414D01*
X113223531Y-115444552D01*
X113231637Y-115446573D01*
X113503170Y-115495429D01*
X113516429Y-115493997D01*
X113521000Y-115479387D01*
X113521000Y-115476367D01*
X114029000Y-115476367D01*
X114033295Y-115490996D01*
X114045272Y-115493058D01*
X114117053Y-115486778D01*
X114125292Y-115485503D01*
X114409880Y-115421890D01*
X114417877Y-115419536D01*
X114691534Y-115318850D01*
X114699172Y-115315450D01*
X114957115Y-115179451D01*
X114964213Y-115175084D01*
X115201905Y-115006165D01*
X115208372Y-115000892D01*
X115421639Y-114802017D01*
X115427351Y-114795933D01*
X115612437Y-114570607D01*
X115617292Y-114563826D01*
X115770958Y-114315987D01*
X115774871Y-114308627D01*
X115894404Y-114042654D01*
X115897314Y-114034831D01*
X115980624Y-113755375D01*
X115982469Y-113747254D01*
X116028191Y-113458571D01*
X116028899Y-113451597D01*
X116032936Y-113362714D01*
X116033000Y-113359881D01*
X116033000Y-113323993D01*
X123582000Y-113323993D01*
X123582139Y-113328182D01*
X123596549Y-113545132D01*
X123597653Y-113553403D01*
X123655290Y-113839251D01*
X123657478Y-113847303D01*
X123752409Y-114123005D01*
X123755650Y-114130716D01*
X123886213Y-114391444D01*
X123890434Y-114398638D01*
X124054341Y-114639820D01*
X124059474Y-114646390D01*
X124253839Y-114863775D01*
X124259795Y-114869608D01*
X124481203Y-115059378D01*
X124487884Y-115064376D01*
X124732437Y-115223191D01*
X124739727Y-115227265D01*
X125003132Y-115352338D01*
X125010900Y-115355414D01*
X125288531Y-115444552D01*
X125296637Y-115446573D01*
X125568170Y-115495429D01*
X125581429Y-115493997D01*
X125586000Y-115479387D01*
X125586000Y-115476367D01*
X126094000Y-115476367D01*
X126098295Y-115490996D01*
X126110272Y-115493058D01*
X126182053Y-115486778D01*
X126190292Y-115485503D01*
X126474880Y-115421890D01*
X126482877Y-115419536D01*
X126756534Y-115318850D01*
X126764172Y-115315450D01*
X127022115Y-115179451D01*
X127029213Y-115175084D01*
X127266905Y-115006165D01*
X127273372Y-115000892D01*
X127486639Y-114802017D01*
X127492351Y-114795933D01*
X127677437Y-114570607D01*
X127682292Y-114563826D01*
X127835958Y-114315987D01*
X127839871Y-114308627D01*
X127959404Y-114042654D01*
X127962314Y-114034831D01*
X128045624Y-113755375D01*
X128047469Y-113747254D01*
X128093191Y-113458571D01*
X128093899Y-113451597D01*
X128097936Y-113362714D01*
X128098000Y-113359881D01*
X128098000Y-113323993D01*
X133742000Y-113323993D01*
X133742139Y-113328182D01*
X133756549Y-113545132D01*
X133757653Y-113553403D01*
X133815290Y-113839251D01*
X133817478Y-113847303D01*
X133912409Y-114123005D01*
X133915650Y-114130716D01*
X134046213Y-114391444D01*
X134050434Y-114398638D01*
X134214341Y-114639820D01*
X134219474Y-114646390D01*
X134413839Y-114863775D01*
X134419795Y-114869608D01*
X134641203Y-115059378D01*
X134647884Y-115064376D01*
X134892437Y-115223191D01*
X134899727Y-115227265D01*
X135163132Y-115352338D01*
X135170900Y-115355414D01*
X135448531Y-115444552D01*
X135456637Y-115446573D01*
X135728170Y-115495429D01*
X135741429Y-115493997D01*
X135746000Y-115479387D01*
X135746000Y-115476367D01*
X136254000Y-115476367D01*
X136258295Y-115490996D01*
X136270272Y-115493058D01*
X136342053Y-115486778D01*
X136350292Y-115485503D01*
X136634880Y-115421890D01*
X136642877Y-115419536D01*
X136916534Y-115318850D01*
X136924172Y-115315450D01*
X137182115Y-115179451D01*
X137189213Y-115175084D01*
X137426905Y-115006165D01*
X137433372Y-115000892D01*
X137646639Y-114802017D01*
X137652351Y-114795933D01*
X137837437Y-114570607D01*
X137842292Y-114563826D01*
X137995958Y-114315987D01*
X137999871Y-114308627D01*
X138119404Y-114042654D01*
X138122314Y-114034831D01*
X138205624Y-113755375D01*
X138207469Y-113747254D01*
X138253191Y-113458571D01*
X138253899Y-113451597D01*
X138257936Y-113362714D01*
X138258000Y-113359881D01*
X138258000Y-113323993D01*
X145807000Y-113323993D01*
X145807139Y-113328182D01*
X145821549Y-113545132D01*
X145822653Y-113553403D01*
X145880290Y-113839251D01*
X145882478Y-113847303D01*
X145977409Y-114123005D01*
X145980650Y-114130716D01*
X146111213Y-114391444D01*
X146115434Y-114398638D01*
X146279341Y-114639820D01*
X146284474Y-114646390D01*
X146478839Y-114863775D01*
X146484795Y-114869608D01*
X146706203Y-115059378D01*
X146712884Y-115064376D01*
X146957437Y-115223191D01*
X146964727Y-115227265D01*
X147228132Y-115352338D01*
X147235900Y-115355414D01*
X147513531Y-115444552D01*
X147521637Y-115446573D01*
X147793170Y-115495429D01*
X147806429Y-115493997D01*
X147811000Y-115479387D01*
X147811000Y-115476367D01*
X148319000Y-115476367D01*
X148323295Y-115490996D01*
X148335272Y-115493058D01*
X148407053Y-115486778D01*
X148415292Y-115485503D01*
X148699880Y-115421890D01*
X148707877Y-115419536D01*
X148981534Y-115318850D01*
X148989172Y-115315450D01*
X149247115Y-115179451D01*
X149254213Y-115175084D01*
X149491905Y-115006165D01*
X149498372Y-115000892D01*
X149711639Y-114802017D01*
X149717351Y-114795933D01*
X149902437Y-114570607D01*
X149907292Y-114563826D01*
X150060958Y-114315987D01*
X150064871Y-114308627D01*
X150184404Y-114042654D01*
X150187314Y-114034831D01*
X150270624Y-113755375D01*
X150272469Y-113747254D01*
X150318191Y-113458571D01*
X150318899Y-113451597D01*
X150322936Y-113362714D01*
X150323000Y-113359881D01*
X150323000Y-113323993D01*
X155967000Y-113323993D01*
X155967139Y-113328182D01*
X155981549Y-113545132D01*
X155982653Y-113553403D01*
X156040290Y-113839251D01*
X156042478Y-113847303D01*
X156137409Y-114123005D01*
X156140650Y-114130716D01*
X156271213Y-114391444D01*
X156275434Y-114398638D01*
X156439341Y-114639820D01*
X156444474Y-114646390D01*
X156638839Y-114863775D01*
X156644795Y-114869608D01*
X156866203Y-115059378D01*
X156872884Y-115064376D01*
X157117437Y-115223191D01*
X157124727Y-115227265D01*
X157388132Y-115352338D01*
X157395900Y-115355414D01*
X157673531Y-115444552D01*
X157681637Y-115446573D01*
X157953170Y-115495429D01*
X157966429Y-115493997D01*
X157971000Y-115479387D01*
X157971000Y-115476367D01*
X158479000Y-115476367D01*
X158483295Y-115490996D01*
X158495272Y-115493058D01*
X158567053Y-115486778D01*
X158575292Y-115485503D01*
X158859880Y-115421890D01*
X158867877Y-115419536D01*
X159141534Y-115318850D01*
X159149172Y-115315450D01*
X159407115Y-115179451D01*
X159414213Y-115175084D01*
X159651905Y-115006165D01*
X159658372Y-115000892D01*
X159871639Y-114802017D01*
X159877351Y-114795933D01*
X160062437Y-114570607D01*
X160067292Y-114563826D01*
X160220958Y-114315987D01*
X160224871Y-114308627D01*
X160344404Y-114042654D01*
X160347314Y-114034831D01*
X160430624Y-113755375D01*
X160432469Y-113747254D01*
X160478191Y-113458571D01*
X160478899Y-113451597D01*
X160482936Y-113362714D01*
X160483000Y-113359881D01*
X160483000Y-111772115D01*
X160478525Y-111756876D01*
X160477135Y-111755671D01*
X160469452Y-111754000D01*
X158497115Y-111754000D01*
X158481876Y-111758475D01*
X158480671Y-111759865D01*
X158479000Y-111767548D01*
X158479000Y-115476367D01*
X157971000Y-115476367D01*
X157971000Y-111772115D01*
X157966525Y-111756876D01*
X157965135Y-111755671D01*
X157957452Y-111754000D01*
X155985115Y-111754000D01*
X155969876Y-111758475D01*
X155968671Y-111759865D01*
X155967000Y-111767548D01*
X155967000Y-113323993D01*
X150323000Y-113323993D01*
X150323000Y-111772115D01*
X150318525Y-111756876D01*
X150317135Y-111755671D01*
X150309452Y-111754000D01*
X148337115Y-111754000D01*
X148321876Y-111758475D01*
X148320671Y-111759865D01*
X148319000Y-111767548D01*
X148319000Y-115476367D01*
X147811000Y-115476367D01*
X147811000Y-111772115D01*
X147806525Y-111756876D01*
X147805135Y-111755671D01*
X147797452Y-111754000D01*
X145825115Y-111754000D01*
X145809876Y-111758475D01*
X145808671Y-111759865D01*
X145807000Y-111767548D01*
X145807000Y-113323993D01*
X138258000Y-113323993D01*
X138258000Y-111772115D01*
X138253525Y-111756876D01*
X138252135Y-111755671D01*
X138244452Y-111754000D01*
X136272115Y-111754000D01*
X136256876Y-111758475D01*
X136255671Y-111759865D01*
X136254000Y-111767548D01*
X136254000Y-115476367D01*
X135746000Y-115476367D01*
X135746000Y-111772115D01*
X135741525Y-111756876D01*
X135740135Y-111755671D01*
X135732452Y-111754000D01*
X133760115Y-111754000D01*
X133744876Y-111758475D01*
X133743671Y-111759865D01*
X133742000Y-111767548D01*
X133742000Y-113323993D01*
X128098000Y-113323993D01*
X128098000Y-111772115D01*
X128093525Y-111756876D01*
X128092135Y-111755671D01*
X128084452Y-111754000D01*
X126112115Y-111754000D01*
X126096876Y-111758475D01*
X126095671Y-111759865D01*
X126094000Y-111767548D01*
X126094000Y-115476367D01*
X125586000Y-115476367D01*
X125586000Y-111772115D01*
X125581525Y-111756876D01*
X125580135Y-111755671D01*
X125572452Y-111754000D01*
X123600115Y-111754000D01*
X123584876Y-111758475D01*
X123583671Y-111759865D01*
X123582000Y-111767548D01*
X123582000Y-113323993D01*
X116033000Y-113323993D01*
X116033000Y-111772115D01*
X116028525Y-111756876D01*
X116027135Y-111755671D01*
X116019452Y-111754000D01*
X114047115Y-111754000D01*
X114031876Y-111758475D01*
X114030671Y-111759865D01*
X114029000Y-111767548D01*
X114029000Y-115476367D01*
X113521000Y-115476367D01*
X113521000Y-111772115D01*
X113516525Y-111756876D01*
X113515135Y-111755671D01*
X113507452Y-111754000D01*
X111535115Y-111754000D01*
X111519876Y-111758475D01*
X111518671Y-111759865D01*
X111517000Y-111767548D01*
X111517000Y-113323993D01*
X105873000Y-113323993D01*
X105873000Y-111772115D01*
X105868525Y-111756876D01*
X105867135Y-111755671D01*
X105859452Y-111754000D01*
X103887115Y-111754000D01*
X103871876Y-111758475D01*
X103870671Y-111759865D01*
X103869000Y-111767548D01*
X103869000Y-115476367D01*
X103361000Y-115476367D01*
X103361000Y-111772115D01*
X103356525Y-111756876D01*
X103355135Y-111755671D01*
X103347452Y-111754000D01*
X101375115Y-111754000D01*
X101359876Y-111758475D01*
X101358671Y-111759865D01*
X101357000Y-111767548D01*
X101357000Y-113323993D01*
X93808000Y-113323993D01*
X93808000Y-111772115D01*
X93803525Y-111756876D01*
X93802135Y-111755671D01*
X93794452Y-111754000D01*
X91822115Y-111754000D01*
X91806876Y-111758475D01*
X91805671Y-111759865D01*
X91804000Y-111767548D01*
X91804000Y-115476367D01*
X91296000Y-115476367D01*
X91296000Y-111772115D01*
X91291525Y-111756876D01*
X91290135Y-111755671D01*
X91282452Y-111754000D01*
X89310115Y-111754000D01*
X89294876Y-111758475D01*
X89293671Y-111759865D01*
X89292000Y-111767548D01*
X89292000Y-113323993D01*
X83648000Y-113323993D01*
X83648000Y-111772115D01*
X83643525Y-111756876D01*
X83642135Y-111755671D01*
X83634452Y-111754000D01*
X81662115Y-111754000D01*
X81646876Y-111758475D01*
X81645671Y-111759865D01*
X81644000Y-111767548D01*
X81644000Y-115476367D01*
X81136000Y-115476367D01*
X81136000Y-111772115D01*
X81131525Y-111756876D01*
X81130135Y-111755671D01*
X81122452Y-111754000D01*
X79150115Y-111754000D01*
X79134876Y-111758475D01*
X79133671Y-111759865D01*
X79132000Y-111767548D01*
X79132000Y-113323993D01*
X74478000Y-113323993D01*
X74478000Y-111227885D01*
X79132000Y-111227885D01*
X79136475Y-111243124D01*
X79137865Y-111244329D01*
X79145548Y-111246000D01*
X81117885Y-111246000D01*
X81133124Y-111241525D01*
X81134329Y-111240135D01*
X81136000Y-111232452D01*
X81136000Y-111227885D01*
X81644000Y-111227885D01*
X81648475Y-111243124D01*
X81649865Y-111244329D01*
X81657548Y-111246000D01*
X83629885Y-111246000D01*
X83645124Y-111241525D01*
X83646329Y-111240135D01*
X83648000Y-111232452D01*
X83648000Y-111227885D01*
X89292000Y-111227885D01*
X89296475Y-111243124D01*
X89297865Y-111244329D01*
X89305548Y-111246000D01*
X91277885Y-111246000D01*
X91293124Y-111241525D01*
X91294329Y-111240135D01*
X91296000Y-111232452D01*
X91296000Y-111227885D01*
X91804000Y-111227885D01*
X91808475Y-111243124D01*
X91809865Y-111244329D01*
X91817548Y-111246000D01*
X93789885Y-111246000D01*
X93805124Y-111241525D01*
X93806329Y-111240135D01*
X93808000Y-111232452D01*
X93808000Y-111227885D01*
X101357000Y-111227885D01*
X101361475Y-111243124D01*
X101362865Y-111244329D01*
X101370548Y-111246000D01*
X103342885Y-111246000D01*
X103358124Y-111241525D01*
X103359329Y-111240135D01*
X103361000Y-111232452D01*
X103361000Y-111227885D01*
X103869000Y-111227885D01*
X103873475Y-111243124D01*
X103874865Y-111244329D01*
X103882548Y-111246000D01*
X105854885Y-111246000D01*
X105870124Y-111241525D01*
X105871329Y-111240135D01*
X105873000Y-111232452D01*
X105873000Y-111227885D01*
X111517000Y-111227885D01*
X111521475Y-111243124D01*
X111522865Y-111244329D01*
X111530548Y-111246000D01*
X113502885Y-111246000D01*
X113518124Y-111241525D01*
X113519329Y-111240135D01*
X113521000Y-111232452D01*
X113521000Y-111227885D01*
X114029000Y-111227885D01*
X114033475Y-111243124D01*
X114034865Y-111244329D01*
X114042548Y-111246000D01*
X116014885Y-111246000D01*
X116030124Y-111241525D01*
X116031329Y-111240135D01*
X116033000Y-111232452D01*
X116033000Y-111227885D01*
X123582000Y-111227885D01*
X123586475Y-111243124D01*
X123587865Y-111244329D01*
X123595548Y-111246000D01*
X125567885Y-111246000D01*
X125583124Y-111241525D01*
X125584329Y-111240135D01*
X125586000Y-111232452D01*
X125586000Y-111227885D01*
X126094000Y-111227885D01*
X126098475Y-111243124D01*
X126099865Y-111244329D01*
X126107548Y-111246000D01*
X128079885Y-111246000D01*
X128095124Y-111241525D01*
X128096329Y-111240135D01*
X128098000Y-111232452D01*
X128098000Y-111227885D01*
X133742000Y-111227885D01*
X133746475Y-111243124D01*
X133747865Y-111244329D01*
X133755548Y-111246000D01*
X135727885Y-111246000D01*
X135743124Y-111241525D01*
X135744329Y-111240135D01*
X135746000Y-111232452D01*
X135746000Y-111227885D01*
X136254000Y-111227885D01*
X136258475Y-111243124D01*
X136259865Y-111244329D01*
X136267548Y-111246000D01*
X138239885Y-111246000D01*
X138255124Y-111241525D01*
X138256329Y-111240135D01*
X138258000Y-111232452D01*
X138258000Y-111227885D01*
X145807000Y-111227885D01*
X145811475Y-111243124D01*
X145812865Y-111244329D01*
X145820548Y-111246000D01*
X147792885Y-111246000D01*
X147808124Y-111241525D01*
X147809329Y-111240135D01*
X147811000Y-111232452D01*
X147811000Y-111227885D01*
X148319000Y-111227885D01*
X148323475Y-111243124D01*
X148324865Y-111244329D01*
X148332548Y-111246000D01*
X150304885Y-111246000D01*
X150320124Y-111241525D01*
X150321329Y-111240135D01*
X150323000Y-111232452D01*
X150323000Y-111227885D01*
X155967000Y-111227885D01*
X155971475Y-111243124D01*
X155972865Y-111244329D01*
X155980548Y-111246000D01*
X157952885Y-111246000D01*
X157968124Y-111241525D01*
X157969329Y-111240135D01*
X157971000Y-111232452D01*
X157971000Y-111227885D01*
X158479000Y-111227885D01*
X158483475Y-111243124D01*
X158484865Y-111244329D01*
X158492548Y-111246000D01*
X160464885Y-111246000D01*
X160480124Y-111241525D01*
X160481329Y-111240135D01*
X160483000Y-111232452D01*
X160483000Y-109676007D01*
X160482861Y-109671818D01*
X160468451Y-109454868D01*
X160467347Y-109446597D01*
X160409710Y-109160749D01*
X160407522Y-109152697D01*
X160312591Y-108876995D01*
X160309350Y-108869284D01*
X160178787Y-108608556D01*
X160174566Y-108601362D01*
X160010659Y-108360180D01*
X160005526Y-108353610D01*
X159811161Y-108136225D01*
X159805205Y-108130392D01*
X159583797Y-107940622D01*
X159577116Y-107935624D01*
X159332563Y-107776809D01*
X159325273Y-107772735D01*
X159061868Y-107647662D01*
X159054100Y-107644586D01*
X158776469Y-107555448D01*
X158768363Y-107553427D01*
X158496830Y-107504571D01*
X158483571Y-107506003D01*
X158479000Y-107520613D01*
X158479000Y-111227885D01*
X157971000Y-111227885D01*
X157971000Y-107523633D01*
X157966705Y-107509004D01*
X157954728Y-107506942D01*
X157882947Y-107513222D01*
X157874708Y-107514497D01*
X157590120Y-107578110D01*
X157582123Y-107580464D01*
X157308466Y-107681150D01*
X157300828Y-107684550D01*
X157042885Y-107820549D01*
X157035787Y-107824916D01*
X156798095Y-107993835D01*
X156791628Y-107999108D01*
X156578361Y-108197983D01*
X156572649Y-108204067D01*
X156387563Y-108429393D01*
X156382708Y-108436174D01*
X156229042Y-108684013D01*
X156225129Y-108691373D01*
X156105596Y-108957346D01*
X156102686Y-108965169D01*
X156019376Y-109244625D01*
X156017531Y-109252746D01*
X155971809Y-109541429D01*
X155971101Y-109548403D01*
X155967064Y-109637286D01*
X155967000Y-109640119D01*
X155967000Y-111227885D01*
X150323000Y-111227885D01*
X150323000Y-109676007D01*
X150322861Y-109671818D01*
X150308451Y-109454868D01*
X150307347Y-109446597D01*
X150249710Y-109160749D01*
X150247522Y-109152697D01*
X150152591Y-108876995D01*
X150149350Y-108869284D01*
X150018787Y-108608556D01*
X150014566Y-108601362D01*
X149850659Y-108360180D01*
X149845526Y-108353610D01*
X149651161Y-108136225D01*
X149645205Y-108130392D01*
X149423797Y-107940622D01*
X149417116Y-107935624D01*
X149172563Y-107776809D01*
X149165273Y-107772735D01*
X148901868Y-107647662D01*
X148894100Y-107644586D01*
X148616469Y-107555448D01*
X148608363Y-107553427D01*
X148336830Y-107504571D01*
X148323571Y-107506003D01*
X148319000Y-107520613D01*
X148319000Y-111227885D01*
X147811000Y-111227885D01*
X147811000Y-107523633D01*
X147806705Y-107509004D01*
X147794728Y-107506942D01*
X147722947Y-107513222D01*
X147714708Y-107514497D01*
X147430120Y-107578110D01*
X147422123Y-107580464D01*
X147148466Y-107681150D01*
X147140828Y-107684550D01*
X146882885Y-107820549D01*
X146875787Y-107824916D01*
X146638095Y-107993835D01*
X146631628Y-107999108D01*
X146418361Y-108197983D01*
X146412649Y-108204067D01*
X146227563Y-108429393D01*
X146222708Y-108436174D01*
X146069042Y-108684013D01*
X146065129Y-108691373D01*
X145945596Y-108957346D01*
X145942686Y-108965169D01*
X145859376Y-109244625D01*
X145857531Y-109252746D01*
X145811809Y-109541429D01*
X145811101Y-109548403D01*
X145807064Y-109637286D01*
X145807000Y-109640119D01*
X145807000Y-111227885D01*
X138258000Y-111227885D01*
X138258000Y-109676007D01*
X138257861Y-109671818D01*
X138243451Y-109454868D01*
X138242347Y-109446597D01*
X138184710Y-109160749D01*
X138182522Y-109152697D01*
X138087591Y-108876995D01*
X138084350Y-108869284D01*
X137953787Y-108608556D01*
X137949566Y-108601362D01*
X137785659Y-108360180D01*
X137780526Y-108353610D01*
X137586161Y-108136225D01*
X137580205Y-108130392D01*
X137358797Y-107940622D01*
X137352116Y-107935624D01*
X137107563Y-107776809D01*
X137100273Y-107772735D01*
X136836868Y-107647662D01*
X136829100Y-107644586D01*
X136551469Y-107555448D01*
X136543363Y-107553427D01*
X136271830Y-107504571D01*
X136258571Y-107506003D01*
X136254000Y-107520613D01*
X136254000Y-111227885D01*
X135746000Y-111227885D01*
X135746000Y-107523633D01*
X135741705Y-107509004D01*
X135729728Y-107506942D01*
X135657947Y-107513222D01*
X135649708Y-107514497D01*
X135365120Y-107578110D01*
X135357123Y-107580464D01*
X135083466Y-107681150D01*
X135075828Y-107684550D01*
X134817885Y-107820549D01*
X134810787Y-107824916D01*
X134573095Y-107993835D01*
X134566628Y-107999108D01*
X134353361Y-108197983D01*
X134347649Y-108204067D01*
X134162563Y-108429393D01*
X134157708Y-108436174D01*
X134004042Y-108684013D01*
X134000129Y-108691373D01*
X133880596Y-108957346D01*
X133877686Y-108965169D01*
X133794376Y-109244625D01*
X133792531Y-109252746D01*
X133746809Y-109541429D01*
X133746101Y-109548403D01*
X133742064Y-109637286D01*
X133742000Y-109640119D01*
X133742000Y-111227885D01*
X128098000Y-111227885D01*
X128098000Y-109676007D01*
X128097861Y-109671818D01*
X128083451Y-109454868D01*
X128082347Y-109446597D01*
X128024710Y-109160749D01*
X128022522Y-109152697D01*
X127927591Y-108876995D01*
X127924350Y-108869284D01*
X127793787Y-108608556D01*
X127789566Y-108601362D01*
X127625659Y-108360180D01*
X127620526Y-108353610D01*
X127426161Y-108136225D01*
X127420205Y-108130392D01*
X127198797Y-107940622D01*
X127192116Y-107935624D01*
X126947563Y-107776809D01*
X126940273Y-107772735D01*
X126676868Y-107647662D01*
X126669100Y-107644586D01*
X126391469Y-107555448D01*
X126383363Y-107553427D01*
X126111830Y-107504571D01*
X126098571Y-107506003D01*
X126094000Y-107520613D01*
X126094000Y-111227885D01*
X125586000Y-111227885D01*
X125586000Y-107523633D01*
X125581705Y-107509004D01*
X125569728Y-107506942D01*
X125497947Y-107513222D01*
X125489708Y-107514497D01*
X125205120Y-107578110D01*
X125197123Y-107580464D01*
X124923466Y-107681150D01*
X124915828Y-107684550D01*
X124657885Y-107820549D01*
X124650787Y-107824916D01*
X124413095Y-107993835D01*
X124406628Y-107999108D01*
X124193361Y-108197983D01*
X124187649Y-108204067D01*
X124002563Y-108429393D01*
X123997708Y-108436174D01*
X123844042Y-108684013D01*
X123840129Y-108691373D01*
X123720596Y-108957346D01*
X123717686Y-108965169D01*
X123634376Y-109244625D01*
X123632531Y-109252746D01*
X123586809Y-109541429D01*
X123586101Y-109548403D01*
X123582064Y-109637286D01*
X123582000Y-109640119D01*
X123582000Y-111227885D01*
X116033000Y-111227885D01*
X116033000Y-109676007D01*
X116032861Y-109671818D01*
X116018451Y-109454868D01*
X116017347Y-109446597D01*
X115959710Y-109160749D01*
X115957522Y-109152697D01*
X115862591Y-108876995D01*
X115859350Y-108869284D01*
X115728787Y-108608556D01*
X115724566Y-108601362D01*
X115560659Y-108360180D01*
X115555526Y-108353610D01*
X115361161Y-108136225D01*
X115355205Y-108130392D01*
X115133797Y-107940622D01*
X115127116Y-107935624D01*
X114882563Y-107776809D01*
X114875273Y-107772735D01*
X114611868Y-107647662D01*
X114604100Y-107644586D01*
X114326469Y-107555448D01*
X114318363Y-107553427D01*
X114046830Y-107504571D01*
X114033571Y-107506003D01*
X114029000Y-107520613D01*
X114029000Y-111227885D01*
X113521000Y-111227885D01*
X113521000Y-107523633D01*
X113516705Y-107509004D01*
X113504728Y-107506942D01*
X113432947Y-107513222D01*
X113424708Y-107514497D01*
X113140120Y-107578110D01*
X113132123Y-107580464D01*
X112858466Y-107681150D01*
X112850828Y-107684550D01*
X112592885Y-107820549D01*
X112585787Y-107824916D01*
X112348095Y-107993835D01*
X112341628Y-107999108D01*
X112128361Y-108197983D01*
X112122649Y-108204067D01*
X111937563Y-108429393D01*
X111932708Y-108436174D01*
X111779042Y-108684013D01*
X111775129Y-108691373D01*
X111655596Y-108957346D01*
X111652686Y-108965169D01*
X111569376Y-109244625D01*
X111567531Y-109252746D01*
X111521809Y-109541429D01*
X111521101Y-109548403D01*
X111517064Y-109637286D01*
X111517000Y-109640119D01*
X111517000Y-111227885D01*
X105873000Y-111227885D01*
X105873000Y-109676007D01*
X105872861Y-109671818D01*
X105858451Y-109454868D01*
X105857347Y-109446597D01*
X105799710Y-109160749D01*
X105797522Y-109152697D01*
X105702591Y-108876995D01*
X105699350Y-108869284D01*
X105568787Y-108608556D01*
X105564566Y-108601362D01*
X105400659Y-108360180D01*
X105395526Y-108353610D01*
X105201161Y-108136225D01*
X105195205Y-108130392D01*
X104973797Y-107940622D01*
X104967116Y-107935624D01*
X104722563Y-107776809D01*
X104715273Y-107772735D01*
X104451868Y-107647662D01*
X104444100Y-107644586D01*
X104166469Y-107555448D01*
X104158363Y-107553427D01*
X103886830Y-107504571D01*
X103873571Y-107506003D01*
X103869000Y-107520613D01*
X103869000Y-111227885D01*
X103361000Y-111227885D01*
X103361000Y-107523633D01*
X103356705Y-107509004D01*
X103344728Y-107506942D01*
X103272947Y-107513222D01*
X103264708Y-107514497D01*
X102980120Y-107578110D01*
X102972123Y-107580464D01*
X102698466Y-107681150D01*
X102690828Y-107684550D01*
X102432885Y-107820549D01*
X102425787Y-107824916D01*
X102188095Y-107993835D01*
X102181628Y-107999108D01*
X101968361Y-108197983D01*
X101962649Y-108204067D01*
X101777563Y-108429393D01*
X101772708Y-108436174D01*
X101619042Y-108684013D01*
X101615129Y-108691373D01*
X101495596Y-108957346D01*
X101492686Y-108965169D01*
X101409376Y-109244625D01*
X101407531Y-109252746D01*
X101361809Y-109541429D01*
X101361101Y-109548403D01*
X101357064Y-109637286D01*
X101357000Y-109640119D01*
X101357000Y-111227885D01*
X93808000Y-111227885D01*
X93808000Y-109676007D01*
X93807861Y-109671818D01*
X93793451Y-109454868D01*
X93792347Y-109446597D01*
X93734710Y-109160749D01*
X93732522Y-109152697D01*
X93637591Y-108876995D01*
X93634350Y-108869284D01*
X93503787Y-108608556D01*
X93499566Y-108601362D01*
X93335659Y-108360180D01*
X93330526Y-108353610D01*
X93136161Y-108136225D01*
X93130205Y-108130392D01*
X92908797Y-107940622D01*
X92902116Y-107935624D01*
X92657563Y-107776809D01*
X92650273Y-107772735D01*
X92386868Y-107647662D01*
X92379100Y-107644586D01*
X92101469Y-107555448D01*
X92093363Y-107553427D01*
X91821830Y-107504571D01*
X91808571Y-107506003D01*
X91804000Y-107520613D01*
X91804000Y-111227885D01*
X91296000Y-111227885D01*
X91296000Y-107523633D01*
X91291705Y-107509004D01*
X91279728Y-107506942D01*
X91207947Y-107513222D01*
X91199708Y-107514497D01*
X90915120Y-107578110D01*
X90907123Y-107580464D01*
X90633466Y-107681150D01*
X90625828Y-107684550D01*
X90367885Y-107820549D01*
X90360787Y-107824916D01*
X90123095Y-107993835D01*
X90116628Y-107999108D01*
X89903361Y-108197983D01*
X89897649Y-108204067D01*
X89712563Y-108429393D01*
X89707708Y-108436174D01*
X89554042Y-108684013D01*
X89550129Y-108691373D01*
X89430596Y-108957346D01*
X89427686Y-108965169D01*
X89344376Y-109244625D01*
X89342531Y-109252746D01*
X89296809Y-109541429D01*
X89296101Y-109548403D01*
X89292064Y-109637286D01*
X89292000Y-109640119D01*
X89292000Y-111227885D01*
X83648000Y-111227885D01*
X83648000Y-109676007D01*
X83647861Y-109671818D01*
X83633451Y-109454868D01*
X83632347Y-109446597D01*
X83574710Y-109160749D01*
X83572522Y-109152697D01*
X83477591Y-108876995D01*
X83474350Y-108869284D01*
X83343787Y-108608556D01*
X83339566Y-108601362D01*
X83175659Y-108360180D01*
X83170526Y-108353610D01*
X82976161Y-108136225D01*
X82970205Y-108130392D01*
X82748797Y-107940622D01*
X82742116Y-107935624D01*
X82497563Y-107776809D01*
X82490273Y-107772735D01*
X82226868Y-107647662D01*
X82219100Y-107644586D01*
X81941469Y-107555448D01*
X81933363Y-107553427D01*
X81661830Y-107504571D01*
X81648571Y-107506003D01*
X81644000Y-107520613D01*
X81644000Y-111227885D01*
X81136000Y-111227885D01*
X81136000Y-107523633D01*
X81131705Y-107509004D01*
X81119728Y-107506942D01*
X81047947Y-107513222D01*
X81039708Y-107514497D01*
X80755120Y-107578110D01*
X80747123Y-107580464D01*
X80473466Y-107681150D01*
X80465828Y-107684550D01*
X80207885Y-107820549D01*
X80200787Y-107824916D01*
X79963095Y-107993835D01*
X79956628Y-107999108D01*
X79743361Y-108197983D01*
X79737649Y-108204067D01*
X79552563Y-108429393D01*
X79547708Y-108436174D01*
X79394042Y-108684013D01*
X79390129Y-108691373D01*
X79270596Y-108957346D01*
X79267686Y-108965169D01*
X79184376Y-109244625D01*
X79182531Y-109252746D01*
X79136809Y-109541429D01*
X79136101Y-109548403D01*
X79132064Y-109637286D01*
X79132000Y-109640119D01*
X79132000Y-111227885D01*
X74478000Y-111227885D01*
X74478000Y-106927127D01*
X85161500Y-106927127D01*
X85176457Y-107098087D01*
X85235716Y-107319243D01*
X85238039Y-107324224D01*
X85238039Y-107324225D01*
X85330151Y-107521762D01*
X85330154Y-107521767D01*
X85332477Y-107526749D01*
X85463802Y-107714300D01*
X85625700Y-107876198D01*
X85630208Y-107879355D01*
X85630211Y-107879357D01*
X85708389Y-107934098D01*
X85813251Y-108007523D01*
X85818233Y-108009846D01*
X85818238Y-108009849D01*
X86014765Y-108101490D01*
X86020757Y-108104284D01*
X86026065Y-108105706D01*
X86026067Y-108105707D01*
X86236598Y-108162119D01*
X86236600Y-108162119D01*
X86241913Y-108163543D01*
X86470000Y-108183498D01*
X86698087Y-108163543D01*
X86703400Y-108162119D01*
X86703402Y-108162119D01*
X86913933Y-108105707D01*
X86913935Y-108105706D01*
X86919243Y-108104284D01*
X86925235Y-108101490D01*
X87121762Y-108009849D01*
X87121767Y-108009846D01*
X87126749Y-108007523D01*
X87231611Y-107934098D01*
X87309789Y-107879357D01*
X87309792Y-107879355D01*
X87314300Y-107876198D01*
X87476198Y-107714300D01*
X87607523Y-107526749D01*
X87609846Y-107521767D01*
X87609849Y-107521762D01*
X87626081Y-107486951D01*
X87672998Y-107433666D01*
X87741275Y-107414205D01*
X87809235Y-107434747D01*
X87854471Y-107486951D01*
X87870586Y-107521511D01*
X87876069Y-107531007D01*
X88001028Y-107709467D01*
X88008084Y-107717875D01*
X88162125Y-107871916D01*
X88170533Y-107878972D01*
X88348993Y-108003931D01*
X88358489Y-108009414D01*
X88555947Y-108101490D01*
X88566239Y-108105236D01*
X88738503Y-108151394D01*
X88752599Y-108151058D01*
X88756000Y-108143116D01*
X88756000Y-108137967D01*
X89264000Y-108137967D01*
X89267973Y-108151498D01*
X89276522Y-108152727D01*
X89453761Y-108105236D01*
X89464053Y-108101490D01*
X89661511Y-108009414D01*
X89671007Y-108003931D01*
X89849467Y-107878972D01*
X89857875Y-107871916D01*
X90011916Y-107717875D01*
X90018972Y-107709467D01*
X90143931Y-107531007D01*
X90149414Y-107521511D01*
X90241490Y-107324053D01*
X90245236Y-107313761D01*
X90301625Y-107103312D01*
X90303528Y-107092519D01*
X90317762Y-106929830D01*
X90317880Y-106927127D01*
X107386500Y-106927127D01*
X107401457Y-107098087D01*
X107460716Y-107319243D01*
X107463039Y-107324224D01*
X107463039Y-107324225D01*
X107555151Y-107521762D01*
X107555154Y-107521767D01*
X107557477Y-107526749D01*
X107688802Y-107714300D01*
X107850700Y-107876198D01*
X107855208Y-107879355D01*
X107855211Y-107879357D01*
X107933389Y-107934098D01*
X108038251Y-108007523D01*
X108043233Y-108009846D01*
X108043238Y-108009849D01*
X108239765Y-108101490D01*
X108245757Y-108104284D01*
X108251065Y-108105706D01*
X108251067Y-108105707D01*
X108461598Y-108162119D01*
X108461600Y-108162119D01*
X108466913Y-108163543D01*
X108695000Y-108183498D01*
X108923087Y-108163543D01*
X108928400Y-108162119D01*
X108928402Y-108162119D01*
X109138933Y-108105707D01*
X109138935Y-108105706D01*
X109144243Y-108104284D01*
X109150235Y-108101490D01*
X109346762Y-108009849D01*
X109346767Y-108009846D01*
X109351749Y-108007523D01*
X109456611Y-107934098D01*
X109534789Y-107879357D01*
X109534792Y-107879355D01*
X109539300Y-107876198D01*
X109701198Y-107714300D01*
X109832523Y-107526749D01*
X109834846Y-107521767D01*
X109834849Y-107521762D01*
X109851081Y-107486951D01*
X109897998Y-107433666D01*
X109966275Y-107414205D01*
X110034235Y-107434747D01*
X110079471Y-107486951D01*
X110095586Y-107521511D01*
X110101069Y-107531007D01*
X110226028Y-107709467D01*
X110233084Y-107717875D01*
X110387125Y-107871916D01*
X110395533Y-107878972D01*
X110573993Y-108003931D01*
X110583489Y-108009414D01*
X110780947Y-108101490D01*
X110791239Y-108105236D01*
X110963503Y-108151394D01*
X110977599Y-108151058D01*
X110981000Y-108143116D01*
X110981000Y-108137967D01*
X111489000Y-108137967D01*
X111492973Y-108151498D01*
X111501522Y-108152727D01*
X111678761Y-108105236D01*
X111689053Y-108101490D01*
X111886511Y-108009414D01*
X111896007Y-108003931D01*
X112074467Y-107878972D01*
X112082875Y-107871916D01*
X112236916Y-107717875D01*
X112243972Y-107709467D01*
X112368931Y-107531007D01*
X112374414Y-107521511D01*
X112466490Y-107324053D01*
X112470236Y-107313761D01*
X112526625Y-107103312D01*
X112528528Y-107092519D01*
X112542762Y-106929830D01*
X112542880Y-106927127D01*
X129611500Y-106927127D01*
X129626457Y-107098087D01*
X129685716Y-107319243D01*
X129688039Y-107324224D01*
X129688039Y-107324225D01*
X129780151Y-107521762D01*
X129780154Y-107521767D01*
X129782477Y-107526749D01*
X129913802Y-107714300D01*
X130075700Y-107876198D01*
X130080208Y-107879355D01*
X130080211Y-107879357D01*
X130158389Y-107934098D01*
X130263251Y-108007523D01*
X130268233Y-108009846D01*
X130268238Y-108009849D01*
X130464765Y-108101490D01*
X130470757Y-108104284D01*
X130476065Y-108105706D01*
X130476067Y-108105707D01*
X130686598Y-108162119D01*
X130686600Y-108162119D01*
X130691913Y-108163543D01*
X130920000Y-108183498D01*
X131148087Y-108163543D01*
X131153400Y-108162119D01*
X131153402Y-108162119D01*
X131363933Y-108105707D01*
X131363935Y-108105706D01*
X131369243Y-108104284D01*
X131375235Y-108101490D01*
X131571762Y-108009849D01*
X131571767Y-108009846D01*
X131576749Y-108007523D01*
X131681611Y-107934098D01*
X131759789Y-107879357D01*
X131759792Y-107879355D01*
X131764300Y-107876198D01*
X131926198Y-107714300D01*
X132057523Y-107526749D01*
X132059846Y-107521767D01*
X132059849Y-107521762D01*
X132076081Y-107486951D01*
X132122998Y-107433666D01*
X132191275Y-107414205D01*
X132259235Y-107434747D01*
X132304471Y-107486951D01*
X132320586Y-107521511D01*
X132326069Y-107531007D01*
X132451028Y-107709467D01*
X132458084Y-107717875D01*
X132612125Y-107871916D01*
X132620533Y-107878972D01*
X132798993Y-108003931D01*
X132808489Y-108009414D01*
X133005947Y-108101490D01*
X133016239Y-108105236D01*
X133188503Y-108151394D01*
X133202599Y-108151058D01*
X133206000Y-108143116D01*
X133206000Y-108137967D01*
X133714000Y-108137967D01*
X133717973Y-108151498D01*
X133726522Y-108152727D01*
X133903761Y-108105236D01*
X133914053Y-108101490D01*
X134111511Y-108009414D01*
X134121007Y-108003931D01*
X134299467Y-107878972D01*
X134307875Y-107871916D01*
X134461916Y-107717875D01*
X134468972Y-107709467D01*
X134593931Y-107531007D01*
X134599414Y-107521511D01*
X134691490Y-107324053D01*
X134695236Y-107313761D01*
X134751625Y-107103312D01*
X134753528Y-107092519D01*
X134767762Y-106929830D01*
X134767880Y-106927127D01*
X151836500Y-106927127D01*
X151851457Y-107098087D01*
X151910716Y-107319243D01*
X151913039Y-107324224D01*
X151913039Y-107324225D01*
X152005151Y-107521762D01*
X152005154Y-107521767D01*
X152007477Y-107526749D01*
X152138802Y-107714300D01*
X152300700Y-107876198D01*
X152305208Y-107879355D01*
X152305211Y-107879357D01*
X152383389Y-107934098D01*
X152488251Y-108007523D01*
X152493233Y-108009846D01*
X152493238Y-108009849D01*
X152689765Y-108101490D01*
X152695757Y-108104284D01*
X152701065Y-108105706D01*
X152701067Y-108105707D01*
X152911598Y-108162119D01*
X152911600Y-108162119D01*
X152916913Y-108163543D01*
X153145000Y-108183498D01*
X153373087Y-108163543D01*
X153378400Y-108162119D01*
X153378402Y-108162119D01*
X153588933Y-108105707D01*
X153588935Y-108105706D01*
X153594243Y-108104284D01*
X153600235Y-108101490D01*
X153796762Y-108009849D01*
X153796767Y-108009846D01*
X153801749Y-108007523D01*
X153906611Y-107934098D01*
X153984789Y-107879357D01*
X153984792Y-107879355D01*
X153989300Y-107876198D01*
X154151198Y-107714300D01*
X154282523Y-107526749D01*
X154284846Y-107521767D01*
X154284849Y-107521762D01*
X154301081Y-107486951D01*
X154347998Y-107433666D01*
X154416275Y-107414205D01*
X154484235Y-107434747D01*
X154529471Y-107486951D01*
X154545586Y-107521511D01*
X154551069Y-107531007D01*
X154676028Y-107709467D01*
X154683084Y-107717875D01*
X154837125Y-107871916D01*
X154845533Y-107878972D01*
X155023993Y-108003931D01*
X155033489Y-108009414D01*
X155230947Y-108101490D01*
X155241239Y-108105236D01*
X155413503Y-108151394D01*
X155427599Y-108151058D01*
X155431000Y-108143116D01*
X155431000Y-108137967D01*
X155939000Y-108137967D01*
X155942973Y-108151498D01*
X155951522Y-108152727D01*
X156128761Y-108105236D01*
X156139053Y-108101490D01*
X156336511Y-108009414D01*
X156346007Y-108003931D01*
X156524467Y-107878972D01*
X156532875Y-107871916D01*
X156686916Y-107717875D01*
X156693972Y-107709467D01*
X156818931Y-107531007D01*
X156824414Y-107521511D01*
X156916490Y-107324053D01*
X156920236Y-107313761D01*
X156976625Y-107103312D01*
X156978528Y-107092519D01*
X156992762Y-106929830D01*
X156993000Y-106924365D01*
X156993000Y-106692115D01*
X156988525Y-106676876D01*
X156987135Y-106675671D01*
X156979452Y-106674000D01*
X155957115Y-106674000D01*
X155941876Y-106678475D01*
X155940671Y-106679865D01*
X155939000Y-106687548D01*
X155939000Y-108137967D01*
X155431000Y-108137967D01*
X155431000Y-106147885D01*
X155939000Y-106147885D01*
X155943475Y-106163124D01*
X155944865Y-106164329D01*
X155952548Y-106166000D01*
X156974885Y-106166000D01*
X156990124Y-106161525D01*
X156991329Y-106160135D01*
X156993000Y-106152452D01*
X156993000Y-105915635D01*
X156992762Y-105910170D01*
X156978528Y-105747481D01*
X156976625Y-105736688D01*
X156920236Y-105526239D01*
X156916490Y-105515947D01*
X156824414Y-105318489D01*
X156818931Y-105308993D01*
X156693972Y-105130533D01*
X156686916Y-105122125D01*
X156532875Y-104968084D01*
X156524467Y-104961028D01*
X156346007Y-104836069D01*
X156336511Y-104830586D01*
X156139053Y-104738510D01*
X156128761Y-104734764D01*
X155956497Y-104688606D01*
X155942401Y-104688942D01*
X155939000Y-104696884D01*
X155939000Y-106147885D01*
X155431000Y-106147885D01*
X155431000Y-104702033D01*
X155427027Y-104688502D01*
X155418478Y-104687273D01*
X155241239Y-104734764D01*
X155230947Y-104738510D01*
X155033489Y-104830586D01*
X155023993Y-104836069D01*
X154845533Y-104961028D01*
X154837125Y-104968084D01*
X154683084Y-105122125D01*
X154676028Y-105130533D01*
X154551069Y-105308993D01*
X154545586Y-105318489D01*
X154529471Y-105353049D01*
X154482554Y-105406334D01*
X154414277Y-105425795D01*
X154346317Y-105405253D01*
X154301081Y-105353049D01*
X154284849Y-105318238D01*
X154284846Y-105318233D01*
X154282523Y-105313251D01*
X154151198Y-105125700D01*
X153989300Y-104963802D01*
X153984792Y-104960645D01*
X153984789Y-104960643D01*
X153906611Y-104905902D01*
X153801749Y-104832477D01*
X153796767Y-104830154D01*
X153796762Y-104830151D01*
X153599225Y-104738039D01*
X153599224Y-104738039D01*
X153594243Y-104735716D01*
X153588935Y-104734294D01*
X153588933Y-104734293D01*
X153378402Y-104677881D01*
X153378400Y-104677881D01*
X153373087Y-104676457D01*
X153145000Y-104656502D01*
X152916913Y-104676457D01*
X152911600Y-104677881D01*
X152911598Y-104677881D01*
X152701067Y-104734293D01*
X152701065Y-104734294D01*
X152695757Y-104735716D01*
X152690776Y-104738039D01*
X152690775Y-104738039D01*
X152493238Y-104830151D01*
X152493233Y-104830154D01*
X152488251Y-104832477D01*
X152383389Y-104905902D01*
X152305211Y-104960643D01*
X152305208Y-104960645D01*
X152300700Y-104963802D01*
X152138802Y-105125700D01*
X152007477Y-105313251D01*
X152005154Y-105318233D01*
X152005151Y-105318238D01*
X152005034Y-105318489D01*
X151910716Y-105520757D01*
X151851457Y-105741913D01*
X151836500Y-105912873D01*
X151836500Y-106927127D01*
X134767880Y-106927127D01*
X134768000Y-106924365D01*
X134768000Y-106692115D01*
X134763525Y-106676876D01*
X134762135Y-106675671D01*
X134754452Y-106674000D01*
X133732115Y-106674000D01*
X133716876Y-106678475D01*
X133715671Y-106679865D01*
X133714000Y-106687548D01*
X133714000Y-108137967D01*
X133206000Y-108137967D01*
X133206000Y-106147885D01*
X133714000Y-106147885D01*
X133718475Y-106163124D01*
X133719865Y-106164329D01*
X133727548Y-106166000D01*
X134749885Y-106166000D01*
X134765124Y-106161525D01*
X134766329Y-106160135D01*
X134768000Y-106152452D01*
X134768000Y-105915635D01*
X134767762Y-105910170D01*
X134753528Y-105747481D01*
X134751625Y-105736688D01*
X134695236Y-105526239D01*
X134691490Y-105515947D01*
X134599414Y-105318489D01*
X134593931Y-105308993D01*
X134468972Y-105130533D01*
X134461916Y-105122125D01*
X134307875Y-104968084D01*
X134299467Y-104961028D01*
X134121007Y-104836069D01*
X134111511Y-104830586D01*
X133914053Y-104738510D01*
X133903761Y-104734764D01*
X133731497Y-104688606D01*
X133717401Y-104688942D01*
X133714000Y-104696884D01*
X133714000Y-106147885D01*
X133206000Y-106147885D01*
X133206000Y-104702033D01*
X133202027Y-104688502D01*
X133193478Y-104687273D01*
X133016239Y-104734764D01*
X133005947Y-104738510D01*
X132808489Y-104830586D01*
X132798993Y-104836069D01*
X132620533Y-104961028D01*
X132612125Y-104968084D01*
X132458084Y-105122125D01*
X132451028Y-105130533D01*
X132326069Y-105308993D01*
X132320586Y-105318489D01*
X132304471Y-105353049D01*
X132257554Y-105406334D01*
X132189277Y-105425795D01*
X132121317Y-105405253D01*
X132076081Y-105353049D01*
X132059849Y-105318238D01*
X132059846Y-105318233D01*
X132057523Y-105313251D01*
X131926198Y-105125700D01*
X131764300Y-104963802D01*
X131759792Y-104960645D01*
X131759789Y-104960643D01*
X131681611Y-104905902D01*
X131576749Y-104832477D01*
X131571767Y-104830154D01*
X131571762Y-104830151D01*
X131374225Y-104738039D01*
X131374224Y-104738039D01*
X131369243Y-104735716D01*
X131363935Y-104734294D01*
X131363933Y-104734293D01*
X131153402Y-104677881D01*
X131153400Y-104677881D01*
X131148087Y-104676457D01*
X130920000Y-104656502D01*
X130691913Y-104676457D01*
X130686600Y-104677881D01*
X130686598Y-104677881D01*
X130476067Y-104734293D01*
X130476065Y-104734294D01*
X130470757Y-104735716D01*
X130465776Y-104738039D01*
X130465775Y-104738039D01*
X130268238Y-104830151D01*
X130268233Y-104830154D01*
X130263251Y-104832477D01*
X130158389Y-104905902D01*
X130080211Y-104960643D01*
X130080208Y-104960645D01*
X130075700Y-104963802D01*
X129913802Y-105125700D01*
X129782477Y-105313251D01*
X129780154Y-105318233D01*
X129780151Y-105318238D01*
X129780034Y-105318489D01*
X129685716Y-105520757D01*
X129626457Y-105741913D01*
X129611500Y-105912873D01*
X129611500Y-106927127D01*
X112542880Y-106927127D01*
X112543000Y-106924365D01*
X112543000Y-106692115D01*
X112538525Y-106676876D01*
X112537135Y-106675671D01*
X112529452Y-106674000D01*
X111507115Y-106674000D01*
X111491876Y-106678475D01*
X111490671Y-106679865D01*
X111489000Y-106687548D01*
X111489000Y-108137967D01*
X110981000Y-108137967D01*
X110981000Y-106147885D01*
X111489000Y-106147885D01*
X111493475Y-106163124D01*
X111494865Y-106164329D01*
X111502548Y-106166000D01*
X112524885Y-106166000D01*
X112540124Y-106161525D01*
X112541329Y-106160135D01*
X112543000Y-106152452D01*
X112543000Y-105915635D01*
X112542762Y-105910170D01*
X112528528Y-105747481D01*
X112526625Y-105736688D01*
X112470236Y-105526239D01*
X112466490Y-105515947D01*
X112374414Y-105318489D01*
X112368931Y-105308993D01*
X112243972Y-105130533D01*
X112236916Y-105122125D01*
X112082875Y-104968084D01*
X112074467Y-104961028D01*
X111896007Y-104836069D01*
X111886511Y-104830586D01*
X111689053Y-104738510D01*
X111678761Y-104734764D01*
X111506497Y-104688606D01*
X111492401Y-104688942D01*
X111489000Y-104696884D01*
X111489000Y-106147885D01*
X110981000Y-106147885D01*
X110981000Y-104702033D01*
X110977027Y-104688502D01*
X110968478Y-104687273D01*
X110791239Y-104734764D01*
X110780947Y-104738510D01*
X110583489Y-104830586D01*
X110573993Y-104836069D01*
X110395533Y-104961028D01*
X110387125Y-104968084D01*
X110233084Y-105122125D01*
X110226028Y-105130533D01*
X110101069Y-105308993D01*
X110095586Y-105318489D01*
X110079471Y-105353049D01*
X110032554Y-105406334D01*
X109964277Y-105425795D01*
X109896317Y-105405253D01*
X109851081Y-105353049D01*
X109834849Y-105318238D01*
X109834846Y-105318233D01*
X109832523Y-105313251D01*
X109701198Y-105125700D01*
X109539300Y-104963802D01*
X109534792Y-104960645D01*
X109534789Y-104960643D01*
X109456611Y-104905902D01*
X109351749Y-104832477D01*
X109346767Y-104830154D01*
X109346762Y-104830151D01*
X109149225Y-104738039D01*
X109149224Y-104738039D01*
X109144243Y-104735716D01*
X109138935Y-104734294D01*
X109138933Y-104734293D01*
X108928402Y-104677881D01*
X108928400Y-104677881D01*
X108923087Y-104676457D01*
X108695000Y-104656502D01*
X108466913Y-104676457D01*
X108461600Y-104677881D01*
X108461598Y-104677881D01*
X108251067Y-104734293D01*
X108251065Y-104734294D01*
X108245757Y-104735716D01*
X108240776Y-104738039D01*
X108240775Y-104738039D01*
X108043238Y-104830151D01*
X108043233Y-104830154D01*
X108038251Y-104832477D01*
X107933389Y-104905902D01*
X107855211Y-104960643D01*
X107855208Y-104960645D01*
X107850700Y-104963802D01*
X107688802Y-105125700D01*
X107557477Y-105313251D01*
X107555154Y-105318233D01*
X107555151Y-105318238D01*
X107555034Y-105318489D01*
X107460716Y-105520757D01*
X107401457Y-105741913D01*
X107386500Y-105912873D01*
X107386500Y-106927127D01*
X90317880Y-106927127D01*
X90318000Y-106924365D01*
X90318000Y-106692115D01*
X90313525Y-106676876D01*
X90312135Y-106675671D01*
X90304452Y-106674000D01*
X89282115Y-106674000D01*
X89266876Y-106678475D01*
X89265671Y-106679865D01*
X89264000Y-106687548D01*
X89264000Y-108137967D01*
X88756000Y-108137967D01*
X88756000Y-106147885D01*
X89264000Y-106147885D01*
X89268475Y-106163124D01*
X89269865Y-106164329D01*
X89277548Y-106166000D01*
X90299885Y-106166000D01*
X90315124Y-106161525D01*
X90316329Y-106160135D01*
X90318000Y-106152452D01*
X90318000Y-105915635D01*
X90317762Y-105910170D01*
X90303528Y-105747481D01*
X90301625Y-105736688D01*
X90245236Y-105526239D01*
X90241490Y-105515947D01*
X90149414Y-105318489D01*
X90143931Y-105308993D01*
X90018972Y-105130533D01*
X90011916Y-105122125D01*
X89857875Y-104968084D01*
X89849467Y-104961028D01*
X89671007Y-104836069D01*
X89661511Y-104830586D01*
X89464053Y-104738510D01*
X89453761Y-104734764D01*
X89281497Y-104688606D01*
X89267401Y-104688942D01*
X89264000Y-104696884D01*
X89264000Y-106147885D01*
X88756000Y-106147885D01*
X88756000Y-104702033D01*
X88752027Y-104688502D01*
X88743478Y-104687273D01*
X88566239Y-104734764D01*
X88555947Y-104738510D01*
X88358489Y-104830586D01*
X88348993Y-104836069D01*
X88170533Y-104961028D01*
X88162125Y-104968084D01*
X88008084Y-105122125D01*
X88001028Y-105130533D01*
X87876069Y-105308993D01*
X87870586Y-105318489D01*
X87854471Y-105353049D01*
X87807554Y-105406334D01*
X87739277Y-105425795D01*
X87671317Y-105405253D01*
X87626081Y-105353049D01*
X87609849Y-105318238D01*
X87609846Y-105318233D01*
X87607523Y-105313251D01*
X87476198Y-105125700D01*
X87314300Y-104963802D01*
X87309792Y-104960645D01*
X87309789Y-104960643D01*
X87231611Y-104905902D01*
X87126749Y-104832477D01*
X87121767Y-104830154D01*
X87121762Y-104830151D01*
X86924225Y-104738039D01*
X86924224Y-104738039D01*
X86919243Y-104735716D01*
X86913935Y-104734294D01*
X86913933Y-104734293D01*
X86703402Y-104677881D01*
X86703400Y-104677881D01*
X86698087Y-104676457D01*
X86470000Y-104656502D01*
X86241913Y-104676457D01*
X86236600Y-104677881D01*
X86236598Y-104677881D01*
X86026067Y-104734293D01*
X86026065Y-104734294D01*
X86020757Y-104735716D01*
X86015776Y-104738039D01*
X86015775Y-104738039D01*
X85818238Y-104830151D01*
X85818233Y-104830154D01*
X85813251Y-104832477D01*
X85708389Y-104905902D01*
X85630211Y-104960643D01*
X85630208Y-104960645D01*
X85625700Y-104963802D01*
X85463802Y-105125700D01*
X85332477Y-105313251D01*
X85330154Y-105318233D01*
X85330151Y-105318238D01*
X85330034Y-105318489D01*
X85235716Y-105520757D01*
X85176457Y-105741913D01*
X85161500Y-105912873D01*
X85161500Y-106927127D01*
X74478000Y-106927127D01*
X74478000Y-95797386D01*
X76567759Y-95797386D01*
X76575216Y-95807753D01*
X76814935Y-96001874D01*
X76820272Y-96005751D01*
X77140685Y-96213830D01*
X77146394Y-96217127D01*
X77486811Y-96390578D01*
X77492836Y-96393260D01*
X77849502Y-96530171D01*
X77855784Y-96532212D01*
X78224816Y-96631094D01*
X78231266Y-96632465D01*
X78608629Y-96692234D01*
X78615167Y-96692920D01*
X78996699Y-96712916D01*
X79003301Y-96712916D01*
X79384833Y-96692920D01*
X79391371Y-96692234D01*
X79768734Y-96632465D01*
X79775184Y-96631094D01*
X80144216Y-96532212D01*
X80150498Y-96530171D01*
X80507164Y-96393260D01*
X80513189Y-96390578D01*
X80853606Y-96217127D01*
X80859315Y-96213830D01*
X81179728Y-96005751D01*
X81185065Y-96001874D01*
X81423835Y-95808522D01*
X81431527Y-95797386D01*
X158567759Y-95797386D01*
X158575216Y-95807753D01*
X158814935Y-96001874D01*
X158820272Y-96005751D01*
X159140685Y-96213830D01*
X159146394Y-96217127D01*
X159486811Y-96390578D01*
X159492836Y-96393260D01*
X159849502Y-96530171D01*
X159855784Y-96532212D01*
X160224816Y-96631094D01*
X160231266Y-96632465D01*
X160608629Y-96692234D01*
X160615167Y-96692920D01*
X160996699Y-96712916D01*
X161003301Y-96712916D01*
X161384833Y-96692920D01*
X161391371Y-96692234D01*
X161768734Y-96632465D01*
X161775184Y-96631094D01*
X162144216Y-96532212D01*
X162150498Y-96530171D01*
X162507164Y-96393260D01*
X162513189Y-96390578D01*
X162853606Y-96217127D01*
X162859315Y-96213830D01*
X163179728Y-96005751D01*
X163185065Y-96001874D01*
X163423835Y-95808522D01*
X163432300Y-95796267D01*
X163425966Y-95785176D01*
X161012812Y-93372022D01*
X160998868Y-93364408D01*
X160997035Y-93364539D01*
X160990420Y-93368790D01*
X158574900Y-95784310D01*
X158567759Y-95797386D01*
X81431527Y-95797386D01*
X81432300Y-95796267D01*
X81425966Y-95785176D01*
X79012812Y-93372022D01*
X78998868Y-93364408D01*
X78997035Y-93364539D01*
X78990420Y-93368790D01*
X76574900Y-95784310D01*
X76567759Y-95797386D01*
X74478000Y-95797386D01*
X74478000Y-93003301D01*
X75287084Y-93003301D01*
X75307080Y-93384833D01*
X75307766Y-93391371D01*
X75367535Y-93768734D01*
X75368906Y-93775184D01*
X75467788Y-94144216D01*
X75469829Y-94150498D01*
X75606740Y-94507164D01*
X75609422Y-94513189D01*
X75782872Y-94853603D01*
X75786169Y-94859313D01*
X75994253Y-95179735D01*
X75998123Y-95185061D01*
X76191478Y-95423835D01*
X76203733Y-95432300D01*
X76214824Y-95425966D01*
X78627978Y-93012812D01*
X78634356Y-93001132D01*
X79364408Y-93001132D01*
X79364539Y-93002965D01*
X79368790Y-93009580D01*
X81784310Y-95425100D01*
X81797386Y-95432241D01*
X81807753Y-95424784D01*
X82001877Y-95185061D01*
X82005747Y-95179735D01*
X82213831Y-94859313D01*
X82217128Y-94853603D01*
X82390578Y-94513189D01*
X82393260Y-94507164D01*
X82439504Y-94386695D01*
X85487251Y-94386695D01*
X85487548Y-94391848D01*
X85487548Y-94391851D01*
X85493011Y-94486590D01*
X85500110Y-94609715D01*
X85501247Y-94614761D01*
X85501248Y-94614767D01*
X85521119Y-94702939D01*
X85549222Y-94827639D01*
X85633266Y-95034616D01*
X85670685Y-95095678D01*
X85747291Y-95220688D01*
X85749987Y-95225088D01*
X85896250Y-95393938D01*
X86068126Y-95536632D01*
X86261000Y-95649338D01*
X86469692Y-95729030D01*
X86474760Y-95730061D01*
X86474763Y-95730062D01*
X86582017Y-95751883D01*
X86688597Y-95773567D01*
X86693772Y-95773757D01*
X86693774Y-95773757D01*
X86906673Y-95781564D01*
X86906677Y-95781564D01*
X86911837Y-95781753D01*
X86916957Y-95781097D01*
X86916959Y-95781097D01*
X87128288Y-95754025D01*
X87128289Y-95754025D01*
X87133416Y-95753368D01*
X87138366Y-95751883D01*
X87342429Y-95690661D01*
X87342434Y-95690659D01*
X87347384Y-95689174D01*
X87547994Y-95590896D01*
X87729860Y-95461173D01*
X87766377Y-95424784D01*
X87824124Y-95367238D01*
X87888096Y-95303489D01*
X87947594Y-95220689D01*
X88018453Y-95122077D01*
X88019776Y-95123028D01*
X88066645Y-95079857D01*
X88136580Y-95067625D01*
X88202026Y-95095144D01*
X88229875Y-95126994D01*
X88289987Y-95225088D01*
X88436250Y-95393938D01*
X88608126Y-95536632D01*
X88801000Y-95649338D01*
X89009692Y-95729030D01*
X89014760Y-95730061D01*
X89014763Y-95730062D01*
X89122017Y-95751883D01*
X89228597Y-95773567D01*
X89233772Y-95773757D01*
X89233774Y-95773757D01*
X89446673Y-95781564D01*
X89446677Y-95781564D01*
X89451837Y-95781753D01*
X89456957Y-95781097D01*
X89456959Y-95781097D01*
X89668288Y-95754025D01*
X89668289Y-95754025D01*
X89673416Y-95753368D01*
X89678366Y-95751883D01*
X89882429Y-95690661D01*
X89882434Y-95690659D01*
X89887384Y-95689174D01*
X90087994Y-95590896D01*
X90269860Y-95461173D01*
X90306377Y-95424784D01*
X90364124Y-95367238D01*
X90428096Y-95303489D01*
X90487594Y-95220689D01*
X90558453Y-95122077D01*
X90559776Y-95123028D01*
X90606645Y-95079857D01*
X90676580Y-95067625D01*
X90742026Y-95095144D01*
X90769875Y-95126994D01*
X90829987Y-95225088D01*
X90976250Y-95393938D01*
X91148126Y-95536632D01*
X91341000Y-95649338D01*
X91549692Y-95729030D01*
X91554760Y-95730061D01*
X91554763Y-95730062D01*
X91662017Y-95751883D01*
X91768597Y-95773567D01*
X91773772Y-95773757D01*
X91773774Y-95773757D01*
X91986673Y-95781564D01*
X91986677Y-95781564D01*
X91991837Y-95781753D01*
X91996957Y-95781097D01*
X91996959Y-95781097D01*
X92208288Y-95754025D01*
X92208289Y-95754025D01*
X92213416Y-95753368D01*
X92218366Y-95751883D01*
X92422429Y-95690661D01*
X92422434Y-95690659D01*
X92427384Y-95689174D01*
X92627994Y-95590896D01*
X92809860Y-95461173D01*
X92846377Y-95424784D01*
X92904124Y-95367238D01*
X92968096Y-95303489D01*
X93027594Y-95220689D01*
X93098453Y-95122077D01*
X93099776Y-95123028D01*
X93146645Y-95079857D01*
X93216580Y-95067625D01*
X93282026Y-95095144D01*
X93309875Y-95126994D01*
X93369987Y-95225088D01*
X93516250Y-95393938D01*
X93688126Y-95536632D01*
X93881000Y-95649338D01*
X94089692Y-95729030D01*
X94094760Y-95730061D01*
X94094763Y-95730062D01*
X94202017Y-95751883D01*
X94308597Y-95773567D01*
X94313772Y-95773757D01*
X94313774Y-95773757D01*
X94526673Y-95781564D01*
X94526677Y-95781564D01*
X94531837Y-95781753D01*
X94536957Y-95781097D01*
X94536959Y-95781097D01*
X94748288Y-95754025D01*
X94748289Y-95754025D01*
X94753416Y-95753368D01*
X94758366Y-95751883D01*
X94962429Y-95690661D01*
X94962434Y-95690659D01*
X94967384Y-95689174D01*
X95167994Y-95590896D01*
X95349860Y-95461173D01*
X95386377Y-95424784D01*
X95444124Y-95367238D01*
X95508096Y-95303489D01*
X95567594Y-95220689D01*
X95635435Y-95126277D01*
X95638453Y-95122077D01*
X95659320Y-95079857D01*
X95735136Y-94926453D01*
X95735137Y-94926451D01*
X95737430Y-94921811D01*
X95802370Y-94708069D01*
X95831529Y-94486590D01*
X95833156Y-94420000D01*
X95814852Y-94197361D01*
X95760431Y-93980702D01*
X95671354Y-93775840D01*
X95550014Y-93588277D01*
X95399670Y-93423051D01*
X95395619Y-93419852D01*
X95395615Y-93419848D01*
X95228414Y-93287800D01*
X95228410Y-93287798D01*
X95224359Y-93284598D01*
X95183053Y-93261796D01*
X95133084Y-93211364D01*
X95118312Y-93141921D01*
X95143428Y-93075516D01*
X95170780Y-93048909D01*
X95237761Y-93001132D01*
X95349860Y-92921173D01*
X95508096Y-92763489D01*
X95567594Y-92680689D01*
X95635435Y-92586277D01*
X95638453Y-92582077D01*
X95659320Y-92539857D01*
X95735136Y-92386453D01*
X95735137Y-92386451D01*
X95737430Y-92381811D01*
X95802370Y-92168069D01*
X95831529Y-91946590D01*
X95833156Y-91880000D01*
X95814852Y-91657361D01*
X95760431Y-91440702D01*
X95671354Y-91235840D01*
X95580831Y-91095913D01*
X95552822Y-91052617D01*
X95552820Y-91052614D01*
X95550014Y-91048277D01*
X95399670Y-90883051D01*
X95395619Y-90879852D01*
X95395615Y-90879848D01*
X95228414Y-90747800D01*
X95228410Y-90747798D01*
X95224359Y-90744598D01*
X95028789Y-90636638D01*
X95023920Y-90634914D01*
X95023916Y-90634912D01*
X94823087Y-90563795D01*
X94823083Y-90563794D01*
X94818212Y-90562069D01*
X94813119Y-90561162D01*
X94813116Y-90561161D01*
X94603373Y-90523800D01*
X94603367Y-90523799D01*
X94598284Y-90522894D01*
X94524452Y-90521992D01*
X94380081Y-90520228D01*
X94380079Y-90520228D01*
X94374911Y-90520165D01*
X94154091Y-90553955D01*
X93941756Y-90623357D01*
X93743607Y-90726507D01*
X93739474Y-90729610D01*
X93739471Y-90729612D01*
X93569100Y-90857530D01*
X93564965Y-90860635D01*
X93561393Y-90864373D01*
X93444684Y-90986502D01*
X93410629Y-91022138D01*
X93303201Y-91179621D01*
X93248293Y-91224621D01*
X93177768Y-91232792D01*
X93114021Y-91201538D01*
X93093324Y-91177054D01*
X93012822Y-91052617D01*
X93012820Y-91052614D01*
X93010014Y-91048277D01*
X92859670Y-90883051D01*
X92855619Y-90879852D01*
X92855615Y-90879848D01*
X92688414Y-90747800D01*
X92688410Y-90747798D01*
X92684359Y-90744598D01*
X92488789Y-90636638D01*
X92483920Y-90634914D01*
X92483916Y-90634912D01*
X92283087Y-90563795D01*
X92283083Y-90563794D01*
X92278212Y-90562069D01*
X92273119Y-90561162D01*
X92273116Y-90561161D01*
X92063373Y-90523800D01*
X92063367Y-90523799D01*
X92058284Y-90522894D01*
X91984452Y-90521992D01*
X91840081Y-90520228D01*
X91840079Y-90520228D01*
X91834911Y-90520165D01*
X91614091Y-90553955D01*
X91401756Y-90623357D01*
X91203607Y-90726507D01*
X91199474Y-90729610D01*
X91199471Y-90729612D01*
X91029100Y-90857530D01*
X91024965Y-90860635D01*
X91021393Y-90864373D01*
X90904684Y-90986502D01*
X90870629Y-91022138D01*
X90763201Y-91179621D01*
X90708293Y-91224621D01*
X90637768Y-91232792D01*
X90574021Y-91201538D01*
X90553324Y-91177054D01*
X90472822Y-91052617D01*
X90472820Y-91052614D01*
X90470014Y-91048277D01*
X90319670Y-90883051D01*
X90315619Y-90879852D01*
X90315615Y-90879848D01*
X90148414Y-90747800D01*
X90148410Y-90747798D01*
X90144359Y-90744598D01*
X89948789Y-90636638D01*
X89943920Y-90634914D01*
X89943916Y-90634912D01*
X89743087Y-90563795D01*
X89743083Y-90563794D01*
X89738212Y-90562069D01*
X89733119Y-90561162D01*
X89733116Y-90561161D01*
X89523373Y-90523800D01*
X89523367Y-90523799D01*
X89518284Y-90522894D01*
X89444452Y-90521992D01*
X89300081Y-90520228D01*
X89300079Y-90520228D01*
X89294911Y-90520165D01*
X89074091Y-90553955D01*
X88861756Y-90623357D01*
X88663607Y-90726507D01*
X88659474Y-90729610D01*
X88659471Y-90729612D01*
X88489100Y-90857530D01*
X88484965Y-90860635D01*
X88428537Y-90919684D01*
X88404283Y-90945064D01*
X88342759Y-90980494D01*
X88271846Y-90977037D01*
X88214060Y-90935791D01*
X88195207Y-90902243D01*
X88153767Y-90791703D01*
X88150615Y-90783295D01*
X88063261Y-90666739D01*
X87946705Y-90579385D01*
X87810316Y-90528255D01*
X87748134Y-90521500D01*
X85951866Y-90521500D01*
X85889684Y-90528255D01*
X85753295Y-90579385D01*
X85636739Y-90666739D01*
X85549385Y-90783295D01*
X85498255Y-90919684D01*
X85491500Y-90981866D01*
X85491500Y-92778134D01*
X85498255Y-92840316D01*
X85549385Y-92976705D01*
X85636739Y-93093261D01*
X85753295Y-93180615D01*
X85761704Y-93183767D01*
X85761705Y-93183768D01*
X85870451Y-93224535D01*
X85927216Y-93267176D01*
X85951916Y-93333738D01*
X85936709Y-93403087D01*
X85917316Y-93429568D01*
X85851280Y-93498671D01*
X85790629Y-93562138D01*
X85664743Y-93746680D01*
X85570688Y-93949305D01*
X85510989Y-94164570D01*
X85487251Y-94386695D01*
X82439504Y-94386695D01*
X82530171Y-94150498D01*
X82532212Y-94144216D01*
X82631094Y-93775184D01*
X82632465Y-93768734D01*
X82692234Y-93391371D01*
X82692920Y-93384833D01*
X82712916Y-93003301D01*
X82712916Y-92996699D01*
X82692920Y-92615167D01*
X82692234Y-92608629D01*
X82632465Y-92231266D01*
X82631094Y-92224816D01*
X82532212Y-91855784D01*
X82530171Y-91849502D01*
X82393260Y-91492836D01*
X82390578Y-91486811D01*
X82217128Y-91146397D01*
X82213831Y-91140687D01*
X82005747Y-90820265D01*
X82001877Y-90814939D01*
X81808522Y-90576165D01*
X81796267Y-90567700D01*
X81785176Y-90574034D01*
X79372022Y-92987188D01*
X79364408Y-93001132D01*
X78634356Y-93001132D01*
X78635592Y-92998868D01*
X78635461Y-92997035D01*
X78631210Y-92990420D01*
X76215690Y-90574900D01*
X76202614Y-90567759D01*
X76192247Y-90575216D01*
X75998123Y-90814939D01*
X75994253Y-90820265D01*
X75786169Y-91140687D01*
X75782872Y-91146397D01*
X75609422Y-91486811D01*
X75606740Y-91492836D01*
X75469829Y-91849502D01*
X75467788Y-91855784D01*
X75368906Y-92224816D01*
X75367535Y-92231266D01*
X75307766Y-92608629D01*
X75307080Y-92615167D01*
X75287084Y-92996699D01*
X75287084Y-93003301D01*
X74478000Y-93003301D01*
X74478000Y-90203733D01*
X76567700Y-90203733D01*
X76574034Y-90214824D01*
X78987188Y-92627978D01*
X79001132Y-92635592D01*
X79002965Y-92635461D01*
X79009580Y-92631210D01*
X81425100Y-90215690D01*
X81432241Y-90202614D01*
X81424784Y-90192247D01*
X81185065Y-89998126D01*
X81179728Y-89994249D01*
X80859315Y-89786170D01*
X80853606Y-89782873D01*
X80513189Y-89609422D01*
X80507164Y-89606740D01*
X80150498Y-89469829D01*
X80144216Y-89467788D01*
X79775184Y-89368906D01*
X79768734Y-89367535D01*
X79391371Y-89307766D01*
X79384833Y-89307080D01*
X79003301Y-89287084D01*
X78996699Y-89287084D01*
X78615167Y-89307080D01*
X78608629Y-89307766D01*
X78231266Y-89367535D01*
X78224816Y-89368906D01*
X77855784Y-89467788D01*
X77849502Y-89469829D01*
X77492836Y-89606740D01*
X77486811Y-89609422D01*
X77146397Y-89782872D01*
X77140687Y-89786169D01*
X76820265Y-89994253D01*
X76814939Y-89998123D01*
X76576165Y-90191478D01*
X76567700Y-90203733D01*
X74478000Y-90203733D01*
X74478000Y-84416462D01*
X93456626Y-84416462D01*
X93457206Y-84422593D01*
X93460941Y-84462109D01*
X93461500Y-84473967D01*
X93461500Y-85438157D01*
X93460763Y-85451764D01*
X93456676Y-85489388D01*
X93457213Y-85495523D01*
X93461050Y-85539388D01*
X93461379Y-85544214D01*
X93461500Y-85546686D01*
X93461500Y-85549769D01*
X93461801Y-85552837D01*
X93465690Y-85592506D01*
X93465812Y-85593819D01*
X93473913Y-85686413D01*
X93475400Y-85691532D01*
X93475920Y-85696833D01*
X93502791Y-85785834D01*
X93503126Y-85786967D01*
X93529091Y-85876336D01*
X93531544Y-85881068D01*
X93533084Y-85886169D01*
X93535978Y-85891612D01*
X93576731Y-85968260D01*
X93577343Y-85969426D01*
X93620108Y-86051926D01*
X93623431Y-86056089D01*
X93625934Y-86060796D01*
X93684755Y-86132918D01*
X93685446Y-86133774D01*
X93716738Y-86172973D01*
X93719242Y-86175477D01*
X93719884Y-86176195D01*
X93723585Y-86180528D01*
X93750935Y-86214062D01*
X93755682Y-86217989D01*
X93755684Y-86217991D01*
X93786262Y-86243287D01*
X93795042Y-86251277D01*
X99459239Y-91915474D01*
X99493265Y-91977786D01*
X99495935Y-91997315D01*
X99500110Y-92069715D01*
X99501247Y-92074761D01*
X99501248Y-92074767D01*
X99521119Y-92162939D01*
X99549222Y-92287639D01*
X99633266Y-92494616D01*
X99684019Y-92577438D01*
X99747291Y-92680688D01*
X99749987Y-92685088D01*
X99896250Y-92853938D01*
X100068126Y-92996632D01*
X100075827Y-93001132D01*
X100141445Y-93039476D01*
X100190169Y-93091114D01*
X100203240Y-93160897D01*
X100176509Y-93226669D01*
X100136055Y-93260027D01*
X100123607Y-93266507D01*
X100119474Y-93269610D01*
X100119471Y-93269612D01*
X99949100Y-93397530D01*
X99944965Y-93400635D01*
X99917316Y-93429568D01*
X99851280Y-93498671D01*
X99790629Y-93562138D01*
X99664743Y-93746680D01*
X99570688Y-93949305D01*
X99510989Y-94164570D01*
X99487251Y-94386695D01*
X99487548Y-94391848D01*
X99487548Y-94391851D01*
X99493011Y-94486590D01*
X99500110Y-94609715D01*
X99501247Y-94614761D01*
X99501248Y-94614767D01*
X99521119Y-94702939D01*
X99549222Y-94827639D01*
X99633266Y-95034616D01*
X99670685Y-95095678D01*
X99747291Y-95220688D01*
X99749987Y-95225088D01*
X99896250Y-95393938D01*
X100068126Y-95536632D01*
X100261000Y-95649338D01*
X100469692Y-95729030D01*
X100474760Y-95730061D01*
X100474763Y-95730062D01*
X100582017Y-95751883D01*
X100688597Y-95773567D01*
X100693772Y-95773757D01*
X100693774Y-95773757D01*
X100906673Y-95781564D01*
X100906677Y-95781564D01*
X100911837Y-95781753D01*
X100916957Y-95781097D01*
X100916959Y-95781097D01*
X101128288Y-95754025D01*
X101128289Y-95754025D01*
X101133416Y-95753368D01*
X101138366Y-95751883D01*
X101342429Y-95690661D01*
X101342434Y-95690659D01*
X101347384Y-95689174D01*
X101547994Y-95590896D01*
X101729860Y-95461173D01*
X101766377Y-95424784D01*
X101824124Y-95367238D01*
X101888096Y-95303489D01*
X101947594Y-95220689D01*
X102018453Y-95122077D01*
X102019776Y-95123028D01*
X102066645Y-95079857D01*
X102136580Y-95067625D01*
X102202026Y-95095144D01*
X102229875Y-95126994D01*
X102289987Y-95225088D01*
X102436250Y-95393938D01*
X102608126Y-95536632D01*
X102801000Y-95649338D01*
X103009692Y-95729030D01*
X103014760Y-95730061D01*
X103014763Y-95730062D01*
X103122017Y-95751883D01*
X103228597Y-95773567D01*
X103233772Y-95773757D01*
X103233774Y-95773757D01*
X103446673Y-95781564D01*
X103446677Y-95781564D01*
X103451837Y-95781753D01*
X103456957Y-95781097D01*
X103456959Y-95781097D01*
X103668288Y-95754025D01*
X103668289Y-95754025D01*
X103673416Y-95753368D01*
X103678366Y-95751883D01*
X103882429Y-95690661D01*
X103882434Y-95690659D01*
X103887384Y-95689174D01*
X104087994Y-95590896D01*
X104269860Y-95461173D01*
X104306377Y-95424784D01*
X104364124Y-95367238D01*
X104428096Y-95303489D01*
X104487594Y-95220689D01*
X104558453Y-95122077D01*
X104559776Y-95123028D01*
X104606645Y-95079857D01*
X104676580Y-95067625D01*
X104742026Y-95095144D01*
X104769875Y-95126994D01*
X104829987Y-95225088D01*
X104976250Y-95393938D01*
X105148126Y-95536632D01*
X105341000Y-95649338D01*
X105549692Y-95729030D01*
X105554760Y-95730061D01*
X105554763Y-95730062D01*
X105662017Y-95751883D01*
X105768597Y-95773567D01*
X105773772Y-95773757D01*
X105773774Y-95773757D01*
X105986673Y-95781564D01*
X105986677Y-95781564D01*
X105991837Y-95781753D01*
X105996957Y-95781097D01*
X105996959Y-95781097D01*
X106208288Y-95754025D01*
X106208289Y-95754025D01*
X106213416Y-95753368D01*
X106218366Y-95751883D01*
X106422429Y-95690661D01*
X106422434Y-95690659D01*
X106427384Y-95689174D01*
X106627994Y-95590896D01*
X106809860Y-95461173D01*
X106918091Y-95353319D01*
X106980462Y-95319404D01*
X107051268Y-95324592D01*
X107108030Y-95367238D01*
X107125012Y-95398341D01*
X107134925Y-95424784D01*
X107169385Y-95516705D01*
X107256739Y-95633261D01*
X107373295Y-95720615D01*
X107509684Y-95771745D01*
X107571866Y-95778500D01*
X109368134Y-95778500D01*
X109430316Y-95771745D01*
X109566705Y-95720615D01*
X109683261Y-95633261D01*
X109770615Y-95516705D01*
X109821745Y-95380316D01*
X109828500Y-95318134D01*
X109828500Y-94386695D01*
X129287251Y-94386695D01*
X129287548Y-94391848D01*
X129287548Y-94391851D01*
X129293011Y-94486590D01*
X129300110Y-94609715D01*
X129301247Y-94614761D01*
X129301248Y-94614767D01*
X129321119Y-94702939D01*
X129349222Y-94827639D01*
X129433266Y-95034616D01*
X129470685Y-95095678D01*
X129547291Y-95220688D01*
X129549987Y-95225088D01*
X129696250Y-95393938D01*
X129868126Y-95536632D01*
X130061000Y-95649338D01*
X130269692Y-95729030D01*
X130274760Y-95730061D01*
X130274763Y-95730062D01*
X130382017Y-95751883D01*
X130488597Y-95773567D01*
X130493772Y-95773757D01*
X130493774Y-95773757D01*
X130706673Y-95781564D01*
X130706677Y-95781564D01*
X130711837Y-95781753D01*
X130716957Y-95781097D01*
X130716959Y-95781097D01*
X130928288Y-95754025D01*
X130928289Y-95754025D01*
X130933416Y-95753368D01*
X130938366Y-95751883D01*
X131142429Y-95690661D01*
X131142434Y-95690659D01*
X131147384Y-95689174D01*
X131347994Y-95590896D01*
X131529860Y-95461173D01*
X131566377Y-95424784D01*
X131624124Y-95367238D01*
X131688096Y-95303489D01*
X131747594Y-95220689D01*
X131818453Y-95122077D01*
X131819776Y-95123028D01*
X131866645Y-95079857D01*
X131936580Y-95067625D01*
X132002026Y-95095144D01*
X132029875Y-95126994D01*
X132089987Y-95225088D01*
X132236250Y-95393938D01*
X132408126Y-95536632D01*
X132601000Y-95649338D01*
X132809692Y-95729030D01*
X132814760Y-95730061D01*
X132814763Y-95730062D01*
X132922017Y-95751883D01*
X133028597Y-95773567D01*
X133033772Y-95773757D01*
X133033774Y-95773757D01*
X133246673Y-95781564D01*
X133246677Y-95781564D01*
X133251837Y-95781753D01*
X133256957Y-95781097D01*
X133256959Y-95781097D01*
X133468288Y-95754025D01*
X133468289Y-95754025D01*
X133473416Y-95753368D01*
X133478366Y-95751883D01*
X133682429Y-95690661D01*
X133682434Y-95690659D01*
X133687384Y-95689174D01*
X133887994Y-95590896D01*
X134069860Y-95461173D01*
X134106377Y-95424784D01*
X134164124Y-95367238D01*
X134228096Y-95303489D01*
X134287594Y-95220689D01*
X134358453Y-95122077D01*
X134359776Y-95123028D01*
X134406645Y-95079857D01*
X134476580Y-95067625D01*
X134542026Y-95095144D01*
X134569875Y-95126994D01*
X134629987Y-95225088D01*
X134776250Y-95393938D01*
X134948126Y-95536632D01*
X135141000Y-95649338D01*
X135349692Y-95729030D01*
X135354760Y-95730061D01*
X135354763Y-95730062D01*
X135462017Y-95751883D01*
X135568597Y-95773567D01*
X135573772Y-95773757D01*
X135573774Y-95773757D01*
X135786673Y-95781564D01*
X135786677Y-95781564D01*
X135791837Y-95781753D01*
X135796957Y-95781097D01*
X135796959Y-95781097D01*
X136008288Y-95754025D01*
X136008289Y-95754025D01*
X136013416Y-95753368D01*
X136018366Y-95751883D01*
X136222429Y-95690661D01*
X136222434Y-95690659D01*
X136227384Y-95689174D01*
X136427994Y-95590896D01*
X136609860Y-95461173D01*
X136718091Y-95353319D01*
X136780462Y-95319404D01*
X136851268Y-95324592D01*
X136908030Y-95367238D01*
X136925012Y-95398341D01*
X136934925Y-95424784D01*
X136969385Y-95516705D01*
X137056739Y-95633261D01*
X137173295Y-95720615D01*
X137309684Y-95771745D01*
X137371866Y-95778500D01*
X139168134Y-95778500D01*
X139230316Y-95771745D01*
X139366705Y-95720615D01*
X139483261Y-95633261D01*
X139570615Y-95516705D01*
X139621745Y-95380316D01*
X139628500Y-95318134D01*
X139628500Y-93521866D01*
X139621745Y-93459684D01*
X139570615Y-93323295D01*
X139483261Y-93206739D01*
X139366705Y-93119385D01*
X139339905Y-93109338D01*
X139248203Y-93074960D01*
X139191439Y-93032318D01*
X139166739Y-92965756D01*
X139181947Y-92896408D01*
X139203493Y-92867727D01*
X139231000Y-92840316D01*
X139308096Y-92763489D01*
X139367594Y-92680689D01*
X139435435Y-92586277D01*
X139438453Y-92582077D01*
X139459320Y-92539857D01*
X139535136Y-92386453D01*
X139535137Y-92386451D01*
X139537430Y-92381811D01*
X139602370Y-92168069D01*
X139631529Y-91946590D01*
X139633156Y-91880000D01*
X139614852Y-91657361D01*
X139571390Y-91484330D01*
X139561690Y-91445714D01*
X139561690Y-91445713D01*
X139560431Y-91440702D01*
X139538997Y-91391406D01*
X139529416Y-91369372D01*
X139520595Y-91298925D01*
X139555870Y-91230034D01*
X140184621Y-90601284D01*
X140862253Y-89923652D01*
X140870539Y-89916112D01*
X140877018Y-89912000D01*
X140923644Y-89862348D01*
X140926398Y-89859507D01*
X140946135Y-89839770D01*
X140948615Y-89836573D01*
X140956320Y-89827551D01*
X140981159Y-89801100D01*
X140986586Y-89795321D01*
X140990405Y-89788375D01*
X140990407Y-89788372D01*
X140996348Y-89777566D01*
X141007199Y-89761047D01*
X141014758Y-89751301D01*
X141019614Y-89745041D01*
X141022759Y-89737772D01*
X141022762Y-89737768D01*
X141037174Y-89704463D01*
X141042391Y-89693813D01*
X141063695Y-89655060D01*
X141068733Y-89635437D01*
X141075137Y-89616734D01*
X141080033Y-89605420D01*
X141080033Y-89605419D01*
X141083181Y-89598145D01*
X141084420Y-89590322D01*
X141084423Y-89590312D01*
X141090099Y-89554476D01*
X141092505Y-89542856D01*
X141101528Y-89507711D01*
X141101528Y-89507710D01*
X141103500Y-89500030D01*
X141103500Y-89479776D01*
X141105051Y-89460065D01*
X141106980Y-89447886D01*
X141108220Y-89440057D01*
X141104059Y-89396038D01*
X141103500Y-89384181D01*
X141103500Y-84734594D01*
X141123502Y-84666473D01*
X141140405Y-84645499D01*
X141420499Y-84365405D01*
X141482811Y-84331379D01*
X141509594Y-84328500D01*
X141565487Y-84328500D01*
X141571939Y-84327128D01*
X141571944Y-84327128D01*
X141658887Y-84308647D01*
X141752288Y-84288794D01*
X141893695Y-84225836D01*
X141920722Y-84213803D01*
X141920724Y-84213802D01*
X141926752Y-84211118D01*
X141932583Y-84206882D01*
X141982157Y-84170864D01*
X142081253Y-84098866D01*
X142091402Y-84087595D01*
X142126364Y-84048765D01*
X142186810Y-84011525D01*
X142257793Y-84012877D01*
X142313636Y-84048765D01*
X142348599Y-84087595D01*
X142358747Y-84098866D01*
X142457843Y-84170864D01*
X142507418Y-84206882D01*
X142513248Y-84211118D01*
X142519276Y-84213802D01*
X142519278Y-84213803D01*
X142546305Y-84225836D01*
X142687712Y-84288794D01*
X142781113Y-84308647D01*
X142868056Y-84327128D01*
X142868061Y-84327128D01*
X142874513Y-84328500D01*
X142930406Y-84328500D01*
X142998527Y-84348502D01*
X143019501Y-84365405D01*
X143299595Y-84645499D01*
X143333621Y-84707811D01*
X143336500Y-84734594D01*
X143336500Y-89901233D01*
X143335973Y-89912416D01*
X143334298Y-89919909D01*
X143334547Y-89927835D01*
X143334547Y-89927836D01*
X143336438Y-89987986D01*
X143336500Y-89991945D01*
X143336500Y-90019856D01*
X143336997Y-90023790D01*
X143336997Y-90023791D01*
X143337005Y-90023856D01*
X143337938Y-90035693D01*
X143339327Y-90079889D01*
X143344978Y-90099339D01*
X143348987Y-90118700D01*
X143351526Y-90138797D01*
X143354445Y-90146168D01*
X143354445Y-90146170D01*
X143367804Y-90179912D01*
X143371649Y-90191142D01*
X143383982Y-90233593D01*
X143388015Y-90240412D01*
X143388017Y-90240417D01*
X143394293Y-90251028D01*
X143402988Y-90268776D01*
X143410448Y-90287617D01*
X143415110Y-90294033D01*
X143415110Y-90294034D01*
X143436436Y-90323387D01*
X143442952Y-90333307D01*
X143456809Y-90356737D01*
X143465458Y-90371362D01*
X143479779Y-90385683D01*
X143492619Y-90400716D01*
X143504528Y-90417107D01*
X143510632Y-90422157D01*
X143510637Y-90422162D01*
X143538598Y-90445293D01*
X143547379Y-90453283D01*
X144213897Y-91119802D01*
X144247922Y-91182114D01*
X144242857Y-91252930D01*
X144239089Y-91261947D01*
X144170688Y-91409305D01*
X144110989Y-91624570D01*
X144087251Y-91846695D01*
X144087548Y-91851848D01*
X144087548Y-91851851D01*
X144099812Y-92064547D01*
X144100110Y-92069715D01*
X144101247Y-92074761D01*
X144101248Y-92074767D01*
X144121119Y-92162939D01*
X144149222Y-92287639D01*
X144233266Y-92494616D01*
X144284019Y-92577438D01*
X144347291Y-92680688D01*
X144349987Y-92685088D01*
X144496250Y-92853938D01*
X144668126Y-92996632D01*
X144675827Y-93001132D01*
X144741445Y-93039476D01*
X144790169Y-93091114D01*
X144803240Y-93160897D01*
X144776509Y-93226669D01*
X144736055Y-93260027D01*
X144723607Y-93266507D01*
X144719474Y-93269610D01*
X144719471Y-93269612D01*
X144549100Y-93397530D01*
X144544965Y-93400635D01*
X144517316Y-93429568D01*
X144451280Y-93498671D01*
X144390629Y-93562138D01*
X144264743Y-93746680D01*
X144170688Y-93949305D01*
X144110989Y-94164570D01*
X144087251Y-94386695D01*
X144087548Y-94391848D01*
X144087548Y-94391851D01*
X144093011Y-94486590D01*
X144100110Y-94609715D01*
X144101247Y-94614761D01*
X144101248Y-94614767D01*
X144121119Y-94702939D01*
X144149222Y-94827639D01*
X144233266Y-95034616D01*
X144270685Y-95095678D01*
X144347291Y-95220688D01*
X144349987Y-95225088D01*
X144496250Y-95393938D01*
X144668126Y-95536632D01*
X144861000Y-95649338D01*
X145069692Y-95729030D01*
X145074760Y-95730061D01*
X145074763Y-95730062D01*
X145182017Y-95751883D01*
X145288597Y-95773567D01*
X145293772Y-95773757D01*
X145293774Y-95773757D01*
X145506673Y-95781564D01*
X145506677Y-95781564D01*
X145511837Y-95781753D01*
X145516957Y-95781097D01*
X145516959Y-95781097D01*
X145728288Y-95754025D01*
X145728289Y-95754025D01*
X145733416Y-95753368D01*
X145738366Y-95751883D01*
X145942429Y-95690661D01*
X145942434Y-95690659D01*
X145947384Y-95689174D01*
X146147994Y-95590896D01*
X146329860Y-95461173D01*
X146366377Y-95424784D01*
X146424124Y-95367238D01*
X146488096Y-95303489D01*
X146547594Y-95220689D01*
X146618453Y-95122077D01*
X146619776Y-95123028D01*
X146666645Y-95079857D01*
X146736580Y-95067625D01*
X146802026Y-95095144D01*
X146829875Y-95126994D01*
X146889987Y-95225088D01*
X147036250Y-95393938D01*
X147208126Y-95536632D01*
X147401000Y-95649338D01*
X147609692Y-95729030D01*
X147614760Y-95730061D01*
X147614763Y-95730062D01*
X147722017Y-95751883D01*
X147828597Y-95773567D01*
X147833772Y-95773757D01*
X147833774Y-95773757D01*
X148046673Y-95781564D01*
X148046677Y-95781564D01*
X148051837Y-95781753D01*
X148056957Y-95781097D01*
X148056959Y-95781097D01*
X148268288Y-95754025D01*
X148268289Y-95754025D01*
X148273416Y-95753368D01*
X148278366Y-95751883D01*
X148482429Y-95690661D01*
X148482434Y-95690659D01*
X148487384Y-95689174D01*
X148687994Y-95590896D01*
X148869860Y-95461173D01*
X148906377Y-95424784D01*
X148964124Y-95367238D01*
X149028096Y-95303489D01*
X149087594Y-95220689D01*
X149158453Y-95122077D01*
X149159776Y-95123028D01*
X149206645Y-95079857D01*
X149276580Y-95067625D01*
X149342026Y-95095144D01*
X149369875Y-95126994D01*
X149429987Y-95225088D01*
X149576250Y-95393938D01*
X149748126Y-95536632D01*
X149941000Y-95649338D01*
X150149692Y-95729030D01*
X150154760Y-95730061D01*
X150154763Y-95730062D01*
X150262017Y-95751883D01*
X150368597Y-95773567D01*
X150373772Y-95773757D01*
X150373774Y-95773757D01*
X150586673Y-95781564D01*
X150586677Y-95781564D01*
X150591837Y-95781753D01*
X150596957Y-95781097D01*
X150596959Y-95781097D01*
X150808288Y-95754025D01*
X150808289Y-95754025D01*
X150813416Y-95753368D01*
X150818366Y-95751883D01*
X151022429Y-95690661D01*
X151022434Y-95690659D01*
X151027384Y-95689174D01*
X151227994Y-95590896D01*
X151409860Y-95461173D01*
X151518091Y-95353319D01*
X151580462Y-95319404D01*
X151651268Y-95324592D01*
X151708030Y-95367238D01*
X151725012Y-95398341D01*
X151734925Y-95424784D01*
X151769385Y-95516705D01*
X151856739Y-95633261D01*
X151973295Y-95720615D01*
X152109684Y-95771745D01*
X152171866Y-95778500D01*
X153968134Y-95778500D01*
X154030316Y-95771745D01*
X154166705Y-95720615D01*
X154283261Y-95633261D01*
X154370615Y-95516705D01*
X154421745Y-95380316D01*
X154428500Y-95318134D01*
X154428500Y-93521866D01*
X154421745Y-93459684D01*
X154370615Y-93323295D01*
X154283261Y-93206739D01*
X154166705Y-93119385D01*
X154139905Y-93109338D01*
X154048203Y-93074960D01*
X153991439Y-93032318D01*
X153980671Y-93003301D01*
X157287084Y-93003301D01*
X157307080Y-93384833D01*
X157307766Y-93391371D01*
X157367535Y-93768734D01*
X157368906Y-93775184D01*
X157467788Y-94144216D01*
X157469829Y-94150498D01*
X157606740Y-94507164D01*
X157609422Y-94513189D01*
X157782872Y-94853603D01*
X157786169Y-94859313D01*
X157994253Y-95179735D01*
X157998123Y-95185061D01*
X158191478Y-95423835D01*
X158203733Y-95432300D01*
X158214824Y-95425966D01*
X160627978Y-93012812D01*
X160634356Y-93001132D01*
X161364408Y-93001132D01*
X161364539Y-93002965D01*
X161368790Y-93009580D01*
X163784310Y-95425100D01*
X163797386Y-95432241D01*
X163807753Y-95424784D01*
X164001877Y-95185061D01*
X164005747Y-95179735D01*
X164213831Y-94859313D01*
X164217128Y-94853603D01*
X164390578Y-94513189D01*
X164393260Y-94507164D01*
X164530171Y-94150498D01*
X164532212Y-94144216D01*
X164631094Y-93775184D01*
X164632465Y-93768734D01*
X164692234Y-93391371D01*
X164692920Y-93384833D01*
X164710173Y-93055640D01*
X164730632Y-92997426D01*
X164715104Y-92973264D01*
X164710173Y-92944360D01*
X164692920Y-92615167D01*
X164692234Y-92608629D01*
X164632465Y-92231266D01*
X164631094Y-92224816D01*
X164532212Y-91855784D01*
X164530171Y-91849502D01*
X164393260Y-91492836D01*
X164390578Y-91486811D01*
X164217128Y-91146397D01*
X164213831Y-91140687D01*
X164005747Y-90820265D01*
X164001877Y-90814939D01*
X163808522Y-90576165D01*
X163796267Y-90567700D01*
X163785176Y-90574034D01*
X161372022Y-92987188D01*
X161364408Y-93001132D01*
X160634356Y-93001132D01*
X160635592Y-92998868D01*
X160635461Y-92997035D01*
X160631210Y-92990420D01*
X158215690Y-90574900D01*
X158202614Y-90567759D01*
X158192247Y-90575216D01*
X157998123Y-90814939D01*
X157994253Y-90820265D01*
X157786169Y-91140687D01*
X157782872Y-91146397D01*
X157609422Y-91486811D01*
X157606740Y-91492836D01*
X157469829Y-91849502D01*
X157467788Y-91855784D01*
X157368906Y-92224816D01*
X157367535Y-92231266D01*
X157307766Y-92608629D01*
X157307080Y-92615167D01*
X157287084Y-92996699D01*
X157287084Y-93003301D01*
X153980671Y-93003301D01*
X153966739Y-92965756D01*
X153981947Y-92896408D01*
X154003493Y-92867727D01*
X154031000Y-92840316D01*
X154108096Y-92763489D01*
X154167594Y-92680689D01*
X154235435Y-92586277D01*
X154238453Y-92582077D01*
X154259320Y-92539857D01*
X154335136Y-92386453D01*
X154335137Y-92386451D01*
X154337430Y-92381811D01*
X154402370Y-92168069D01*
X154431529Y-91946590D01*
X154433156Y-91880000D01*
X154414852Y-91657361D01*
X154360431Y-91440702D01*
X154271354Y-91235840D01*
X154180831Y-91095913D01*
X154152822Y-91052617D01*
X154152820Y-91052614D01*
X154150014Y-91048277D01*
X153999670Y-90883051D01*
X153995619Y-90879852D01*
X153995615Y-90879848D01*
X153828414Y-90747800D01*
X153828410Y-90747798D01*
X153824359Y-90744598D01*
X153628789Y-90636638D01*
X153623920Y-90634914D01*
X153623916Y-90634912D01*
X153423087Y-90563795D01*
X153423083Y-90563794D01*
X153418212Y-90562069D01*
X153413119Y-90561162D01*
X153413116Y-90561161D01*
X153203373Y-90523800D01*
X153203367Y-90523799D01*
X153198284Y-90522894D01*
X153077987Y-90521424D01*
X153010118Y-90500592D01*
X152990433Y-90484529D01*
X152709637Y-90203733D01*
X158567700Y-90203733D01*
X158574034Y-90214824D01*
X160987188Y-92627978D01*
X161001132Y-92635592D01*
X161002965Y-92635461D01*
X161009580Y-92631210D01*
X163425100Y-90215690D01*
X163432241Y-90202614D01*
X163424784Y-90192247D01*
X163185065Y-89998126D01*
X163179728Y-89994249D01*
X162859315Y-89786170D01*
X162853606Y-89782873D01*
X162513189Y-89609422D01*
X162507164Y-89606740D01*
X162150498Y-89469829D01*
X162144216Y-89467788D01*
X161775184Y-89368906D01*
X161768734Y-89367535D01*
X161391371Y-89307766D01*
X161384833Y-89307080D01*
X161003301Y-89287084D01*
X160996699Y-89287084D01*
X160615167Y-89307080D01*
X160608629Y-89307766D01*
X160231266Y-89367535D01*
X160224816Y-89368906D01*
X159855784Y-89467788D01*
X159849502Y-89469829D01*
X159492836Y-89606740D01*
X159486811Y-89609422D01*
X159146397Y-89782872D01*
X159140687Y-89786169D01*
X158820265Y-89994253D01*
X158814939Y-89998123D01*
X158576165Y-90191478D01*
X158567700Y-90203733D01*
X152709637Y-90203733D01*
X147640405Y-85134500D01*
X147606379Y-85072188D01*
X147603500Y-85045405D01*
X147603500Y-80498763D01*
X147604027Y-80487579D01*
X147605701Y-80480091D01*
X147603562Y-80412032D01*
X147603500Y-80408075D01*
X147603500Y-80380144D01*
X147602994Y-80376138D01*
X147602061Y-80364292D01*
X147601404Y-80343362D01*
X147600673Y-80320110D01*
X147595022Y-80300658D01*
X147591014Y-80281306D01*
X147589467Y-80269063D01*
X147588474Y-80261203D01*
X147577217Y-80232770D01*
X147572200Y-80220097D01*
X147568355Y-80208870D01*
X147567721Y-80206687D01*
X147556018Y-80166407D01*
X147551984Y-80159585D01*
X147551981Y-80159579D01*
X147545706Y-80148968D01*
X147537010Y-80131218D01*
X147532472Y-80119756D01*
X147532469Y-80119751D01*
X147529552Y-80112383D01*
X147503573Y-80076625D01*
X147497057Y-80066707D01*
X147483040Y-80043006D01*
X147474542Y-80028637D01*
X147460218Y-80014313D01*
X147447376Y-79999278D01*
X147435472Y-79982893D01*
X147401406Y-79954711D01*
X147392627Y-79946722D01*
X145664916Y-78219011D01*
X145630890Y-78156699D01*
X145628011Y-78129916D01*
X145628011Y-73488665D01*
X145628538Y-73477482D01*
X145630213Y-73469989D01*
X145629078Y-73433858D01*
X145628073Y-73401899D01*
X145628011Y-73397941D01*
X145628011Y-73370041D01*
X145627507Y-73366050D01*
X145626574Y-73354208D01*
X145626059Y-73337796D01*
X145625185Y-73310008D01*
X145619532Y-73290549D01*
X145615523Y-73271190D01*
X145615357Y-73269880D01*
X145612985Y-73251100D01*
X145610069Y-73243734D01*
X145610067Y-73243728D01*
X145596711Y-73209995D01*
X145592866Y-73198765D01*
X145582741Y-73163914D01*
X145582741Y-73163913D01*
X145580530Y-73156304D01*
X145570216Y-73138863D01*
X145561519Y-73121110D01*
X145556983Y-73109655D01*
X145554063Y-73102280D01*
X145528074Y-73066509D01*
X145521558Y-73056589D01*
X145512649Y-73041525D01*
X145499053Y-73018535D01*
X145493449Y-73012930D01*
X145484731Y-73004212D01*
X145471890Y-72989178D01*
X145470545Y-72987326D01*
X145459983Y-72972790D01*
X145425918Y-72944609D01*
X145417137Y-72936619D01*
X145073749Y-72593230D01*
X145066216Y-72584952D01*
X145062103Y-72578471D01*
X145012465Y-72531859D01*
X145009622Y-72529104D01*
X144992674Y-72512155D01*
X144989873Y-72509354D01*
X144986676Y-72506874D01*
X144977654Y-72499169D01*
X144964221Y-72486554D01*
X144945424Y-72468903D01*
X144947321Y-72466883D01*
X144912081Y-72421174D01*
X144903500Y-72375471D01*
X144903500Y-69412524D01*
X144923502Y-69344403D01*
X144935858Y-69328221D01*
X145009040Y-69246944D01*
X145104527Y-69081556D01*
X145163542Y-68899928D01*
X145174320Y-68797386D01*
X158567759Y-68797386D01*
X158575216Y-68807753D01*
X158814935Y-69001874D01*
X158820272Y-69005751D01*
X159140685Y-69213830D01*
X159146394Y-69217127D01*
X159486811Y-69390578D01*
X159492836Y-69393260D01*
X159849502Y-69530171D01*
X159855784Y-69532212D01*
X160224816Y-69631094D01*
X160231266Y-69632465D01*
X160608629Y-69692234D01*
X160615167Y-69692920D01*
X160996699Y-69712916D01*
X161003301Y-69712916D01*
X161384833Y-69692920D01*
X161391371Y-69692234D01*
X161768734Y-69632465D01*
X161775184Y-69631094D01*
X162144216Y-69532212D01*
X162150498Y-69530171D01*
X162507164Y-69393260D01*
X162513189Y-69390578D01*
X162853606Y-69217127D01*
X162859315Y-69213830D01*
X163179728Y-69005751D01*
X163185065Y-69001874D01*
X163423835Y-68808522D01*
X163432300Y-68796267D01*
X163425966Y-68785176D01*
X161012812Y-66372022D01*
X160998868Y-66364408D01*
X160997035Y-66364539D01*
X160990420Y-66368790D01*
X158574900Y-68784310D01*
X158567759Y-68797386D01*
X145174320Y-68797386D01*
X145182814Y-68716565D01*
X145183504Y-68710000D01*
X145163542Y-68520072D01*
X145104527Y-68338444D01*
X145009040Y-68173056D01*
X144881253Y-68031134D01*
X144726752Y-67918882D01*
X144720724Y-67916198D01*
X144720722Y-67916197D01*
X144558319Y-67843891D01*
X144558318Y-67843891D01*
X144552288Y-67841206D01*
X144458888Y-67821353D01*
X144371944Y-67802872D01*
X144371939Y-67802872D01*
X144365487Y-67801500D01*
X144174513Y-67801500D01*
X144168061Y-67802872D01*
X144168056Y-67802872D01*
X144081112Y-67821353D01*
X143987712Y-67841206D01*
X143981682Y-67843891D01*
X143981681Y-67843891D01*
X143819278Y-67916197D01*
X143819276Y-67916198D01*
X143813248Y-67918882D01*
X143658747Y-68031134D01*
X143530960Y-68173056D01*
X143435473Y-68338444D01*
X143376458Y-68520072D01*
X143356496Y-68710000D01*
X143357186Y-68716565D01*
X143365681Y-68797386D01*
X143376458Y-68899928D01*
X143435473Y-69081556D01*
X143530960Y-69246944D01*
X143604137Y-69328215D01*
X143634853Y-69392221D01*
X143636500Y-69412524D01*
X143636500Y-72913696D01*
X143634268Y-72937305D01*
X143632725Y-72945395D01*
X143635985Y-72997199D01*
X143636141Y-72999685D01*
X143620456Y-73068927D01*
X143604028Y-73091905D01*
X143530960Y-73173056D01*
X143527659Y-73178774D01*
X143527656Y-73178778D01*
X143440425Y-73329867D01*
X143435473Y-73338444D01*
X143376458Y-73520072D01*
X143356496Y-73710000D01*
X143376458Y-73899928D01*
X143435473Y-74081556D01*
X143530960Y-74246944D01*
X143604137Y-74328215D01*
X143634853Y-74392221D01*
X143636500Y-74412524D01*
X143636500Y-77533984D01*
X143616498Y-77602105D01*
X143562842Y-77648598D01*
X143492568Y-77658702D01*
X143436439Y-77635920D01*
X143432094Y-77632763D01*
X143432093Y-77632762D01*
X143426752Y-77628882D01*
X143420724Y-77626198D01*
X143420722Y-77626197D01*
X143258319Y-77553891D01*
X143258318Y-77553891D01*
X143252288Y-77551206D01*
X143158888Y-77531353D01*
X143071944Y-77512872D01*
X143071939Y-77512872D01*
X143065487Y-77511500D01*
X142874513Y-77511500D01*
X142868061Y-77512872D01*
X142868056Y-77512872D01*
X142781112Y-77531353D01*
X142687712Y-77551206D01*
X142681682Y-77553891D01*
X142681681Y-77553891D01*
X142519278Y-77626197D01*
X142519276Y-77626198D01*
X142513248Y-77628882D01*
X142358747Y-77741134D01*
X142354326Y-77746044D01*
X142354325Y-77746045D01*
X142313636Y-77791235D01*
X142253190Y-77828475D01*
X142182207Y-77827123D01*
X142126364Y-77791235D01*
X142085675Y-77746045D01*
X142085674Y-77746044D01*
X142081253Y-77741134D01*
X141926752Y-77628882D01*
X141920724Y-77626198D01*
X141920722Y-77626197D01*
X141758319Y-77553891D01*
X141758318Y-77553891D01*
X141752288Y-77551206D01*
X141658888Y-77531353D01*
X141571944Y-77512872D01*
X141571939Y-77512872D01*
X141565487Y-77511500D01*
X141374513Y-77511500D01*
X141368061Y-77512872D01*
X141368056Y-77512872D01*
X141281112Y-77531353D01*
X141187712Y-77551206D01*
X141080748Y-77598829D01*
X141010382Y-77608263D01*
X140946085Y-77578157D01*
X140908271Y-77518068D01*
X140903500Y-77483722D01*
X140903500Y-74412524D01*
X140923502Y-74344403D01*
X140935858Y-74328221D01*
X141009040Y-74246944D01*
X141104527Y-74081556D01*
X141163542Y-73899928D01*
X141183504Y-73710000D01*
X141163542Y-73520072D01*
X141104527Y-73338444D01*
X141095141Y-73322186D01*
X141054099Y-73251100D01*
X141009040Y-73173056D01*
X140938964Y-73095229D01*
X140908248Y-73031223D01*
X140906850Y-73018831D01*
X140906832Y-73018535D01*
X140903749Y-72969538D01*
X140903500Y-72961627D01*
X140903500Y-69412524D01*
X140923502Y-69344403D01*
X140935858Y-69328221D01*
X141009040Y-69246944D01*
X141104527Y-69081556D01*
X141163542Y-68899928D01*
X141174320Y-68797386D01*
X141182814Y-68716565D01*
X141183504Y-68710000D01*
X141163542Y-68520072D01*
X141104527Y-68338444D01*
X141009040Y-68173056D01*
X140881253Y-68031134D01*
X140726752Y-67918882D01*
X140720724Y-67916198D01*
X140720722Y-67916197D01*
X140558319Y-67843891D01*
X140558318Y-67843891D01*
X140552288Y-67841206D01*
X140458888Y-67821353D01*
X140371944Y-67802872D01*
X140371939Y-67802872D01*
X140365487Y-67801500D01*
X140174513Y-67801500D01*
X140168061Y-67802872D01*
X140168056Y-67802872D01*
X140081112Y-67821353D01*
X139987712Y-67841206D01*
X139981682Y-67843891D01*
X139981681Y-67843891D01*
X139819278Y-67916197D01*
X139819276Y-67916198D01*
X139813248Y-67918882D01*
X139658747Y-68031134D01*
X139530960Y-68173056D01*
X139435473Y-68338444D01*
X139376458Y-68520072D01*
X139356496Y-68710000D01*
X139357186Y-68716565D01*
X139365681Y-68797386D01*
X139376458Y-68899928D01*
X139435473Y-69081556D01*
X139530960Y-69246944D01*
X139604137Y-69328215D01*
X139634853Y-69392221D01*
X139636500Y-69412524D01*
X139636500Y-72375516D01*
X139616498Y-72443637D01*
X139587723Y-72475078D01*
X139585361Y-72476910D01*
X139578535Y-72480947D01*
X139572930Y-72486551D01*
X139564212Y-72495269D01*
X139549179Y-72508109D01*
X139532790Y-72520017D01*
X139527738Y-72526124D01*
X139504609Y-72554082D01*
X139496619Y-72562863D01*
X139153230Y-72906251D01*
X139144952Y-72913784D01*
X139138471Y-72917897D01*
X139133044Y-72923676D01*
X139133042Y-72923678D01*
X139091862Y-72967532D01*
X139089104Y-72970378D01*
X139080280Y-72979202D01*
X139069354Y-72990127D01*
X139066874Y-72993324D01*
X139059171Y-73002344D01*
X139028903Y-73034576D01*
X139025084Y-73041522D01*
X139025082Y-73041525D01*
X139019141Y-73052331D01*
X139008290Y-73068850D01*
X138995875Y-73084856D01*
X138992730Y-73092125D01*
X138992727Y-73092129D01*
X138978315Y-73125434D01*
X138973098Y-73136084D01*
X138951794Y-73174837D01*
X138949823Y-73182512D01*
X138949823Y-73182513D01*
X138946756Y-73194459D01*
X138940352Y-73213163D01*
X138932308Y-73231752D01*
X138931069Y-73239575D01*
X138931066Y-73239585D01*
X138925390Y-73275421D01*
X138922984Y-73287041D01*
X138917088Y-73310008D01*
X138911989Y-73329867D01*
X138911989Y-73350121D01*
X138910438Y-73369831D01*
X138907269Y-73389840D01*
X138908015Y-73397732D01*
X138911430Y-73433858D01*
X138911989Y-73445716D01*
X138911989Y-78394200D01*
X138891987Y-78462321D01*
X138875084Y-78483295D01*
X137077747Y-80280631D01*
X137069461Y-80288171D01*
X137062982Y-80292283D01*
X137057557Y-80298060D01*
X137016357Y-80341934D01*
X137013604Y-80344774D01*
X136993865Y-80364513D01*
X136991385Y-80367710D01*
X136983682Y-80376730D01*
X136953414Y-80408962D01*
X136949595Y-80415908D01*
X136949593Y-80415911D01*
X136943652Y-80426717D01*
X136932801Y-80443236D01*
X136920386Y-80459242D01*
X136917241Y-80466511D01*
X136917238Y-80466515D01*
X136902826Y-80499820D01*
X136897609Y-80510470D01*
X136876305Y-80549223D01*
X136874334Y-80556898D01*
X136874334Y-80556899D01*
X136871267Y-80568845D01*
X136864863Y-80587549D01*
X136856819Y-80606138D01*
X136855580Y-80613961D01*
X136855577Y-80613971D01*
X136849901Y-80649807D01*
X136847495Y-80661427D01*
X136842109Y-80682405D01*
X136836500Y-80704253D01*
X136836500Y-80724507D01*
X136834949Y-80744217D01*
X136831780Y-80764226D01*
X136832526Y-80772118D01*
X136835941Y-80808244D01*
X136836500Y-80820102D01*
X136836500Y-84035405D01*
X136816498Y-84103526D01*
X136799595Y-84124500D01*
X130405860Y-90518235D01*
X130344213Y-90551898D01*
X130344231Y-90551975D01*
X130343949Y-90552042D01*
X130343548Y-90552261D01*
X130341234Y-90552689D01*
X130339205Y-90553172D01*
X130334091Y-90553955D01*
X130121756Y-90623357D01*
X129923607Y-90726507D01*
X129919474Y-90729610D01*
X129919471Y-90729612D01*
X129749100Y-90857530D01*
X129744965Y-90860635D01*
X129741393Y-90864373D01*
X129624684Y-90986502D01*
X129590629Y-91022138D01*
X129464743Y-91206680D01*
X129370688Y-91409305D01*
X129310989Y-91624570D01*
X129287251Y-91846695D01*
X129287548Y-91851848D01*
X129287548Y-91851851D01*
X129299812Y-92064547D01*
X129300110Y-92069715D01*
X129301247Y-92074761D01*
X129301248Y-92074767D01*
X129321119Y-92162939D01*
X129349222Y-92287639D01*
X129433266Y-92494616D01*
X129484019Y-92577438D01*
X129547291Y-92680688D01*
X129549987Y-92685088D01*
X129696250Y-92853938D01*
X129868126Y-92996632D01*
X129875827Y-93001132D01*
X129941445Y-93039476D01*
X129990169Y-93091114D01*
X130003240Y-93160897D01*
X129976509Y-93226669D01*
X129936055Y-93260027D01*
X129923607Y-93266507D01*
X129919474Y-93269610D01*
X129919471Y-93269612D01*
X129749100Y-93397530D01*
X129744965Y-93400635D01*
X129717316Y-93429568D01*
X129651280Y-93498671D01*
X129590629Y-93562138D01*
X129464743Y-93746680D01*
X129370688Y-93949305D01*
X129310989Y-94164570D01*
X129287251Y-94386695D01*
X109828500Y-94386695D01*
X109828500Y-93521866D01*
X109821745Y-93459684D01*
X109770615Y-93323295D01*
X109683261Y-93206739D01*
X109566705Y-93119385D01*
X109539905Y-93109338D01*
X109448203Y-93074960D01*
X109391439Y-93032318D01*
X109366739Y-92965756D01*
X109381947Y-92896408D01*
X109403493Y-92867727D01*
X109431000Y-92840316D01*
X109508096Y-92763489D01*
X109567594Y-92680689D01*
X109635435Y-92586277D01*
X109638453Y-92582077D01*
X109659320Y-92539857D01*
X109735136Y-92386453D01*
X109735137Y-92386451D01*
X109737430Y-92381811D01*
X109802370Y-92168069D01*
X109831529Y-91946590D01*
X109833156Y-91880000D01*
X109814852Y-91657361D01*
X109760431Y-91440702D01*
X109671354Y-91235840D01*
X109550014Y-91048277D01*
X109530117Y-91026410D01*
X109511306Y-91005737D01*
X109480254Y-90941891D01*
X109478500Y-90920938D01*
X109478500Y-88481843D01*
X109479237Y-88468236D01*
X109482659Y-88436738D01*
X109482659Y-88436733D01*
X109483324Y-88430612D01*
X109478950Y-88380612D01*
X109478621Y-88375786D01*
X109478500Y-88373314D01*
X109478500Y-88370231D01*
X109477326Y-88358262D01*
X109474310Y-88327494D01*
X109474188Y-88326181D01*
X109467926Y-88254606D01*
X109466087Y-88233587D01*
X109464600Y-88228468D01*
X109464080Y-88223167D01*
X109437209Y-88134166D01*
X109436874Y-88133033D01*
X109412630Y-88049586D01*
X109412628Y-88049582D01*
X109410909Y-88043664D01*
X109408456Y-88038932D01*
X109406916Y-88033831D01*
X109363269Y-87951740D01*
X109362657Y-87950574D01*
X109322729Y-87873547D01*
X109319892Y-87868074D01*
X109316569Y-87863911D01*
X109314066Y-87859204D01*
X109255261Y-87787102D01*
X109254433Y-87786075D01*
X109225469Y-87749792D01*
X109225464Y-87749787D01*
X109223262Y-87747028D01*
X109220761Y-87744527D01*
X109220119Y-87743809D01*
X109216406Y-87739461D01*
X109208642Y-87729941D01*
X109189065Y-87705938D01*
X109184323Y-87702015D01*
X109184321Y-87702013D01*
X109153727Y-87676703D01*
X109144947Y-87668713D01*
X104985329Y-83509095D01*
X104951303Y-83446783D01*
X104956368Y-83375968D01*
X104985329Y-83330905D01*
X105850829Y-82465405D01*
X105913141Y-82431379D01*
X105939924Y-82428500D01*
X134408157Y-82428500D01*
X134421764Y-82429237D01*
X134453262Y-82432659D01*
X134453267Y-82432659D01*
X134459388Y-82433324D01*
X134485638Y-82431027D01*
X134509388Y-82428950D01*
X134514214Y-82428621D01*
X134516686Y-82428500D01*
X134519769Y-82428500D01*
X134531738Y-82427326D01*
X134562506Y-82424310D01*
X134563819Y-82424188D01*
X134608084Y-82420315D01*
X134656413Y-82416087D01*
X134661532Y-82414600D01*
X134666833Y-82414080D01*
X134755834Y-82387209D01*
X134756967Y-82386874D01*
X134840414Y-82362630D01*
X134840418Y-82362628D01*
X134846336Y-82360909D01*
X134851068Y-82358456D01*
X134856169Y-82356916D01*
X134861612Y-82354022D01*
X134938260Y-82313269D01*
X134939426Y-82312657D01*
X135016453Y-82272729D01*
X135021926Y-82269892D01*
X135026089Y-82266569D01*
X135030796Y-82264066D01*
X135102918Y-82205245D01*
X135103774Y-82204554D01*
X135142973Y-82173262D01*
X135145477Y-82170758D01*
X135146195Y-82170116D01*
X135150528Y-82166415D01*
X135184062Y-82139065D01*
X135213288Y-82103737D01*
X135221277Y-82094958D01*
X136216125Y-81100109D01*
X136218309Y-81097925D01*
X136312103Y-80983738D01*
X136399845Y-80820102D01*
X136402651Y-80814868D01*
X136402651Y-80814867D01*
X136405563Y-80809437D01*
X136463388Y-80620302D01*
X136475733Y-80498763D01*
X136482752Y-80429665D01*
X136482752Y-80429661D01*
X136483374Y-80423537D01*
X136473077Y-80314604D01*
X136465342Y-80232770D01*
X136465341Y-80232766D01*
X136464762Y-80226638D01*
X136462813Y-80220097D01*
X136410020Y-80043006D01*
X136410019Y-80043004D01*
X136408260Y-80037103D01*
X136316018Y-79862153D01*
X136191553Y-79708452D01*
X136039605Y-79581853D01*
X135865960Y-79487178D01*
X135677232Y-79428035D01*
X135671109Y-79427370D01*
X135671105Y-79427369D01*
X135486737Y-79407340D01*
X135486733Y-79407340D01*
X135480612Y-79406675D01*
X135283587Y-79423913D01*
X135093664Y-79479091D01*
X134918074Y-79570108D01*
X134797028Y-79666738D01*
X134089171Y-80374595D01*
X134026859Y-80408621D01*
X134000076Y-80411500D01*
X105531842Y-80411500D01*
X105518235Y-80410763D01*
X105486737Y-80407341D01*
X105486732Y-80407341D01*
X105480611Y-80406676D01*
X105464620Y-80408075D01*
X105430609Y-80411050D01*
X105425784Y-80411379D01*
X105423313Y-80411500D01*
X105420231Y-80411500D01*
X105397763Y-80413703D01*
X105377489Y-80415691D01*
X105376174Y-80415813D01*
X105343913Y-80418636D01*
X105283587Y-80423913D01*
X105278468Y-80425400D01*
X105273167Y-80425920D01*
X105204945Y-80446517D01*
X105133952Y-80447057D01*
X105073936Y-80409128D01*
X105043952Y-80344774D01*
X105053522Y-80274425D01*
X105079435Y-80236799D01*
X107850829Y-77465405D01*
X107913141Y-77431379D01*
X107939924Y-77428500D01*
X136408157Y-77428500D01*
X136421764Y-77429237D01*
X136453262Y-77432659D01*
X136453267Y-77432659D01*
X136459388Y-77433324D01*
X136485638Y-77431027D01*
X136509388Y-77428950D01*
X136514214Y-77428621D01*
X136516686Y-77428500D01*
X136519769Y-77428500D01*
X136531738Y-77427326D01*
X136562506Y-77424310D01*
X136563819Y-77424188D01*
X136608084Y-77420315D01*
X136656413Y-77416087D01*
X136661532Y-77414600D01*
X136666833Y-77414080D01*
X136755834Y-77387209D01*
X136756967Y-77386874D01*
X136840414Y-77362630D01*
X136840418Y-77362628D01*
X136846336Y-77360909D01*
X136851068Y-77358456D01*
X136856169Y-77356916D01*
X136861612Y-77354022D01*
X136938260Y-77313269D01*
X136939426Y-77312657D01*
X137016453Y-77272729D01*
X137021926Y-77269892D01*
X137026089Y-77266569D01*
X137030796Y-77264066D01*
X137102918Y-77205245D01*
X137103774Y-77204554D01*
X137142973Y-77173262D01*
X137145477Y-77170758D01*
X137146195Y-77170116D01*
X137150528Y-77166415D01*
X137184062Y-77139065D01*
X137213288Y-77103737D01*
X137221277Y-77094958D01*
X138216125Y-76100109D01*
X138218309Y-76097925D01*
X138312103Y-75983738D01*
X138405563Y-75809437D01*
X138463388Y-75620302D01*
X138483374Y-75423537D01*
X138464762Y-75226638D01*
X138455750Y-75196405D01*
X138410020Y-75043006D01*
X138410019Y-75043004D01*
X138408260Y-75037103D01*
X138316018Y-74862153D01*
X138191553Y-74708452D01*
X138039605Y-74581853D01*
X137865960Y-74487178D01*
X137677232Y-74428035D01*
X137671109Y-74427370D01*
X137671105Y-74427369D01*
X137486737Y-74407340D01*
X137486733Y-74407340D01*
X137480612Y-74406675D01*
X137283587Y-74423913D01*
X137093664Y-74479091D01*
X136918074Y-74570108D01*
X136797028Y-74666738D01*
X136089171Y-75374595D01*
X136026859Y-75408621D01*
X136000076Y-75411500D01*
X108208924Y-75411500D01*
X108140803Y-75391498D01*
X108094310Y-75337842D01*
X108084206Y-75267568D01*
X108113700Y-75202988D01*
X108119829Y-75196405D01*
X110850829Y-72465405D01*
X110913141Y-72431379D01*
X110939924Y-72428500D01*
X136908157Y-72428500D01*
X136921764Y-72429237D01*
X136953262Y-72432659D01*
X136953267Y-72432659D01*
X136959388Y-72433324D01*
X136985638Y-72431027D01*
X137009388Y-72428950D01*
X137014214Y-72428621D01*
X137016686Y-72428500D01*
X137019769Y-72428500D01*
X137031738Y-72427326D01*
X137062506Y-72424310D01*
X137063819Y-72424188D01*
X137108084Y-72420315D01*
X137156413Y-72416087D01*
X137161532Y-72414600D01*
X137166833Y-72414080D01*
X137255834Y-72387209D01*
X137256967Y-72386874D01*
X137340414Y-72362630D01*
X137340418Y-72362628D01*
X137346336Y-72360909D01*
X137351068Y-72358456D01*
X137356169Y-72356916D01*
X137361612Y-72354022D01*
X137438260Y-72313269D01*
X137439426Y-72312657D01*
X137516453Y-72272729D01*
X137521926Y-72269892D01*
X137526089Y-72266569D01*
X137530796Y-72264066D01*
X137602918Y-72205245D01*
X137603774Y-72204554D01*
X137642973Y-72173262D01*
X137645477Y-72170758D01*
X137646195Y-72170116D01*
X137650528Y-72166415D01*
X137684062Y-72139065D01*
X137713288Y-72103737D01*
X137721277Y-72094958D01*
X138716125Y-71100109D01*
X138718309Y-71097925D01*
X138812103Y-70983738D01*
X138905563Y-70809437D01*
X138963388Y-70620302D01*
X138968486Y-70570108D01*
X138982752Y-70429665D01*
X138982752Y-70429661D01*
X138983374Y-70423537D01*
X138969279Y-70274425D01*
X138965342Y-70232770D01*
X138965341Y-70232766D01*
X138964762Y-70226638D01*
X138908260Y-70037103D01*
X138816018Y-69862153D01*
X138691553Y-69708452D01*
X138539605Y-69581853D01*
X138365960Y-69487178D01*
X138177232Y-69428035D01*
X138171109Y-69427370D01*
X138171105Y-69427369D01*
X137986737Y-69407340D01*
X137986733Y-69407340D01*
X137980612Y-69406675D01*
X137783587Y-69423913D01*
X137593664Y-69479091D01*
X137418074Y-69570108D01*
X137297028Y-69666738D01*
X136589171Y-70374595D01*
X136526859Y-70408621D01*
X136500076Y-70411500D01*
X110531842Y-70411500D01*
X110518235Y-70410763D01*
X110486737Y-70407341D01*
X110486732Y-70407341D01*
X110480611Y-70406676D01*
X110462611Y-70408251D01*
X110430609Y-70411050D01*
X110425784Y-70411379D01*
X110423313Y-70411500D01*
X110420231Y-70411500D01*
X110397763Y-70413703D01*
X110377489Y-70415691D01*
X110376174Y-70415813D01*
X110343913Y-70418636D01*
X110283587Y-70423913D01*
X110278468Y-70425400D01*
X110273167Y-70425920D01*
X110204946Y-70446517D01*
X110133953Y-70447057D01*
X110073936Y-70409129D01*
X110043953Y-70344774D01*
X110053521Y-70274425D01*
X110079435Y-70236799D01*
X112850829Y-67465405D01*
X112913141Y-67431379D01*
X112939924Y-67428500D01*
X146519769Y-67428500D01*
X146522825Y-67428200D01*
X146522832Y-67428200D01*
X146581340Y-67422463D01*
X146666833Y-67414080D01*
X146672734Y-67412298D01*
X146672736Y-67412298D01*
X146746053Y-67390162D01*
X146856169Y-67356916D01*
X147030796Y-67264066D01*
X147170044Y-67150498D01*
X147179287Y-67142960D01*
X147179290Y-67142957D01*
X147184062Y-67139065D01*
X147187991Y-67134316D01*
X147306201Y-66991425D01*
X147306203Y-66991421D01*
X147310130Y-66986675D01*
X147404198Y-66812701D01*
X147462682Y-66623768D01*
X147483355Y-66427075D01*
X147465430Y-66230112D01*
X147409590Y-66040381D01*
X147395178Y-66012812D01*
X147390206Y-66003301D01*
X157287084Y-66003301D01*
X157307080Y-66384833D01*
X157307766Y-66391371D01*
X157367535Y-66768734D01*
X157368906Y-66775184D01*
X157467788Y-67144216D01*
X157469829Y-67150498D01*
X157606740Y-67507164D01*
X157609422Y-67513189D01*
X157782872Y-67853603D01*
X157786169Y-67859313D01*
X157994253Y-68179735D01*
X157998123Y-68185061D01*
X158191478Y-68423835D01*
X158203733Y-68432300D01*
X158214824Y-68425966D01*
X160627978Y-66012812D01*
X160634356Y-66001132D01*
X161364408Y-66001132D01*
X161364539Y-66002965D01*
X161368790Y-66009580D01*
X163784310Y-68425100D01*
X163797386Y-68432241D01*
X163807753Y-68424784D01*
X164001877Y-68185061D01*
X164005747Y-68179735D01*
X164213831Y-67859313D01*
X164217128Y-67853603D01*
X164390578Y-67513189D01*
X164393260Y-67507164D01*
X164530171Y-67150498D01*
X164532212Y-67144216D01*
X164631094Y-66775184D01*
X164632465Y-66768734D01*
X164692234Y-66391371D01*
X164692920Y-66384833D01*
X164710173Y-66055640D01*
X164730632Y-65997426D01*
X164715104Y-65973264D01*
X164710173Y-65944360D01*
X164692920Y-65615167D01*
X164692234Y-65608629D01*
X164632465Y-65231266D01*
X164631094Y-65224816D01*
X164532212Y-64855784D01*
X164530171Y-64849502D01*
X164393260Y-64492836D01*
X164390578Y-64486811D01*
X164217128Y-64146397D01*
X164213831Y-64140687D01*
X164005747Y-63820265D01*
X164001877Y-63814939D01*
X163808522Y-63576165D01*
X163796267Y-63567700D01*
X163785176Y-63574034D01*
X161372022Y-65987188D01*
X161364408Y-66001132D01*
X160634356Y-66001132D01*
X160635592Y-65998868D01*
X160635461Y-65997035D01*
X160631210Y-65990420D01*
X158215690Y-63574900D01*
X158202614Y-63567759D01*
X158192247Y-63575216D01*
X157998123Y-63814939D01*
X157994253Y-63820265D01*
X157786169Y-64140687D01*
X157782872Y-64146397D01*
X157609422Y-64486811D01*
X157606740Y-64492836D01*
X157469829Y-64849502D01*
X157467788Y-64855784D01*
X157368906Y-65224816D01*
X157367535Y-65231266D01*
X157307766Y-65608629D01*
X157307080Y-65615167D01*
X157287084Y-65996699D01*
X157287084Y-66003301D01*
X147390206Y-66003301D01*
X147320813Y-65870568D01*
X147317960Y-65865110D01*
X147194032Y-65710975D01*
X147187727Y-65705684D01*
X147145062Y-65669884D01*
X147042526Y-65583846D01*
X147037128Y-65580879D01*
X147037123Y-65580875D01*
X146874608Y-65491533D01*
X146874609Y-65491533D01*
X146869213Y-65488567D01*
X146863346Y-65486706D01*
X146863344Y-65486705D01*
X146686564Y-65430627D01*
X146686563Y-65430627D01*
X146680694Y-65428765D01*
X146526773Y-65411500D01*
X112531842Y-65411500D01*
X112518235Y-65410763D01*
X112486737Y-65407341D01*
X112486732Y-65407341D01*
X112480611Y-65406676D01*
X112462611Y-65408251D01*
X112430609Y-65411050D01*
X112425784Y-65411379D01*
X112423313Y-65411500D01*
X112420231Y-65411500D01*
X112397763Y-65413703D01*
X112377489Y-65415691D01*
X112376174Y-65415813D01*
X112343913Y-65418636D01*
X112283587Y-65423913D01*
X112278468Y-65425400D01*
X112273167Y-65425920D01*
X112184166Y-65452791D01*
X112183033Y-65453126D01*
X112099586Y-65477370D01*
X112099582Y-65477372D01*
X112093664Y-65479091D01*
X112088932Y-65481544D01*
X112083831Y-65483084D01*
X112078388Y-65485978D01*
X112001740Y-65526731D01*
X112000574Y-65527343D01*
X111923547Y-65567271D01*
X111918074Y-65570108D01*
X111913911Y-65573431D01*
X111909204Y-65575934D01*
X111837082Y-65634755D01*
X111836226Y-65635446D01*
X111797027Y-65666738D01*
X111794523Y-65669242D01*
X111793805Y-65669884D01*
X111789472Y-65673585D01*
X111755938Y-65700935D01*
X111752011Y-65705682D01*
X111752009Y-65705684D01*
X111726713Y-65736262D01*
X111718723Y-65745042D01*
X93800621Y-83663145D01*
X93790478Y-83672247D01*
X93760975Y-83695968D01*
X93753607Y-83704749D01*
X93728709Y-83734421D01*
X93725528Y-83738069D01*
X93723885Y-83739881D01*
X93721691Y-83742075D01*
X93694358Y-83775349D01*
X93693696Y-83776147D01*
X93633846Y-83847474D01*
X93631278Y-83852144D01*
X93627897Y-83856261D01*
X93609487Y-83890596D01*
X93584023Y-83938086D01*
X93583394Y-83939245D01*
X93541538Y-84015381D01*
X93541535Y-84015389D01*
X93538567Y-84020787D01*
X93536955Y-84025869D01*
X93534438Y-84030563D01*
X93507238Y-84119531D01*
X93506918Y-84120559D01*
X93478765Y-84209306D01*
X93478171Y-84214602D01*
X93476613Y-84219698D01*
X93475990Y-84225836D01*
X93467218Y-84312187D01*
X93467089Y-84313393D01*
X93461500Y-84363227D01*
X93461500Y-84366754D01*
X93461445Y-84367739D01*
X93460998Y-84373419D01*
X93458011Y-84402825D01*
X93457345Y-84409388D01*
X93456626Y-84416462D01*
X74478000Y-84416462D01*
X74478000Y-68797386D01*
X76567759Y-68797386D01*
X76575216Y-68807753D01*
X76814935Y-69001874D01*
X76820272Y-69005751D01*
X77140685Y-69213830D01*
X77146394Y-69217127D01*
X77486811Y-69390578D01*
X77492836Y-69393260D01*
X77849502Y-69530171D01*
X77855784Y-69532212D01*
X78224816Y-69631094D01*
X78231266Y-69632465D01*
X78608629Y-69692234D01*
X78615167Y-69692920D01*
X78996699Y-69712916D01*
X79003301Y-69712916D01*
X79384833Y-69692920D01*
X79391371Y-69692234D01*
X79768734Y-69632465D01*
X79775184Y-69631094D01*
X80144216Y-69532212D01*
X80150498Y-69530171D01*
X80507164Y-69393260D01*
X80513189Y-69390578D01*
X80853606Y-69217127D01*
X80859315Y-69213830D01*
X81179728Y-69005751D01*
X81185065Y-69001874D01*
X81423835Y-68808522D01*
X81432300Y-68796267D01*
X81425966Y-68785176D01*
X79012812Y-66372022D01*
X78998868Y-66364408D01*
X78997035Y-66364539D01*
X78990420Y-66368790D01*
X76574900Y-68784310D01*
X76567759Y-68797386D01*
X74478000Y-68797386D01*
X74478000Y-66003301D01*
X75287084Y-66003301D01*
X75307080Y-66384833D01*
X75307766Y-66391371D01*
X75367535Y-66768734D01*
X75368906Y-66775184D01*
X75467788Y-67144216D01*
X75469829Y-67150498D01*
X75606740Y-67507164D01*
X75609422Y-67513189D01*
X75782872Y-67853603D01*
X75786169Y-67859313D01*
X75994253Y-68179735D01*
X75998123Y-68185061D01*
X76191478Y-68423835D01*
X76203733Y-68432300D01*
X76214824Y-68425966D01*
X78627978Y-66012812D01*
X78634356Y-66001132D01*
X79364408Y-66001132D01*
X79364539Y-66002965D01*
X79368790Y-66009580D01*
X81784310Y-68425100D01*
X81797386Y-68432241D01*
X81807753Y-68424784D01*
X82001877Y-68185061D01*
X82005747Y-68179735D01*
X82213831Y-67859313D01*
X82217128Y-67853603D01*
X82390578Y-67513189D01*
X82393260Y-67507164D01*
X82530171Y-67150498D01*
X82532212Y-67144216D01*
X82631094Y-66775184D01*
X82632465Y-66768734D01*
X82692234Y-66391371D01*
X82692920Y-66384833D01*
X82712916Y-66003301D01*
X82712916Y-65996699D01*
X82692920Y-65615167D01*
X82692234Y-65608629D01*
X82632465Y-65231266D01*
X82631094Y-65224816D01*
X82532212Y-64855784D01*
X82530171Y-64849502D01*
X82393260Y-64492836D01*
X82390578Y-64486811D01*
X82217128Y-64146397D01*
X82213831Y-64140687D01*
X82005747Y-63820265D01*
X82001877Y-63814939D01*
X81808522Y-63576165D01*
X81796267Y-63567700D01*
X81785176Y-63574034D01*
X79372022Y-65987188D01*
X79364408Y-66001132D01*
X78634356Y-66001132D01*
X78635592Y-65998868D01*
X78635461Y-65997035D01*
X78631210Y-65990420D01*
X76215690Y-63574900D01*
X76202614Y-63567759D01*
X76192247Y-63575216D01*
X75998123Y-63814939D01*
X75994253Y-63820265D01*
X75786169Y-64140687D01*
X75782872Y-64146397D01*
X75609422Y-64486811D01*
X75606740Y-64492836D01*
X75469829Y-64849502D01*
X75467788Y-64855784D01*
X75368906Y-65224816D01*
X75367535Y-65231266D01*
X75307766Y-65608629D01*
X75307080Y-65615167D01*
X75287084Y-65996699D01*
X75287084Y-66003301D01*
X74478000Y-66003301D01*
X74478000Y-63973207D01*
X74479746Y-63952303D01*
X74482264Y-63937335D01*
X74483071Y-63932539D01*
X74483224Y-63920000D01*
X74481502Y-63907975D01*
X74480499Y-63881871D01*
X74494502Y-63668234D01*
X74496653Y-63651894D01*
X74544265Y-63412530D01*
X74548529Y-63396617D01*
X74614004Y-63203733D01*
X76567700Y-63203733D01*
X76574034Y-63214824D01*
X78987188Y-65627978D01*
X79001132Y-65635592D01*
X79002965Y-65635461D01*
X79009580Y-65631210D01*
X81425100Y-63215690D01*
X81431630Y-63203733D01*
X158567700Y-63203733D01*
X158574034Y-63214824D01*
X160987188Y-65627978D01*
X161001132Y-65635592D01*
X161002965Y-65635461D01*
X161009580Y-65631210D01*
X163425100Y-63215690D01*
X163432241Y-63202614D01*
X163424784Y-63192247D01*
X163185065Y-62998126D01*
X163179728Y-62994249D01*
X162859315Y-62786170D01*
X162853606Y-62782873D01*
X162513189Y-62609422D01*
X162507164Y-62606740D01*
X162150498Y-62469829D01*
X162144216Y-62467788D01*
X161775184Y-62368906D01*
X161768734Y-62367535D01*
X161391371Y-62307766D01*
X161384833Y-62307080D01*
X161003301Y-62287084D01*
X160996699Y-62287084D01*
X160615167Y-62307080D01*
X160608629Y-62307766D01*
X160231266Y-62367535D01*
X160224816Y-62368906D01*
X159855784Y-62467788D01*
X159849502Y-62469829D01*
X159492836Y-62606740D01*
X159486811Y-62609422D01*
X159146397Y-62782872D01*
X159140687Y-62786169D01*
X158820265Y-62994253D01*
X158814939Y-62998123D01*
X158576165Y-63191478D01*
X158567700Y-63203733D01*
X81431630Y-63203733D01*
X81432241Y-63202614D01*
X81424784Y-63192247D01*
X81185065Y-62998126D01*
X81179728Y-62994249D01*
X80859315Y-62786170D01*
X80853606Y-62782873D01*
X80513189Y-62609422D01*
X80507164Y-62606740D01*
X80150498Y-62469829D01*
X80144216Y-62467788D01*
X79775184Y-62368906D01*
X79768734Y-62367535D01*
X79391371Y-62307766D01*
X79384833Y-62307080D01*
X79003301Y-62287084D01*
X78996699Y-62287084D01*
X78615167Y-62307080D01*
X78608629Y-62307766D01*
X78231266Y-62367535D01*
X78224816Y-62368906D01*
X77855784Y-62467788D01*
X77849502Y-62469829D01*
X77492836Y-62606740D01*
X77486811Y-62609422D01*
X77146397Y-62782872D01*
X77140687Y-62786169D01*
X76820265Y-62994253D01*
X76814939Y-62998123D01*
X76576165Y-63191478D01*
X76567700Y-63203733D01*
X74614004Y-63203733D01*
X74626978Y-63165514D01*
X74633284Y-63150290D01*
X74741224Y-62931408D01*
X74749465Y-62917134D01*
X74885050Y-62714217D01*
X74895083Y-62701142D01*
X75055998Y-62517653D01*
X75067653Y-62505998D01*
X75251142Y-62345083D01*
X75264217Y-62335050D01*
X75467134Y-62199465D01*
X75481408Y-62191224D01*
X75700290Y-62083284D01*
X75715516Y-62076977D01*
X75946617Y-61998529D01*
X75962527Y-61994266D01*
X76082212Y-61970459D01*
X76201894Y-61946653D01*
X76218234Y-61944502D01*
X76428268Y-61930736D01*
X76451304Y-61931761D01*
X76454854Y-61931804D01*
X76463730Y-61933186D01*
X76495252Y-61929064D01*
X76511589Y-61928000D01*
X162920672Y-61928000D01*
X162940057Y-61929500D01*
G37*
%TD.AperFunction*%
%TD*%
M02*
