M48
; DRILL file {KiCad (6.0.0)} date Thu Sep 15 20:56:55 2022
; FORMAT={-:-/ absolute / inch / decimal}
; #@! TF.CreationDate,2022-09-15T20:56:55-04:00
; #@! TF.GenerationSoftware,Kicad,Pcbnew,(6.0.0)
; #@! TF.FileFunction,Plated,1,2,PTH
FMAT,2
INCH
; #@! TA.AperFunction,Plated,PTH,ViaDrill
T1C0.0157
; #@! TA.AperFunction,Plated,PTH,ComponentDrill
T2C0.0350
; #@! TA.AperFunction,Plated,PTH,ComponentDrill
T3C0.0394
; #@! TA.AperFunction,Plated,PTH,ComponentDrill
T4C0.0791
; #@! TA.AperFunction,Plated,PTH,ComponentDrill
T5C0.1260
%
G90
G05
T1
X4.3307Y-3.1102
X4.3701Y-2.9134
X4.5276Y-2.7165
X4.5276Y-2.9134
X4.5276Y-3.1102
X4.7244Y-2.7165
X4.7244Y-2.9134
X4.7244Y-3.1102
X4.9213Y-2.7165
X4.9213Y-2.9134
X4.9213Y-3.1102
X5.1181Y-2.7165
X5.1181Y-2.9134
X5.1181Y-3.1102
X5.3335Y-3.1661
X5.3937Y-3.1102
X5.4122Y-2.9693
X5.4319Y-2.7724
X5.5224Y-2.7051
X5.5224Y-2.902
X5.5697Y-3.0874
X5.5697Y-3.2843
X5.6287Y-3.0874
X5.6287Y-3.2843
X5.6799Y-2.7051
X5.6799Y-2.902
X5.7665Y-2.615
T2
X3.4043Y-4.1898
X3.5043Y-4.1898
X4.2793Y-4.1898
X4.3793Y-4.1898
X5.1543Y-4.1898
X5.2543Y-4.1898
X6.0293Y-4.1898
X6.1293Y-4.1898
T3
X3.4193Y-3.6173
X3.4193Y-3.7173
X3.5193Y-3.6173
X3.5193Y-3.7173
X3.6193Y-3.6173
X3.6193Y-3.7173
X3.7193Y-3.6173
X3.7193Y-3.7173
X3.9705Y-3.6173
X3.9705Y-3.7173
X4.0705Y-3.6173
X4.0705Y-3.7173
X4.1705Y-3.6173
X4.1705Y-3.7173
X4.2705Y-3.6173
X4.2705Y-3.7173
X5.1437Y-3.6173
X5.1437Y-3.7173
X5.2437Y-3.6173
X5.2437Y-3.7173
X5.3437Y-3.6173
X5.3437Y-3.7173
X5.4437Y-3.6173
X5.4437Y-3.7173
X5.7264Y-3.6173
X5.7264Y-3.7173
X5.8264Y-3.6173
X5.8264Y-3.7173
X5.9264Y-3.6173
X5.9264Y-3.7173
X6.0264Y-3.6173
X6.0264Y-3.7173
T4
X3.2043Y-4.3898
X3.6043Y-4.3898
X4.0793Y-4.3898
X4.4793Y-4.3898
X4.9543Y-4.3898
X5.3543Y-4.3898
X5.8293Y-4.3898
X6.2293Y-4.3898
T5
X3.1102Y-2.5984
X3.1102Y-3.6614
X6.3386Y-2.5984
X6.3386Y-3.6614
T0
M30
